<svg width="23.394" height="6.841" viewBox="0 0 23.394 6.841" xmlns="http://www.w3.org/2000/svg"><g id="svgGroup" stroke-linecap="round" fill-rule="evenodd" font-size="9pt" stroke="#000" stroke-width="0.25mm" fill="#000" style="stroke:#000;stroke-width:0.25mm;fill:#000"><path d="M 22.939 3.896 L 16.252 1.318 A 3.743 3.743 0 0 1 16.063 1.241 Q 15.841 1.142 15.725 1.047 A 1.322 1.322 0 0 1 15.47 0.778 A 0.97 0.97 0 0 1 15.293 0.212 Q 15.293 0.012 15.437 0.001 A 0.225 0.225 0 0 1 15.454 0 A 0.443 0.443 0 0 1 15.533 0.008 Q 15.609 0.022 15.707 0.06 A 1.606 1.606 0 0 1 15.74 0.073 L 22.507 2.791 A 3.073 3.073 0 0 1 22.696 2.867 Q 22.893 2.955 23.005 3.047 A 1.067 1.067 0 0 1 23.291 3.424 Q 23.394 3.647 23.394 3.779 A 0.247 0.247 0 0 1 23.382 3.855 A 0.213 0.213 0 0 1 23.35 3.918 Q 23.306 3.977 23.24 3.977 A 0.349 0.349 0 0 1 23.181 3.971 Q 23.09 3.956 22.939 3.896 Z M 15.608 6.086 L 21.306 4.05 A 1.112 1.112 0 0 1 21.466 4.003 A 0.819 0.819 0 0 1 21.636 3.984 A 1.446 1.446 0 0 1 21.942 4.019 Q 22.082 4.049 22.232 4.106 A 2.513 2.513 0 0 1 22.277 4.124 A 1.326 1.326 0 0 1 22.404 4.182 Q 22.625 4.298 22.625 4.438 A 0.157 0.157 0 0 1 22.578 4.548 Q 22.529 4.6 22.43 4.642 A 0.948 0.948 0 0 1 22.368 4.666 L 16.743 6.687 A 0.3 0.3 0 0 0 16.729 6.691 Q 16.694 6.702 16.608 6.733 A 9.814 9.814 0 0 0 16.593 6.738 A 2.429 2.429 0 0 1 16.384 6.804 A 2.216 2.216 0 0 1 16.355 6.812 Q 16.263 6.835 16.189 6.839 A 0.587 0.587 0 0 1 16.15 6.841 A 1.038 1.038 0 0 1 15.757 6.761 A 1.351 1.351 0 0 1 15.579 6.672 A 1.228 1.228 0 0 1 15.467 6.599 Q 15.357 6.516 15.316 6.435 A 0.206 0.206 0 0 1 15.293 6.343 Q 15.293 6.306 15.311 6.273 A 0.231 0.231 0 0 1 15.327 6.249 Q 15.339 6.233 15.352 6.222 A 0.359 0.359 0 0 1 15.367 6.21 Q 15.386 6.196 15.414 6.178 A 1.491 1.491 0 0 1 15.433 6.166 Q 15.46 6.15 15.476 6.141 Q 15.498 6.13 15.549 6.108 A 1.805 1.805 0 0 1 15.561 6.103 Q 15.602 6.086 15.608 6.086 Z M 4.211 3.962 L 0.315 3.962 Q 0.006 3.962 0 3.744 A 0.318 0.318 0 0 1 0 3.735 A 0.216 0.216 0 0 1 0.008 3.681 Q 0.032 3.592 0.122 3.438 A 2.898 2.898 0 0 1 0.143 3.402 Q 0.286 3.164 0.491 2.981 A 0.5 0.5 0 0 1 0.646 2.892 Q 0.789 2.838 1.003 2.835 A 1.842 1.842 0 0 1 1.033 2.834 L 4.937 2.834 Q 5.246 2.834 5.251 3.053 A 0.318 0.318 0 0 1 5.251 3.062 A 0.189 0.189 0 0 1 5.243 3.111 Q 5.222 3.189 5.14 3.329 A 2.932 2.932 0 0 1 5.105 3.387 A 1.887 1.887 0 0 1 4.753 3.809 Q 4.591 3.957 4.24 3.962 A 1.757 1.757 0 0 1 4.211 3.962 Z M 11.858 3.962 L 7.961 3.962 Q 7.652 3.962 7.647 3.744 A 0.318 0.318 0 0 1 7.647 3.735 A 0.216 0.216 0 0 1 7.655 3.681 Q 7.678 3.592 7.768 3.438 A 2.898 2.898 0 0 1 7.789 3.402 Q 7.932 3.164 8.137 2.981 A 0.5 0.5 0 0 1 8.292 2.892 Q 8.436 2.838 8.649 2.835 A 1.842 1.842 0 0 1 8.679 2.834 L 12.583 2.834 Q 12.892 2.834 12.898 3.053 A 0.318 0.318 0 0 1 12.898 3.062 A 0.189 0.189 0 0 1 12.89 3.111 Q 12.868 3.189 12.787 3.329 A 2.932 2.932 0 0 1 12.751 3.387 A 1.887 1.887 0 0 1 12.4 3.809 Q 12.238 3.957 11.886 3.962 A 1.757 1.757 0 0 1 11.858 3.962 Z" vector-effect="non-scaling-stroke"/></g></svg>