<svg width="98.071" height="11.77" viewBox="0 0 98.071 11.77" xmlns="http://www.w3.org/2000/svg"><g id="svgGroup" stroke-linecap="round" fill-rule="evenodd" font-size="9pt" stroke="#000" stroke-width="0.25mm" fill="#000" style="stroke:#000;stroke-width:0.25mm;fill:#000"><path d="M 29.502 5.94 L 29.502 1.238 A 0.775 0.775 0 0 1 29.741 0.675 A 1.154 1.154 0 0 1 29.865 0.568 Q 30.227 0.293 30.564 0.293 Q 30.798 0.293 30.818 0.556 A 0.679 0.679 0 0 1 30.82 0.608 L 30.798 4.314 A 0.896 0.896 0 0 0 30.802 4.4 Q 30.81 4.484 30.836 4.529 A 0.088 0.088 0 0 0 30.916 4.578 Q 31.008 4.578 31.189 4.441 A 1.917 1.917 0 0 0 31.201 4.431 A 3.547 3.547 0 0 1 31.888 4.033 A 2.54 2.54 0 0 1 32.9 3.816 A 2.745 2.745 0 0 1 34.173 4.092 Q 35.31 4.678 35.538 6.509 A 8.093 8.093 0 0 1 35.596 7.507 Q 35.596 8.218 35.446 8.947 Q 35.296 9.675 35.032 10.195 Q 34.754 10.752 34.354 11.133 A 2.77 2.77 0 0 1 34.175 11.29 Q 33.994 11.436 33.85 11.487 A 0.435 0.435 0 0 1 33.706 11.514 A 0.223 0.223 0 0 1 33.649 11.507 Q 33.56 11.483 33.56 11.375 A 0.109 0.109 0 0 1 33.564 11.345 Q 33.572 11.317 33.594 11.282 A 0.501 0.501 0 0 1 33.607 11.261 A 1.455 1.455 0 0 0 33.634 11.221 Q 33.676 11.155 33.74 11.043 A 9.103 9.103 0 0 0 33.743 11.038 Q 33.831 10.884 33.904 10.686 Q 34.175 9.945 34.201 8.636 A 14.313 14.313 0 0 0 34.204 8.35 Q 34.204 7.705 34.155 7.197 A 7.378 7.378 0 0 0 34.12 6.899 A 4.85 4.85 0 0 0 34.006 6.325 A 3.703 3.703 0 0 0 33.834 5.819 A 1.807 1.807 0 0 0 33.622 5.445 A 1.383 1.383 0 0 0 33.267 5.109 A 1.424 1.424 0 0 0 32.785 4.913 Q 32.587 4.871 32.358 4.871 A 2.525 2.525 0 0 0 31.809 4.928 A 1.991 1.991 0 0 0 31.326 5.101 Q 30.989 5.275 30.415 5.693 A 21.909 21.909 0 0 0 30.015 5.991 A 1.719 1.719 0 0 1 29.911 6.067 Q 29.807 6.136 29.728 6.161 A 0.268 0.268 0 0 1 29.649 6.174 Q 29.509 6.174 29.502 5.961 A 0.7 0.7 0 0 1 29.502 5.94 Z M 1.472 2.461 L 0.286 2.461 Q 0.095 2.461 0.031 2.382 A 0.15 0.15 0 0 1 0 2.285 Q 0 2.138 0.098 1.982 A 0.912 0.912 0 0 1 0.117 1.952 A 1.342 1.342 0 0 1 0.306 1.732 A 1.651 1.651 0 0 1 0.421 1.633 Q 0.608 1.487 0.839 1.384 A 1.456 1.456 0 0 1 1.095 1.297 A 1.187 1.187 0 0 1 1.289 1.267 L 1.875 1.253 A 8.258 8.258 0 0 1 3.334 1.377 A 7.046 7.046 0 0 1 4.043 1.542 A 4.775 4.775 0 0 1 5.349 2.134 A 4.38 4.38 0 0 1 5.786 2.461 A 4.153 4.153 0 0 1 6.763 3.693 A 5.037 5.037 0 0 1 6.947 4.08 A 4.928 4.928 0 0 1 7.249 5.098 Q 7.342 5.59 7.363 6.153 A 8.918 8.918 0 0 1 7.368 6.475 A 6.251 6.251 0 0 1 7.233 7.778 A 5.817 5.817 0 0 1 6.841 8.98 Q 6.585 9.544 6.222 10.012 Q 5.859 10.481 5.413 10.822 A 3.633 3.633 0 0 1 4.439 11.353 A 3.231 3.231 0 0 1 3.333 11.543 A 0.584 0.584 0 0 1 3.245 11.537 Q 3.133 11.52 3.095 11.454 A 0.158 0.158 0 0 1 3.076 11.375 Q 3.076 11.252 3.216 11.18 A 0.486 0.486 0 0 1 3.237 11.169 A 5.75 5.75 0 0 0 4.011 10.743 A 4.915 4.915 0 0 0 4.343 10.503 Q 4.827 10.122 5.16 9.591 A 3.817 3.817 0 0 0 5.514 8.857 A 4.852 4.852 0 0 0 5.665 8.35 A 5.762 5.762 0 0 0 5.789 7.632 Q 5.828 7.278 5.836 6.88 A 9.995 9.995 0 0 0 5.837 6.694 A 6.818 6.818 0 0 0 5.771 5.719 A 5.377 5.377 0 0 0 5.614 4.988 A 3.321 3.321 0 0 0 5.06 3.878 A 3.175 3.175 0 0 0 4.878 3.662 A 3.125 3.125 0 0 0 4.089 3.05 A 4.092 4.092 0 0 0 3.53 2.794 Q 2.695 2.483 1.472 2.461 Z M 69.954 6.921 L 69.954 10.671 A 0.781 0.781 0 0 1 69.708 11.243 A 1.157 1.157 0 0 1 69.595 11.342 A 1.587 1.587 0 0 1 69.339 11.503 Q 69.18 11.583 69.023 11.606 A 0.882 0.882 0 0 1 68.892 11.616 Q 68.657 11.616 68.637 11.353 A 0.679 0.679 0 0 1 68.635 11.301 L 68.635 8.408 Q 68.635 7.881 68.629 7.552 A 15.784 15.784 0 0 0 68.624 7.368 Q 68.617 7.127 68.592 6.819 A 18.393 18.393 0 0 0 68.566 6.526 A 4.527 4.527 0 0 0 68.534 6.27 Q 68.487 5.968 68.408 5.797 A 2.424 2.424 0 0 0 68.26 5.526 A 3.143 3.143 0 0 0 68.112 5.31 A 0.954 0.954 0 0 0 67.625 4.966 A 1.893 1.893 0 0 0 67.328 4.899 Q 67.135 4.871 66.907 4.871 A 1.808 1.808 0 0 0 66.36 4.967 Q 65.838 5.134 65.154 5.592 A 10.943 10.943 0 0 0 64.6 5.991 A 1.719 1.719 0 0 1 64.495 6.067 Q 64.392 6.136 64.313 6.161 A 0.268 0.268 0 0 1 64.233 6.174 Q 64.095 6.174 64.087 5.951 A 0.781 0.781 0 0 1 64.087 5.925 L 64.087 4.761 A 0.775 0.775 0 0 1 64.326 4.198 A 1.154 1.154 0 0 1 64.45 4.091 Q 64.812 3.816 65.149 3.816 Q 65.383 3.816 65.403 4.079 A 0.679 0.679 0 0 1 65.405 4.131 L 65.405 4.314 A 0.896 0.896 0 0 0 65.409 4.4 Q 65.417 4.484 65.443 4.529 A 0.088 0.088 0 0 0 65.523 4.578 Q 65.603 4.578 65.733 4.492 A 1.374 1.374 0 0 0 65.808 4.439 A 3.359 3.359 0 0 1 66.483 4.05 A 3.039 3.039 0 0 1 66.68 3.973 A 3.282 3.282 0 0 1 67.031 3.872 Q 67.209 3.832 67.37 3.82 A 1.751 1.751 0 0 1 67.493 3.816 A 3.596 3.596 0 0 1 68.189 3.879 Q 68.59 3.958 68.895 4.137 A 1.746 1.746 0 0 1 69.36 4.53 A 2.066 2.066 0 0 1 69.698 5.135 Q 69.954 5.821 69.954 6.921 Z M 52.207 6.878 A 0.502 0.502 0 0 0 52.215 6.968 Q 52.238 7.096 52.335 7.138 A 0.536 0.536 0 0 0 52.427 7.166 Q 52.541 7.192 52.712 7.192 A 6.268 6.268 0 0 0 53.165 7.177 Q 53.52 7.151 53.804 7.083 A 2.63 2.63 0 0 0 54.085 6.999 Q 54.339 6.906 54.5 6.775 A 1.593 1.593 0 0 0 54.674 6.611 Q 54.764 6.511 54.822 6.406 A 0.932 0.932 0 0 0 54.848 6.357 Q 54.954 6.138 54.954 5.874 A 1.061 1.061 0 0 0 54.902 5.535 A 0.882 0.882 0 0 0 54.639 5.145 A 0.94 0.94 0 0 0 54.342 4.975 Q 54.057 4.871 53.628 4.871 A 3.399 3.399 0 0 0 51.773 5.426 A 4.225 4.225 0 0 0 51.577 5.559 Q 51.298 5.767 51.222 5.771 A 0.056 0.056 0 0 1 51.218 5.772 A 0.159 0.159 0 0 1 51.167 5.764 Q 51.096 5.74 51.094 5.639 A 0.3 0.3 0 0 1 51.094 5.632 A 0.412 0.412 0 0 1 51.118 5.5 Q 51.165 5.361 51.306 5.186 A 3.67 3.67 0 0 1 52.021 4.485 A 3.382 3.382 0 0 1 52.207 4.358 A 4.554 4.554 0 0 1 52.574 4.146 Q 52.758 4.051 52.929 3.989 A 2.284 2.284 0 0 1 53.13 3.926 A 3.242 3.242 0 0 1 53.958 3.816 A 4.38 4.38 0 0 1 54.459 3.843 A 3.317 3.317 0 0 1 54.91 3.926 Q 55.335 4.036 55.664 4.266 A 1.49 1.49 0 0 1 56.116 4.776 A 1.809 1.809 0 0 1 56.177 4.896 A 1.953 1.953 0 0 1 56.325 5.388 A 2.659 2.659 0 0 1 56.36 5.83 A 1.851 1.851 0 0 1 55.676 7.313 A 2.681 2.681 0 0 1 55.272 7.592 A 4.151 4.151 0 0 1 54.279 7.987 Q 53.435 8.211 52.302 8.211 Q 51.775 8.211 51.108 8.152 A 0.532 0.532 0 0 1 50.977 8.128 Q 50.809 8.072 50.783 7.896 A 0.466 0.466 0 0 1 50.779 7.83 Q 50.779 7.017 51.013 6.61 A 1.772 1.772 0 0 1 51.361 6.175 A 1.598 1.598 0 0 1 51.621 5.984 A 2.956 2.956 0 0 1 51.793 5.891 Q 51.96 5.809 52.08 5.783 A 0.473 0.473 0 0 1 52.178 5.772 A 0.199 0.199 0 0 1 52.255 5.785 Q 52.341 5.821 52.352 5.95 A 0.474 0.474 0 0 1 52.354 5.991 A 0.464 0.464 0 0 1 52.35 6.04 Q 52.339 6.147 52.285 6.4 A 12.736 12.736 0 0 1 52.28 6.42 A 7.825 7.825 0 0 0 52.252 6.558 Q 52.215 6.746 52.209 6.841 A 0.542 0.542 0 0 0 52.207 6.878 Z M 14.48 6.76 L 14.48 10.73 A 0.579 0.579 0 0 1 14.385 11.046 A 0.715 0.715 0 0 1 14.367 11.074 A 1.219 1.219 0 0 1 14.088 11.356 A 1.446 1.446 0 0 1 13.737 11.547 A 1.353 1.353 0 0 1 13.609 11.588 Q 13.5 11.616 13.411 11.616 Q 13.177 11.616 13.156 11.353 A 0.679 0.679 0 0 1 13.154 11.301 L 13.154 7.031 A 3.998 3.998 0 0 0 13.084 6.243 Q 12.806 4.871 11.441 4.871 A 3.16 3.16 0 0 0 9.631 5.42 Q 9.309 5.632 9.214 5.632 A 0.148 0.148 0 0 1 9.17 5.626 Q 9.122 5.611 9.109 5.558 A 0.184 0.184 0 0 1 9.104 5.515 Q 9.104 5.328 9.294 5.079 A 1.85 1.85 0 0 1 9.331 5.032 A 3.388 3.388 0 0 1 10.332 4.185 A 3.129 3.129 0 0 1 11.851 3.816 A 4.052 4.052 0 0 1 12.435 3.856 A 3.105 3.105 0 0 1 12.957 3.977 A 1.991 1.991 0 0 1 13.653 4.367 A 1.924 1.924 0 0 1 13.784 4.493 A 2.098 2.098 0 0 1 14.129 4.988 A 2.813 2.813 0 0 1 14.301 5.409 A 3.469 3.469 0 0 1 14.423 5.943 Q 14.465 6.217 14.476 6.529 A 6.531 6.531 0 0 1 14.48 6.76 Z M 27.7 6.76 L 27.7 10.73 A 0.579 0.579 0 0 1 27.605 11.046 A 0.715 0.715 0 0 1 27.587 11.074 A 1.219 1.219 0 0 1 27.308 11.356 A 1.446 1.446 0 0 1 26.957 11.547 A 1.353 1.353 0 0 1 26.829 11.588 Q 26.72 11.616 26.631 11.616 Q 26.397 11.616 26.377 11.353 A 0.679 0.679 0 0 1 26.375 11.301 L 26.375 7.031 A 3.998 3.998 0 0 0 26.304 6.243 Q 26.026 4.871 24.661 4.871 A 3.16 3.16 0 0 0 22.852 5.42 Q 22.529 5.632 22.434 5.632 A 0.148 0.148 0 0 1 22.39 5.626 Q 22.342 5.611 22.329 5.558 A 0.184 0.184 0 0 1 22.324 5.515 Q 22.324 5.328 22.514 5.079 A 1.85 1.85 0 0 1 22.551 5.032 A 3.388 3.388 0 0 1 23.553 4.185 A 3.129 3.129 0 0 1 25.071 3.816 A 4.052 4.052 0 0 1 25.655 3.856 A 3.105 3.105 0 0 1 26.177 3.977 A 1.991 1.991 0 0 1 26.873 4.367 A 1.924 1.924 0 0 1 27.004 4.493 A 2.098 2.098 0 0 1 27.349 4.988 A 2.813 2.813 0 0 1 27.521 5.409 A 3.469 3.469 0 0 1 27.644 5.943 Q 27.685 6.217 27.696 6.529 A 6.531 6.531 0 0 1 27.7 6.76 Z M 42.715 6.76 L 42.715 10.73 A 0.579 0.579 0 0 1 42.62 11.046 A 0.715 0.715 0 0 1 42.601 11.074 A 1.219 1.219 0 0 1 42.323 11.356 A 1.446 1.446 0 0 1 41.972 11.547 A 1.353 1.353 0 0 1 41.843 11.588 Q 41.735 11.616 41.646 11.616 Q 41.411 11.616 41.391 11.353 A 0.679 0.679 0 0 1 41.389 11.301 L 41.389 7.031 A 3.998 3.998 0 0 0 41.319 6.243 Q 41.041 4.871 39.675 4.871 A 3.16 3.16 0 0 0 37.866 5.42 Q 37.544 5.632 37.449 5.632 A 0.148 0.148 0 0 1 37.405 5.626 Q 37.356 5.611 37.344 5.558 A 0.184 0.184 0 0 1 37.339 5.515 Q 37.339 5.328 37.528 5.079 A 1.85 1.85 0 0 1 37.566 5.032 A 3.388 3.388 0 0 1 38.567 4.185 A 3.129 3.129 0 0 1 40.086 3.816 A 4.052 4.052 0 0 1 40.67 3.856 A 3.105 3.105 0 0 1 41.191 3.977 A 1.991 1.991 0 0 1 41.887 4.367 A 1.924 1.924 0 0 1 42.019 4.493 A 2.098 2.098 0 0 1 42.364 4.988 A 2.813 2.813 0 0 1 42.535 5.409 A 3.469 3.469 0 0 1 42.658 5.943 Q 42.7 6.217 42.711 6.529 A 6.531 6.531 0 0 1 42.715 6.76 Z M 76.685 2.461 L 75.154 2.461 Q 75.059 2.461 75.004 2.454 Q 74.949 2.446 74.909 2.406 A 0.132 0.132 0 0 1 74.875 2.346 Q 74.869 2.325 74.868 2.3 A 0.257 0.257 0 0 1 74.868 2.293 A 0.542 0.542 0 0 1 74.93 2.051 Q 75.029 1.85 75.289 1.633 A 1.909 1.909 0 0 1 75.588 1.426 Q 75.859 1.277 76.128 1.267 L 76.904 1.26 L 77.842 1.267 A 4.343 4.343 0 0 1 78.644 1.359 A 2.971 2.971 0 0 1 79.064 1.48 Q 79.281 1.56 79.512 1.677 A 3.084 3.084 0 0 1 80.325 2.271 Q 80.676 2.629 80.907 3.237 Q 81.138 3.845 81.138 4.614 A 2.721 2.721 0 0 1 81.119 4.929 A 3.682 3.682 0 0 1 81.061 5.274 A 2.909 2.909 0 0 1 80.968 5.603 Q 80.893 5.825 80.775 6.072 Q 80.566 6.511 80.255 6.874 A 2.444 2.444 0 0 1 79.877 7.226 Q 79.672 7.382 79.417 7.518 A 3.222 3.222 0 0 1 78.551 7.828 A 3.856 3.856 0 0 1 78.23 7.881 L 78.186 7.881 A 0.338 0.338 0 0 1 78.112 7.874 Q 77.988 7.846 77.988 7.712 Q 77.988 7.624 78.114 7.536 A 0.762 0.762 0 0 1 78.157 7.507 A 3.003 3.003 0 0 0 79.122 6.585 Q 79.578 5.879 79.578 4.9 Q 79.578 2.631 77.074 2.473 A 6.178 6.178 0 0 0 76.685 2.461 Z M 93.618 2.461 L 92.087 2.461 Q 91.992 2.461 91.937 2.454 Q 91.882 2.446 91.842 2.406 A 0.132 0.132 0 0 1 91.808 2.346 Q 91.803 2.325 91.802 2.3 A 0.257 0.257 0 0 1 91.802 2.293 A 0.542 0.542 0 0 1 91.864 2.051 Q 91.963 1.85 92.223 1.633 A 1.909 1.909 0 0 1 92.522 1.426 Q 92.793 1.277 93.062 1.267 L 93.838 1.26 L 94.775 1.267 A 4.343 4.343 0 0 1 95.577 1.359 A 2.971 2.971 0 0 1 95.998 1.48 Q 96.215 1.56 96.445 1.677 A 3.084 3.084 0 0 1 97.258 2.271 Q 97.61 2.629 97.841 3.237 Q 98.071 3.845 98.071 4.614 A 2.721 2.721 0 0 1 98.052 4.929 A 3.682 3.682 0 0 1 97.994 5.274 A 2.909 2.909 0 0 1 97.902 5.603 Q 97.826 5.825 97.709 6.072 Q 97.5 6.511 97.189 6.874 A 2.444 2.444 0 0 1 96.81 7.226 Q 96.606 7.382 96.35 7.518 A 3.222 3.222 0 0 1 95.485 7.828 A 3.856 3.856 0 0 1 95.164 7.881 L 95.12 7.881 A 0.338 0.338 0 0 1 95.046 7.874 Q 94.922 7.846 94.922 7.712 Q 94.922 7.624 95.047 7.536 A 0.762 0.762 0 0 1 95.09 7.507 A 3.003 3.003 0 0 0 96.055 6.585 Q 96.511 5.879 96.511 4.9 Q 96.511 2.631 94.008 2.473 A 6.178 6.178 0 0 0 93.618 2.461 Z M 89.854 1.436 L 89.854 10.525 A 1.452 1.452 0 0 1 89.842 10.715 Q 89.814 10.926 89.718 11.046 A 0.421 0.421 0 0 1 89.707 11.06 A 1.262 1.262 0 0 1 89.501 11.254 Q 89.398 11.332 89.271 11.402 A 2.344 2.344 0 0 1 89.183 11.448 A 2.468 2.468 0 0 1 89.002 11.529 Q 88.818 11.603 88.68 11.614 A 0.594 0.594 0 0 1 88.63 11.616 A 0.278 0.278 0 0 1 88.52 11.596 Q 88.401 11.545 88.384 11.363 A 0.682 0.682 0 0 1 88.381 11.301 L 88.381 2.212 A 1.049 1.049 0 0 1 88.4 2.011 Q 88.423 1.893 88.475 1.801 A 0.583 0.583 0 0 1 88.528 1.721 Q 88.711 1.494 89.048 1.307 A 2.301 2.301 0 0 1 89.228 1.217 Q 89.445 1.121 89.597 1.121 Q 89.831 1.121 89.852 1.384 A 0.679 0.679 0 0 1 89.854 1.436 Z M 0 11.228 L 0 3.34 A 0.596 0.596 0 0 1 0.013 3.212 Q 0.048 3.053 0.18 2.988 Q 0.337 2.911 0.643 2.902 A 2.878 2.878 0 0 1 0.733 2.9 Q 1.143 2.9 1.307 2.985 Q 1.472 3.069 1.472 3.34 L 1.472 10.042 Q 1.472 10.28 1.661 10.329 A 0.442 0.442 0 0 0 1.773 10.342 L 2.988 10.342 A 0.81 0.81 0 0 1 3.095 10.348 Q 3.212 10.364 3.263 10.418 A 0.149 0.149 0 0 1 3.303 10.525 A 0.155 0.155 0 0 1 3.285 10.593 Q 3.244 10.676 3.109 10.787 A 1.731 1.731 0 0 1 3.08 10.811 Q 2.888 10.962 2.618 11.102 A 4.275 4.275 0 0 1 2.527 11.148 A 3.963 3.963 0 0 1 2.128 11.315 A 5.097 5.097 0 0 1 1.78 11.426 A 3.461 3.461 0 0 1 1.429 11.506 Q 1.239 11.538 1.067 11.542 A 2.068 2.068 0 0 1 1.018 11.543 L 0.3 11.543 A 0.411 0.411 0 0 1 0.18 11.527 Q 0.047 11.486 0.012 11.343 A 0.488 0.488 0 0 1 0 11.228 Z M 87.539 6.68 L 82.94 6.68 Q 82.701 6.68 82.652 6.491 A 0.442 0.442 0 0 1 82.639 6.379 L 82.639 2.212 A 0.997 0.997 0 0 1 82.659 2.008 Q 82.685 1.881 82.748 1.783 A 0.58 0.58 0 0 1 82.793 1.721 A 1.558 1.558 0 0 1 83.016 1.506 Q 83.13 1.415 83.271 1.332 A 2.698 2.698 0 0 1 83.313 1.307 Q 83.607 1.141 83.808 1.123 A 0.53 0.53 0 0 1 83.855 1.121 Q 84.089 1.121 84.11 1.384 A 0.679 0.679 0 0 1 84.111 1.436 L 84.111 5.178 Q 84.111 5.417 84.301 5.466 A 0.442 0.442 0 0 0 84.412 5.479 L 87.539 5.479 A 0.707 0.707 0 0 1 87.65 5.487 Q 87.707 5.496 87.75 5.515 A 0.24 0.24 0 0 1 87.861 5.607 A 0.378 0.378 0 0 1 87.9 5.695 Q 87.93 5.791 87.939 5.941 A 2.232 2.232 0 0 1 87.942 6.065 Q 87.942 6.329 87.894 6.47 A 0.385 0.385 0 0 1 87.861 6.544 Q 87.798 6.651 87.636 6.673 A 0.694 0.694 0 0 1 87.539 6.68 Z M 18.281 5.874 L 18.281 8.438 A 9.063 9.063 0 0 0 18.292 8.883 Q 18.302 9.1 18.324 9.287 A 4.306 4.306 0 0 0 18.355 9.503 A 3.359 3.359 0 0 0 18.418 9.801 Q 18.48 10.039 18.571 10.21 Q 18.708 10.471 18.913 10.589 A 0.712 0.712 0 0 0 18.93 10.598 A 0.952 0.952 0 0 0 19.23 10.699 A 1.272 1.272 0 0 0 19.439 10.715 Q 19.702 10.715 19.899 10.666 A 1.145 1.145 0 0 0 20.014 10.631 A 2.536 2.536 0 0 0 20.188 10.56 Q 20.273 10.522 20.345 10.481 A 1.341 1.341 0 0 0 20.398 10.448 A 3.693 3.693 0 0 0 20.506 10.376 Q 20.559 10.339 20.604 10.305 A 1.884 1.884 0 0 0 20.654 10.265 A 0.439 0.439 0 0 1 20.728 10.216 Q 20.794 10.181 20.859 10.181 Q 20.924 10.181 20.965 10.206 A 0.13 0.13 0 0 1 20.999 10.236 A 0.194 0.194 0 0 1 21.036 10.314 Q 21.042 10.342 21.043 10.374 A 0.346 0.346 0 0 1 21.043 10.378 A 0.446 0.446 0 0 1 21.035 10.457 Q 21.02 10.54 20.976 10.653 A 2.205 2.205 0 0 1 20.944 10.734 A 1.195 1.195 0 0 1 20.821 10.95 Q 20.735 11.073 20.61 11.195 A 1.73 1.73 0 0 1 20.343 11.408 Q 20.209 11.496 20.046 11.573 A 3.004 3.004 0 0 1 19.992 11.598 A 1.805 1.805 0 0 1 19.618 11.716 Q 19.436 11.753 19.226 11.765 A 3.56 3.56 0 0 1 19.028 11.77 Q 18.464 11.77 18.073 11.609 A 1.421 1.421 0 0 1 17.432 11.085 Q 17.183 10.723 17.073 10.14 Q 16.99 9.7 16.97 9.107 A 11.685 11.685 0 0 1 16.963 8.709 L 16.963 5.874 A 0.597 0.597 0 0 1 16.97 5.781 Q 16.985 5.687 17.033 5.629 Q 17.102 5.544 17.208 5.508 A 0.669 0.669 0 0 1 17.428 5.471 L 17.629 5.471 A 2.881 2.881 0 0 1 17.821 5.477 A 2.544 2.544 0 0 1 17.882 5.482 A 0.779 0.779 0 0 1 17.982 5.497 Q 18.041 5.511 18.091 5.534 Q 18.179 5.574 18.23 5.654 Q 18.27 5.717 18.279 5.814 A 0.655 0.655 0 0 1 18.281 5.874 Z M 48.435 9.88 A 2.256 2.256 0 0 0 48.401 9.475 Q 48.315 9.002 48.007 8.76 A 1.632 1.632 0 0 0 47.587 8.526 Q 47.394 8.451 47.161 8.405 A 3.727 3.727 0 0 0 46.773 8.35 Q 46.165 8.293 45.702 8.156 A 3.714 3.714 0 0 1 45.549 8.108 Q 45.17 7.978 44.915 7.806 A 1.588 1.588 0 0 1 44.751 7.68 A 1.871 1.871 0 0 1 44.518 7.435 A 1.399 1.399 0 0 1 44.337 7.138 A 1.518 1.518 0 0 1 44.21 6.553 A 1.748 1.748 0 0 1 44.209 6.511 A 0.663 0.663 0 0 1 44.357 6.097 Q 44.427 6.007 44.53 5.923 A 1.376 1.376 0 0 1 44.561 5.9 Q 44.861 5.672 45.08 5.638 A 0.487 0.487 0 0 1 45.154 5.632 A 0.196 0.196 0 0 1 45.326 5.727 Q 45.349 5.763 45.367 5.812 A 0.588 0.588 0 0 1 45.381 5.859 A 4.986 4.986 0 0 0 45.425 6.035 Q 45.449 6.12 45.473 6.193 A 2.372 2.372 0 0 0 45.502 6.277 Q 45.564 6.445 45.678 6.574 A 1.472 1.472 0 0 0 45.784 6.682 Q 45.844 6.738 45.905 6.779 A 0.63 0.63 0 0 0 45.988 6.825 Q 46.078 6.868 46.211 6.906 A 2.473 2.473 0 0 0 46.256 6.918 A 5.655 5.655 0 0 0 46.545 6.986 A 4.751 4.751 0 0 0 46.71 7.017 A 7.742 7.742 0 0 0 46.83 7.036 Q 46.965 7.057 47.151 7.081 A 30.84 30.84 0 0 0 47.329 7.105 A 4.603 4.603 0 0 1 47.833 7.195 Q 48.155 7.273 48.413 7.394 A 2.21 2.21 0 0 1 48.734 7.576 Q 48.95 7.725 49.087 7.91 Q 49.314 8.218 49.409 8.547 A 2.346 2.346 0 0 1 49.484 8.922 A 3.161 3.161 0 0 1 49.504 9.294 A 2.58 2.58 0 0 1 49.347 10.192 Q 49.213 10.557 49.028 10.805 A 1.645 1.645 0 0 1 48.962 10.888 A 2.738 2.738 0 0 1 48.748 11.114 Q 48.629 11.225 48.509 11.307 A 1.676 1.676 0 0 1 48.501 11.312 Q 48.27 11.468 48.095 11.47 A 0.394 0.394 0 0 1 48.091 11.47 A 0.181 0.181 0 0 1 48.046 11.465 Q 47.987 11.449 47.976 11.39 A 0.165 0.165 0 0 1 47.974 11.36 A 0.077 0.077 0 0 1 47.979 11.337 Q 47.998 11.28 48.091 11.14 A 2.316 2.316 0 0 0 48.432 10.011 A 2.792 2.792 0 0 0 48.435 9.88 Z M 62.271 4.131 L 62.271 10.671 Q 62.271 10.92 62.166 11.087 A 0.581 0.581 0 0 1 62.139 11.126 A 1.52 1.52 0 0 1 61.688 11.481 A 1.404 1.404 0 0 1 61.499 11.563 Q 61.394 11.6 61.296 11.611 A 0.756 0.756 0 0 1 61.209 11.616 Q 60.974 11.616 60.954 11.353 A 0.679 0.679 0 0 1 60.952 11.301 L 60.952 4.761 A 0.955 0.955 0 0 1 60.969 4.575 Q 60.991 4.465 61.041 4.378 A 0.542 0.542 0 0 1 61.084 4.314 A 1.572 1.572 0 0 1 61.535 3.955 A 1.385 1.385 0 0 1 61.724 3.87 Q 61.829 3.833 61.927 3.821 A 0.736 0.736 0 0 1 62.014 3.816 Q 62.248 3.816 62.269 4.079 A 0.679 0.679 0 0 1 62.271 4.131 Z M 29.502 9.844 L 29.502 7.361 A 1.235 1.235 0 0 1 29.529 7.097 Q 29.567 6.923 29.66 6.791 A 0.742 0.742 0 0 1 29.707 6.731 A 2.338 2.338 0 0 1 30.077 6.391 A 2.681 2.681 0 0 1 30.176 6.321 Q 30.447 6.138 30.593 6.138 A 0.228 0.228 0 0 1 30.702 6.162 Q 30.82 6.225 30.82 6.453 L 30.82 9.397 A 2.92 2.92 0 0 0 30.844 9.749 Q 30.903 10.195 31.11 10.415 A 0.812 0.812 0 0 0 31.404 10.609 Q 31.651 10.709 32.023 10.715 A 2.991 2.991 0 0 0 32.073 10.715 A 3.617 3.617 0 0 0 32.494 10.692 Q 32.727 10.665 32.926 10.606 Q 33.296 10.496 33.311 10.496 Q 33.433 10.496 33.458 10.598 A 0.25 0.25 0 0 1 33.464 10.657 Q 33.464 11.031 32.963 11.382 A 2.527 2.527 0 0 1 32.926 11.408 Q 32.388 11.77 31.575 11.77 Q 30.882 11.77 30.406 11.551 A 1.706 1.706 0 0 1 30.048 11.331 Q 29.502 10.891 29.502 9.844 Z M 51.189 8.54 L 51.819 8.54 Q 51.981 8.54 52.06 8.593 A 0.186 0.186 0 0 1 52.086 8.613 A 0.224 0.224 0 0 1 52.126 8.667 Q 52.159 8.726 52.184 8.827 A 1.583 1.583 0 0 1 52.207 8.935 A 2.925 2.925 0 0 0 52.426 9.693 Q 52.815 10.54 53.746 10.685 A 2.654 2.654 0 0 0 54.155 10.715 A 3.016 3.016 0 0 0 54.723 10.664 A 2.642 2.642 0 0 0 54.939 10.613 Q 55.305 10.51 55.507 10.386 Q 55.708 10.261 55.88 10.159 Q 56.049 10.058 56.13 10.056 A 0.131 0.131 0 0 1 56.133 10.056 A 0.221 0.221 0 0 1 56.202 10.066 Q 56.273 10.09 56.294 10.169 A 0.288 0.288 0 0 1 56.301 10.239 A 0.377 0.377 0 0 1 56.285 10.344 Q 56.249 10.469 56.133 10.635 A 2.004 2.004 0 0 1 55.965 10.842 Q 55.874 10.941 55.761 11.043 A 3.911 3.911 0 0 1 55.653 11.137 A 1.962 1.962 0 0 1 55.362 11.336 Q 55.12 11.472 54.796 11.583 A 3.501 3.501 0 0 1 53.907 11.76 A 4.141 4.141 0 0 1 53.613 11.77 Q 52.295 11.77 51.566 10.975 A 2.725 2.725 0 0 1 50.889 9.557 A 3.787 3.787 0 0 1 50.837 8.921 A 0.598 0.598 0 0 1 50.854 8.775 Q 50.902 8.585 51.092 8.549 A 0.52 0.52 0 0 1 51.189 8.54 Z M 74.868 7.214 L 74.868 3.311 A 0.595 0.595 0 0 1 74.881 3.185 Q 74.896 3.112 74.932 3.06 A 0.282 0.282 0 0 1 75.048 2.963 Q 75.227 2.878 75.601 2.878 Q 76.011 2.878 76.176 2.963 Q 76.318 3.036 76.337 3.243 A 0.736 0.736 0 0 1 76.34 3.311 L 76.34 6.365 Q 76.34 6.634 76.544 6.673 A 0.398 0.398 0 0 0 76.619 6.68 L 77.842 6.68 A 0.81 0.81 0 0 1 77.949 6.686 Q 78.065 6.702 78.117 6.755 A 0.149 0.149 0 0 1 78.157 6.863 Q 78.157 7.003 77.955 7.177 A 1.721 1.721 0 0 1 77.838 7.269 Q 77.563 7.469 77.154 7.61 A 4.053 4.053 0 0 1 77.022 7.654 A 1.212 1.212 0 0 1 76.847 7.69 Q 76.548 7.735 75.924 7.746 A 24.906 24.906 0 0 1 75.498 7.749 Q 75.125 7.749 74.996 7.617 A 0.408 0.408 0 0 1 74.905 7.465 Q 74.868 7.359 74.868 7.214 Z M 91.802 7.214 L 91.802 3.311 A 0.595 0.595 0 0 1 91.814 3.185 Q 91.83 3.112 91.866 3.06 A 0.282 0.282 0 0 1 91.981 2.963 Q 92.161 2.878 92.534 2.878 Q 92.944 2.878 93.109 2.963 Q 93.252 3.036 93.271 3.243 A 0.736 0.736 0 0 1 93.274 3.311 L 93.274 6.365 Q 93.274 6.634 93.478 6.673 A 0.398 0.398 0 0 0 93.552 6.68 L 94.775 6.68 A 0.81 0.81 0 0 1 94.883 6.686 Q 94.999 6.702 95.05 6.755 A 0.149 0.149 0 0 1 95.09 6.863 Q 95.09 7.003 94.889 7.177 A 1.721 1.721 0 0 1 94.772 7.269 Q 94.497 7.469 94.088 7.61 A 4.053 4.053 0 0 1 93.955 7.654 A 1.212 1.212 0 0 1 93.781 7.69 Q 93.481 7.735 92.858 7.746 A 24.906 24.906 0 0 1 92.432 7.749 Q 92.058 7.749 91.93 7.617 A 0.408 0.408 0 0 1 91.839 7.465 Q 91.802 7.359 91.802 7.214 Z M 64.087 11.301 L 64.087 7.361 A 1.364 1.364 0 0 1 64.107 7.118 Q 64.132 6.982 64.186 6.876 A 0.666 0.666 0 0 1 64.285 6.731 A 2.26 2.26 0 0 1 64.671 6.382 A 2.572 2.572 0 0 1 64.754 6.325 Q 65.025 6.145 65.178 6.145 A 0.228 0.228 0 0 1 65.287 6.169 Q 65.405 6.232 65.405 6.46 L 65.405 10.671 A 0.784 0.784 0 0 1 65.138 11.266 A 1.153 1.153 0 0 1 65.043 11.345 Q 64.766 11.552 64.504 11.601 A 0.874 0.874 0 0 1 64.343 11.616 Q 64.109 11.616 64.089 11.353 A 0.679 0.679 0 0 1 64.087 11.301 Z M 18.281 2.71 L 18.281 3.655 A 0.785 0.785 0 0 0 18.288 3.759 Q 18.307 3.902 18.384 3.962 Q 18.468 4.028 18.605 4.04 A 0.738 0.738 0 0 0 18.67 4.043 L 20.632 4.043 A 0.584 0.584 0 0 1 20.72 4.049 Q 20.832 4.066 20.87 4.132 A 0.158 0.158 0 0 1 20.889 4.211 A 0.337 0.337 0 0 1 20.865 4.33 Q 20.825 4.435 20.72 4.564 A 1.832 1.832 0 0 1 20.643 4.651 A 1.82 1.82 0 0 1 20.468 4.818 Q 20.311 4.946 20.156 5.003 A 0.923 0.923 0 0 1 20.016 5.041 Q 19.781 5.088 19.355 5.09 A 8.166 8.166 0 0 1 19.314 5.09 L 17.351 5.09 Q 17.222 5.09 17.133 5.05 A 0.323 0.323 0 0 1 17.066 5.01 A 0.224 0.224 0 0 1 17 4.922 Q 16.967 4.848 16.963 4.731 A 0.944 0.944 0 0 1 16.963 4.702 L 16.963 3.318 A 0.763 0.763 0 0 1 17.228 2.731 A 1.095 1.095 0 0 1 17.322 2.655 A 1.589 1.589 0 0 1 17.588 2.497 Q 17.81 2.395 18.025 2.395 Q 18.259 2.395 18.279 2.658 A 0.679 0.679 0 0 1 18.281 2.71 Z M 12.168 11.435 A 2.254 2.254 0 0 0 12.598 11.133 Q 12.726 11.014 12.768 10.822 A 0.951 0.951 0 0 0 12.788 10.62 A 1.31 1.31 0 0 0 12.788 10.589 Q 12.784 10.447 12.749 10.389 A 0.072 0.072 0 0 0 12.686 10.349 Q 12.636 10.349 12.548 10.395 A 1.092 1.092 0 0 0 12.488 10.43 Q 12.364 10.504 12.211 10.561 A 2.356 2.356 0 0 1 11.953 10.638 Q 11.756 10.687 11.597 10.705 A 1.595 1.595 0 0 1 11.419 10.715 Q 10.686 10.715 10.4 10.338 Q 10.193 10.064 10.136 9.548 A 3.876 3.876 0 0 1 10.115 9.126 A 0.412 0.412 0 0 0 10.113 9.087 Q 10.105 8.999 10.056 8.95 A 0.235 0.235 0 0 0 10.054 8.948 A 0.19 0.19 0 0 0 9.917 8.892 A 0.494 0.494 0 0 0 9.873 8.894 Q 9.71 8.908 9.512 9.029 A 1.891 1.891 0 0 0 9.331 9.155 A 0.906 0.906 0 0 0 9.002 9.641 A 1.255 1.255 0 0 0 8.958 9.983 A 2.189 2.189 0 0 0 8.958 10.006 A 1.724 1.724 0 0 0 9.474 11.254 A 1.555 1.555 0 0 0 9.772 11.486 Q 10.242 11.77 10.964 11.77 A 2.103 2.103 0 0 0 11.371 11.729 A 2.668 2.668 0 0 0 11.836 11.591 A 2.912 2.912 0 0 0 12.168 11.435 Z M 25.389 11.435 A 2.254 2.254 0 0 0 25.818 11.133 Q 25.947 11.014 25.988 10.822 A 0.951 0.951 0 0 0 26.008 10.62 A 1.31 1.31 0 0 0 26.008 10.589 Q 26.005 10.447 25.969 10.389 A 0.072 0.072 0 0 0 25.906 10.349 Q 25.856 10.349 25.768 10.395 A 1.092 1.092 0 0 0 25.708 10.43 Q 25.585 10.504 25.431 10.561 A 2.356 2.356 0 0 1 25.173 10.638 Q 24.977 10.687 24.817 10.705 A 1.595 1.595 0 0 1 24.639 10.715 Q 23.906 10.715 23.621 10.338 Q 23.413 10.064 23.356 9.548 A 3.876 3.876 0 0 1 23.335 9.126 A 0.412 0.412 0 0 0 23.333 9.087 Q 23.325 8.999 23.276 8.95 A 0.235 0.235 0 0 0 23.275 8.948 A 0.19 0.19 0 0 0 23.137 8.892 A 0.494 0.494 0 0 0 23.093 8.894 Q 22.931 8.908 22.733 9.029 A 1.891 1.891 0 0 0 22.551 9.155 A 0.906 0.906 0 0 0 22.222 9.641 A 1.255 1.255 0 0 0 22.178 9.983 A 2.189 2.189 0 0 0 22.178 10.006 A 1.724 1.724 0 0 0 22.694 11.254 A 1.555 1.555 0 0 0 22.992 11.486 Q 23.463 11.77 24.185 11.77 A 2.103 2.103 0 0 0 24.591 11.729 A 2.668 2.668 0 0 0 25.056 11.591 A 2.912 2.912 0 0 0 25.389 11.435 Z M 40.403 11.435 A 2.254 2.254 0 0 0 40.833 11.133 Q 40.961 11.014 41.003 10.822 A 0.951 0.951 0 0 0 41.023 10.62 A 1.31 1.31 0 0 0 41.023 10.589 Q 41.019 10.447 40.984 10.389 A 0.072 0.072 0 0 0 40.921 10.349 Q 40.871 10.349 40.783 10.395 A 1.092 1.092 0 0 0 40.723 10.43 Q 40.599 10.504 40.445 10.561 A 2.356 2.356 0 0 1 40.188 10.638 Q 39.991 10.687 39.832 10.705 A 1.595 1.595 0 0 1 39.653 10.715 Q 38.921 10.715 38.635 10.338 Q 38.428 10.064 38.371 9.548 A 3.876 3.876 0 0 1 38.35 9.126 A 0.412 0.412 0 0 0 38.348 9.087 Q 38.34 8.999 38.291 8.95 A 0.235 0.235 0 0 0 38.289 8.948 A 0.19 0.19 0 0 0 38.152 8.892 A 0.494 0.494 0 0 0 38.108 8.894 Q 37.945 8.908 37.747 9.029 A 1.891 1.891 0 0 0 37.566 9.155 A 0.906 0.906 0 0 0 37.237 9.641 A 1.255 1.255 0 0 0 37.192 9.983 A 2.189 2.189 0 0 0 37.193 10.006 A 1.724 1.724 0 0 0 37.709 11.254 A 1.555 1.555 0 0 0 38.007 11.486 Q 38.477 11.77 39.199 11.77 A 2.103 2.103 0 0 0 39.606 11.729 A 2.668 2.668 0 0 0 40.071 11.591 A 2.912 2.912 0 0 0 40.403 11.435 Z M 49.018 4.328 A 0.969 0.969 0 0 0 48.919 4.241 A 1.251 1.251 0 0 0 48.742 4.127 Q 48.623 4.063 48.476 4.012 A 2.834 2.834 0 0 0 48.171 3.926 A 4.724 4.724 0 0 0 48.051 3.9 A 4.197 4.197 0 0 0 47.227 3.816 A 4.609 4.609 0 0 0 46.573 3.861 A 3.153 3.153 0 0 0 44.509 4.988 Q 44.282 5.274 44.282 5.435 A 0.269 0.269 0 0 0 44.283 5.453 Q 44.288 5.531 44.34 5.551 A 0.119 0.119 0 0 0 44.385 5.559 A 0.088 0.088 0 0 0 44.393 5.559 Q 44.416 5.557 44.447 5.542 A 0.349 0.349 0 0 0 44.476 5.526 A 3.304 3.304 0 0 0 44.504 5.509 Q 44.537 5.489 44.579 5.462 A 10.904 10.904 0 0 0 44.623 5.435 A 6.763 6.763 0 0 1 44.664 5.409 Q 44.706 5.382 44.738 5.363 A 1.721 1.721 0 0 1 44.766 5.347 Q 45.549 4.871 46.582 4.871 A 2.292 2.292 0 0 1 46.813 4.883 Q 47.056 4.907 47.323 4.982 A 4.407 4.407 0 0 1 47.82 5.156 A 0.605 0.605 0 0 1 47.849 5.166 Q 47.899 5.183 47.985 5.219 A 4.372 4.372 0 0 0 48.035 5.239 Q 48.112 5.27 48.157 5.284 A 0.385 0.385 0 0 0 48.217 5.298 A 0.504 0.504 0 0 0 48.289 5.303 A 0.468 0.468 0 0 0 48.301 5.303 Q 48.545 5.296 48.842 5.035 Q 49.051 4.851 49.116 4.707 A 0.298 0.298 0 0 0 49.146 4.585 A 0.255 0.255 0 0 0 49.142 4.544 Q 49.125 4.438 49.018 4.328 Z M 82.639 11.301 L 82.639 7.551 A 0.595 0.595 0 0 1 82.652 7.426 Q 82.667 7.353 82.703 7.301 A 0.282 0.282 0 0 1 82.819 7.203 Q 82.998 7.119 83.372 7.119 Q 83.782 7.119 83.947 7.203 Q 84.089 7.276 84.108 7.484 A 0.736 0.736 0 0 1 84.111 7.551 L 84.111 10.525 Q 84.111 10.884 83.958 11.06 A 1.294 1.294 0 0 1 83.753 11.254 Q 83.648 11.336 83.517 11.408 A 2.333 2.333 0 0 1 83.441 11.448 A 2.35 2.35 0 0 1 83.263 11.529 Q 83.08 11.603 82.942 11.614 A 0.587 0.587 0 0 1 82.896 11.616 Q 82.661 11.616 82.641 11.353 A 0.679 0.679 0 0 1 82.639 11.301 Z M 12.636 7.244 A 0.489 0.489 0 0 0 12.539 7.178 A 2.068 2.068 0 0 0 12.05 7.007 A 2.633 2.633 0 0 0 11.492 6.951 A 3.437 3.437 0 0 0 11.324 6.955 A 2.886 2.886 0 0 0 10.082 7.291 A 2.578 2.578 0 0 0 9.78 7.481 A 2.674 2.674 0 0 0 9.06 8.284 A 1.366 1.366 0 0 0 9.015 8.364 Q 8.914 8.56 8.914 8.731 A 0.283 0.283 0 0 0 8.914 8.738 Q 8.916 8.832 8.982 8.855 A 0.149 0.149 0 0 0 9.031 8.862 A 0.13 0.13 0 0 0 9.07 8.855 Q 9.145 8.831 9.285 8.727 A 3.112 3.112 0 0 0 9.375 8.657 A 3.419 3.419 0 0 1 9.8 8.365 A 2.538 2.538 0 0 1 11.089 8.005 A 2.224 2.224 0 0 1 11.317 8.017 Q 11.783 8.066 12.334 8.306 A 1.349 1.349 0 0 0 12.383 8.327 Q 12.495 8.372 12.561 8.372 A 0.238 0.238 0 0 0 12.567 8.372 Q 12.687 8.369 12.733 8.243 A 0.508 0.508 0 0 0 12.752 8.178 Q 12.781 8.05 12.781 7.822 A 4.109 4.109 0 0 0 12.781 7.8 Q 12.779 7.489 12.73 7.372 A 0.355 0.355 0 0 0 12.636 7.244 Z M 25.856 7.244 A 0.489 0.489 0 0 0 25.759 7.178 A 2.068 2.068 0 0 0 25.27 7.007 A 2.633 2.633 0 0 0 24.712 6.951 A 3.437 3.437 0 0 0 24.544 6.955 A 2.886 2.886 0 0 0 23.302 7.291 A 2.578 2.578 0 0 0 23.001 7.481 A 2.674 2.674 0 0 0 22.28 8.284 A 1.366 1.366 0 0 0 22.235 8.364 Q 22.134 8.56 22.134 8.731 A 0.283 0.283 0 0 0 22.134 8.738 Q 22.137 8.832 22.203 8.855 A 0.149 0.149 0 0 0 22.251 8.862 A 0.13 0.13 0 0 0 22.29 8.855 Q 22.365 8.831 22.505 8.727 A 3.112 3.112 0 0 0 22.595 8.657 A 3.419 3.419 0 0 1 23.02 8.365 A 2.538 2.538 0 0 1 24.309 8.005 A 2.224 2.224 0 0 1 24.537 8.017 Q 25.004 8.066 25.554 8.306 A 1.349 1.349 0 0 0 25.604 8.327 Q 25.715 8.372 25.781 8.372 A 0.238 0.238 0 0 0 25.787 8.372 Q 25.907 8.369 25.953 8.243 A 0.508 0.508 0 0 0 25.972 8.178 Q 26.001 8.05 26.001 7.822 A 4.109 4.109 0 0 0 26.001 7.8 Q 25.999 7.489 25.95 7.372 A 0.355 0.355 0 0 0 25.856 7.244 Z M 40.871 7.244 A 0.489 0.489 0 0 0 40.774 7.178 A 2.068 2.068 0 0 0 40.285 7.007 A 2.633 2.633 0 0 0 39.727 6.951 A 3.437 3.437 0 0 0 39.559 6.955 A 2.886 2.886 0 0 0 38.317 7.291 A 2.578 2.578 0 0 0 38.015 7.481 A 2.674 2.674 0 0 0 37.295 8.284 A 1.366 1.366 0 0 0 37.25 8.364 Q 37.149 8.56 37.149 8.731 A 0.283 0.283 0 0 0 37.149 8.738 Q 37.151 8.832 37.217 8.855 A 0.149 0.149 0 0 0 37.266 8.862 A 0.13 0.13 0 0 0 37.305 8.855 Q 37.38 8.831 37.52 8.727 A 3.112 3.112 0 0 0 37.61 8.657 A 3.419 3.419 0 0 1 38.035 8.365 A 2.538 2.538 0 0 1 39.324 8.005 A 2.224 2.224 0 0 1 39.552 8.017 Q 40.018 8.066 40.569 8.306 A 1.349 1.349 0 0 0 40.618 8.327 Q 40.73 8.372 40.796 8.372 A 0.238 0.238 0 0 0 40.802 8.372 Q 40.922 8.369 40.968 8.243 A 0.508 0.508 0 0 0 40.987 8.178 Q 41.016 8.05 41.016 7.822 A 4.109 4.109 0 0 0 41.016 7.8 Q 41.014 7.489 40.964 7.372 A 0.355 0.355 0 0 0 40.871 7.244 Z M 76.34 8.643 L 76.34 10.525 Q 76.34 10.884 76.187 11.06 A 1.294 1.294 0 0 1 75.982 11.254 Q 75.877 11.336 75.746 11.408 A 2.333 2.333 0 0 1 75.67 11.448 A 2.35 2.35 0 0 1 75.492 11.529 Q 75.309 11.603 75.171 11.614 A 0.587 0.587 0 0 1 75.125 11.616 Q 74.89 11.616 74.87 11.353 A 0.679 0.679 0 0 1 74.868 11.301 L 74.868 8.643 A 0.574 0.574 0 0 1 74.883 8.509 A 0.324 0.324 0 0 1 75.055 8.284 A 0.688 0.688 0 0 1 75.19 8.234 Q 75.335 8.195 75.545 8.189 A 2.724 2.724 0 0 1 75.615 8.189 A 2.806 2.806 0 0 1 75.802 8.194 Q 75.979 8.206 76.092 8.243 A 0.471 0.471 0 0 1 76.179 8.28 Q 76.314 8.356 76.336 8.557 A 0.772 0.772 0 0 1 76.34 8.643 Z M 93.274 8.643 L 93.274 10.525 Q 93.274 10.884 93.12 11.06 A 1.294 1.294 0 0 1 92.916 11.254 Q 92.81 11.336 92.679 11.408 A 2.333 2.333 0 0 1 92.604 11.448 A 2.35 2.35 0 0 1 92.426 11.529 Q 92.243 11.603 92.105 11.614 A 0.587 0.587 0 0 1 92.058 11.616 Q 91.824 11.616 91.804 11.353 A 0.679 0.679 0 0 1 91.802 11.301 L 91.802 8.643 A 0.574 0.574 0 0 1 91.816 8.509 A 0.324 0.324 0 0 1 91.989 8.284 A 0.688 0.688 0 0 1 92.124 8.234 Q 92.268 8.195 92.478 8.189 A 2.724 2.724 0 0 1 92.549 8.189 A 2.806 2.806 0 0 1 92.735 8.194 Q 92.913 8.206 93.026 8.243 A 0.471 0.471 0 0 1 93.113 8.28 Q 93.247 8.356 93.27 8.557 A 0.772 0.772 0 0 1 93.274 8.643 Z M 45.601 10.342 A 35.211 35.211 0 0 0 45.706 10.405 Q 45.864 10.5 45.934 10.54 A 0.616 0.616 0 0 0 45.992 10.568 Q 46.055 10.595 46.151 10.624 A 3.53 3.53 0 0 0 46.249 10.653 A 1.714 1.714 0 0 0 46.602 10.712 A 2.014 2.014 0 0 0 46.729 10.715 A 2.191 2.191 0 0 0 47.366 10.62 Q 47.653 10.533 47.691 10.526 A 0.03 0.03 0 0 1 47.695 10.525 A 0.232 0.232 0 0 1 47.763 10.534 Q 47.864 10.565 47.864 10.701 Q 47.864 10.818 47.747 10.99 Q 47.646 11.138 47.476 11.291 A 2.608 2.608 0 0 1 47.417 11.342 Q 47.252 11.481 46.992 11.587 A 2.658 2.658 0 0 1 46.835 11.646 A 2.394 2.394 0 0 1 46.274 11.76 A 2.903 2.903 0 0 1 46.025 11.77 A 2.577 2.577 0 0 1 44.846 11.484 Q 44.282 11.199 44.282 10.899 A 0.393 0.393 0 0 1 44.332 10.712 Q 44.406 10.575 44.586 10.433 A 1.407 1.407 0 0 1 44.783 10.303 Q 44.899 10.24 45.012 10.214 A 0.692 0.692 0 0 1 45.169 10.195 A 0.575 0.575 0 0 1 45.315 10.216 Q 45.445 10.25 45.601 10.342 Z M 62.271 0.315 L 62.271 1.377 Q 62.271 1.625 62.166 1.792 A 0.581 0.581 0 0 1 62.139 1.831 A 1.52 1.52 0 0 1 61.688 2.186 A 1.404 1.404 0 0 1 61.499 2.269 Q 61.394 2.305 61.296 2.317 A 0.756 0.756 0 0 1 61.209 2.322 Q 60.974 2.322 60.954 2.059 A 0.679 0.679 0 0 1 60.952 2.007 L 60.952 0.945 Q 60.952 0.737 61.022 0.595 A 0.503 0.503 0 0 1 61.084 0.498 A 1.572 1.572 0 0 1 61.535 0.139 A 1.385 1.385 0 0 1 61.724 0.054 Q 61.829 0.017 61.927 0.005 A 0.736 0.736 0 0 1 62.014 0 Q 62.248 0 62.269 0.263 A 0.679 0.679 0 0 1 62.271 0.315 Z M 16.582 4.285 L 16.582 4.702 Q 16.582 4.831 16.542 4.921 A 0.323 0.323 0 0 1 16.502 4.988 A 0.224 0.224 0 0 1 16.414 5.053 Q 16.34 5.086 16.223 5.09 A 0.944 0.944 0 0 1 16.194 5.09 L 15.85 5.09 Q 15.674 5.09 15.619 5.015 A 0.141 0.141 0 0 1 15.593 4.929 A 0.353 0.353 0 0 1 15.619 4.806 Q 15.682 4.636 15.907 4.392 A 3.299 3.299 0 0 1 15.912 4.387 A 2.459 2.459 0 0 1 16.045 4.253 Q 16.257 4.057 16.401 4.044 A 0.222 0.222 0 0 1 16.421 4.043 A 0.148 0.148 0 0 1 16.506 4.066 Q 16.563 4.105 16.577 4.209 A 0.558 0.558 0 0 1 16.582 4.285 Z" vector-effect="non-scaling-stroke"/></g></svg>