<svg width="58.11" height="14.899" viewBox="0 0 58.11 14.899" xmlns="http://www.w3.org/2000/svg"><g id="svgGroup" stroke-linecap="round" fill-rule="evenodd" font-size="9pt" stroke="#000" stroke-width="0.25mm" fill="#000" style="stroke:#000;stroke-width:0.25mm;fill:#000"><path d="M 13.55 9.889 L 14.612 10.921 A 2.155 2.155 0 0 1 14.723 11.041 Q 14.891 11.236 14.897 11.366 A 0.205 0.205 0 0 1 14.897 11.376 Q 14.897 11.588 14.573 11.96 A 4.401 4.401 0 0 1 14.572 11.961 A 1.592 1.592 0 0 1 14.391 12.14 Q 14.156 12.335 13.923 12.335 A 0.286 0.286 0 0 1 13.812 12.31 Q 13.724 12.273 13.623 12.18 A 1.367 1.367 0 0 1 13.564 12.123 L 12.107 10.592 A 0.58 0.58 0 0 1 12.021 10.484 A 0.393 0.393 0 0 1 11.96 10.277 Q 11.96 10.213 11.993 10.139 A 0.552 0.552 0 0 1 12.004 10.116 A 2.257 2.257 0 0 1 12.03 10.065 Q 12.076 9.98 12.158 9.837 A 5.028 5.028 0 0 0 12.363 9.442 A 4.612 4.612 0 0 0 12.651 8.573 Q 12.855 7.699 12.868 6.477 A 15.82 15.82 0 0 0 12.869 6.307 A 34.871 34.871 0 0 0 12.866 5.873 Q 12.862 5.529 12.85 5.245 A 9.089 9.089 0 0 0 12.819 4.779 Q 12.796 4.534 12.76 4.263 A 14.877 14.877 0 0 0 12.755 4.227 Q 12.689 3.744 12.586 3.373 A 4.157 4.157 0 0 0 12.55 3.253 A 3.939 3.939 0 0 0 12.309 2.661 A 4.64 4.64 0 0 0 12.184 2.429 A 2.532 2.532 0 0 0 11.887 2.012 A 2.089 2.089 0 0 0 11.616 1.755 A 2.314 2.314 0 0 0 11.209 1.5 A 3.149 3.149 0 0 0 10.8 1.334 Q 10.313 1.173 9.697 1.173 A 2.319 2.319 0 0 0 9.53 1.179 Q 9.429 1.187 9.316 1.202 Q 9.104 1.231 8.749 1.319 Q 8.444 1.395 8.084 1.565 A 5.353 5.353 0 0 0 7.965 1.623 A 4.701 4.701 0 0 0 7.238 2.08 A 5.289 5.289 0 0 0 7.134 2.162 Q 7.097 2.191 7.017 2.253 Q 6.939 2.313 6.902 2.343 A 2.555 2.555 0 0 0 6.899 2.345 Q 6.875 2.365 6.839 2.39 A 2.513 2.513 0 0 1 6.804 2.414 A 1.084 1.084 0 0 1 6.769 2.437 Q 6.733 2.46 6.705 2.473 A 0.263 0.263 0 0 1 6.679 2.483 Q 6.655 2.491 6.636 2.491 A 0.233 0.233 0 0 1 6.576 2.484 Q 6.499 2.464 6.485 2.384 A 0.225 0.225 0 0 1 6.482 2.345 A 0.453 0.453 0 0 1 6.507 2.207 Q 6.57 2.01 6.797 1.715 Q 7.441 0.873 8.383 0.437 Q 9.324 0.001 10.313 0.001 A 4.658 4.658 0 0 1 12.097 0.316 Q 14.392 1.263 14.392 5.047 A 11.124 11.124 0 0 1 14.326 6.284 A 8.919 8.919 0 0 1 14.183 7.168 A 9.584 9.584 0 0 1 13.884 8.237 A 12.867 12.867 0 0 1 13.491 9.244 A 1.713 1.713 0 0 0 13.446 9.341 Q 13.405 9.437 13.394 9.507 A 0.312 0.312 0 0 0 13.389 9.559 A 0.409 0.409 0 0 0 13.507 9.848 A 0.577 0.577 0 0 0 13.55 9.889 Z M 48.721 0.367 L 48.721 5.553 Q 48.721 6.029 48.732 6.362 A 8.159 8.159 0 0 0 48.745 6.628 Q 48.755 6.775 48.77 6.939 A 15.087 15.087 0 0 0 48.79 7.142 Q 48.827 7.483 48.882 7.741 A 3.335 3.335 0 0 0 48.918 7.893 A 3.333 3.333 0 0 0 49.045 8.273 A 4.18 4.18 0 0 0 49.156 8.526 A 2.02 2.02 0 0 0 49.305 8.789 Q 49.399 8.927 49.507 9.029 A 1.222 1.222 0 0 0 49.53 9.05 A 1.547 1.547 0 0 0 49.805 9.245 A 2.096 2.096 0 0 0 50.076 9.372 Q 50.405 9.501 50.823 9.501 Q 51.231 9.501 51.551 9.421 A 2.164 2.164 0 0 0 51.599 9.409 A 5.45 5.45 0 0 0 51.758 9.363 Q 51.929 9.311 52.048 9.261 A 1.454 1.454 0 0 0 52.115 9.23 A 2.163 2.163 0 0 1 52.189 9.195 Q 52.291 9.15 52.343 9.143 A 0.134 0.134 0 0 1 52.361 9.142 A 0.232 0.232 0 0 1 52.429 9.151 Q 52.529 9.181 52.529 9.317 A 0.581 0.581 0 0 1 52.505 9.48 Q 52.471 9.596 52.39 9.728 Q 52.26 9.94 52.033 10.15 A 2.876 2.876 0 0 1 52.002 10.178 A 1.562 1.562 0 0 1 51.74 10.365 Q 51.56 10.469 51.328 10.552 A 2.665 2.665 0 0 1 50.579 10.697 A 3.102 3.102 0 0 1 50.413 10.702 Q 49.684 10.702 49.14 10.484 A 2.515 2.515 0 0 1 49.091 10.464 A 2.649 2.649 0 0 1 48.53 10.144 A 2.218 2.218 0 0 1 48.179 9.815 A 2.542 2.542 0 0 1 47.863 9.345 Q 47.74 9.113 47.645 8.834 A 4.356 4.356 0 0 1 47.618 8.753 A 6.967 6.967 0 0 1 47.351 7.554 A 7.79 7.79 0 0 1 47.329 7.373 A 12.333 12.333 0 0 1 47.274 6.69 Q 47.255 6.338 47.25 5.944 A 22.019 22.019 0 0 1 47.249 5.677 L 47.249 1.144 A 0.997 0.997 0 0 1 47.268 0.94 Q 47.295 0.813 47.357 0.715 A 0.58 0.58 0 0 1 47.402 0.653 A 1.558 1.558 0 0 1 47.626 0.438 Q 47.739 0.347 47.88 0.263 A 2.698 2.698 0 0 1 47.922 0.239 Q 48.216 0.073 48.417 0.054 A 0.53 0.53 0 0 1 48.464 0.052 Q 48.699 0.052 48.719 0.315 A 0.679 0.679 0 0 1 48.721 0.367 Z M 25.4 5.809 A 0.502 0.502 0 0 0 25.408 5.9 Q 25.431 6.028 25.529 6.069 A 0.536 0.536 0 0 0 25.62 6.098 Q 25.735 6.124 25.906 6.124 A 6.268 6.268 0 0 0 26.358 6.109 Q 26.713 6.083 26.997 6.014 A 2.63 2.63 0 0 0 27.278 5.93 Q 27.532 5.838 27.693 5.707 A 1.593 1.593 0 0 0 27.867 5.542 Q 27.957 5.443 28.015 5.338 A 0.932 0.932 0 0 0 28.041 5.289 Q 28.147 5.069 28.147 4.806 A 1.061 1.061 0 0 0 28.095 4.466 A 0.882 0.882 0 0 0 27.832 4.077 A 0.94 0.94 0 0 0 27.535 3.907 Q 27.251 3.802 26.821 3.802 A 3.399 3.399 0 0 0 24.967 4.358 A 4.225 4.225 0 0 0 24.771 4.491 Q 24.492 4.698 24.415 4.703 A 0.056 0.056 0 0 1 24.412 4.703 A 0.159 0.159 0 0 1 24.36 4.696 Q 24.289 4.671 24.287 4.57 A 0.3 0.3 0 0 1 24.287 4.564 A 0.412 0.412 0 0 1 24.311 4.432 Q 24.358 4.292 24.5 4.117 A 3.67 3.67 0 0 1 25.215 3.417 A 3.382 3.382 0 0 1 25.4 3.29 A 4.554 4.554 0 0 1 25.767 3.078 Q 25.952 2.983 26.123 2.921 A 2.284 2.284 0 0 1 26.323 2.857 A 3.242 3.242 0 0 1 27.151 2.748 A 4.38 4.38 0 0 1 27.653 2.775 A 3.317 3.317 0 0 1 28.103 2.857 Q 28.528 2.967 28.857 3.198 A 1.49 1.49 0 0 1 29.309 3.707 A 1.809 1.809 0 0 1 29.37 3.828 A 1.953 1.953 0 0 1 29.518 4.32 A 2.659 2.659 0 0 1 29.553 4.762 A 1.851 1.851 0 0 1 28.869 6.245 A 2.681 2.681 0 0 1 28.466 6.523 A 4.151 4.151 0 0 1 27.473 6.918 Q 26.628 7.142 25.496 7.142 Q 24.968 7.142 24.302 7.084 A 0.532 0.532 0 0 1 24.17 7.06 Q 24.002 7.004 23.977 6.828 A 0.466 0.466 0 0 1 23.972 6.761 Q 23.972 5.948 24.207 5.542 A 1.772 1.772 0 0 1 24.554 5.107 A 1.598 1.598 0 0 1 24.814 4.916 A 2.956 2.956 0 0 1 24.987 4.823 Q 25.153 4.74 25.273 4.715 A 0.473 0.473 0 0 1 25.371 4.703 A 0.199 0.199 0 0 1 25.448 4.717 Q 25.534 4.753 25.545 4.882 A 0.474 0.474 0 0 1 25.547 4.923 A 0.464 0.464 0 0 1 25.544 4.971 Q 25.532 5.078 25.478 5.331 A 12.736 12.736 0 0 1 25.474 5.351 A 7.825 7.825 0 0 0 25.445 5.49 Q 25.408 5.678 25.402 5.773 A 0.542 0.542 0 0 0 25.4 5.809 Z M 42.261 3.063 L 42.261 11.961 A 3.799 3.799 0 0 1 42.209 12.6 A 3.164 3.164 0 0 1 42.122 12.976 A 3.36 3.36 0 0 1 42.002 13.312 Q 41.933 13.478 41.851 13.614 A 1.737 1.737 0 0 1 41.774 13.73 A 2.753 2.753 0 0 1 41.468 14.088 A 2.38 2.38 0 0 1 41.316 14.225 A 2.742 2.742 0 0 1 41.15 14.351 Q 41.064 14.412 40.985 14.456 A 1.223 1.223 0 0 1 40.865 14.514 A 1.381 1.381 0 0 1 40.733 14.562 Q 40.668 14.582 40.61 14.591 A 0.606 0.606 0 0 1 40.518 14.598 Q 40.416 14.598 40.403 14.522 A 0.147 0.147 0 0 1 40.4 14.496 Q 40.4 14.436 40.496 14.3 A 1.833 1.833 0 0 1 40.518 14.269 A 1.769 1.769 0 0 0 40.738 13.852 Q 40.815 13.646 40.858 13.401 Q 40.946 12.901 40.95 12.071 A 16.683 16.683 0 0 0 40.95 11.991 L 40.935 3.692 Q 40.935 3.476 41.015 3.332 A 0.498 0.498 0 0 1 41.074 3.246 A 1.572 1.572 0 0 1 41.525 2.887 A 1.385 1.385 0 0 1 41.714 2.802 Q 41.819 2.765 41.917 2.753 A 0.736 0.736 0 0 1 42.004 2.748 Q 42.239 2.748 42.259 3.011 A 0.679 0.679 0 0 1 42.261 3.063 Z M 4.431 0.367 L 4.431 8.6 A 4.304 4.304 0 0 1 4.356 9.424 Q 4.232 10.062 3.9 10.533 A 2.468 2.468 0 0 1 3.591 10.898 Q 3.395 11.085 3.184 11.182 A 1.121 1.121 0 0 1 2.71 11.288 A 0.149 0.149 0 0 1 2.617 11.255 A 0.197 0.197 0 0 1 2.604 11.244 A 0.146 0.146 0 0 1 2.558 11.151 A 0.204 0.204 0 0 1 2.556 11.127 Q 2.556 11.085 2.666 10.894 A 5.073 5.073 0 0 1 2.681 10.87 Q 2.959 10.394 2.959 9.596 L 2.959 1.144 A 1.049 1.049 0 0 1 2.977 0.943 Q 3 0.825 3.052 0.732 A 0.583 0.583 0 0 1 3.105 0.653 A 1.529 1.529 0 0 1 3.323 0.442 Q 3.432 0.355 3.566 0.276 A 2.672 2.672 0 0 1 3.629 0.239 A 2.247 2.247 0 0 1 3.807 0.149 Q 3.988 0.068 4.125 0.055 A 0.533 0.533 0 0 1 4.175 0.052 Q 4.409 0.052 4.429 0.315 A 0.679 0.679 0 0 1 4.431 0.367 Z M 7.966 2.784 A 0.365 0.365 0 0 0 7.969 2.748 A 0.581 0.581 0 0 0 7.968 2.71 Q 7.953 2.477 7.742 2.477 A 0.598 0.598 0 0 0 7.686 2.479 Q 7.521 2.495 7.309 2.6 A 2.374 2.374 0 0 0 7.104 2.715 A 1.636 1.636 0 0 0 6.519 3.334 A 2.165 2.165 0 0 0 6.481 3.409 Q 6.326 3.738 6.244 4.187 Q 6.175 4.563 6.158 5.238 A 19.071 19.071 0 0 0 6.152 5.721 A 13.863 13.863 0 0 0 6.156 6.047 Q 6.179 7.026 6.343 7.79 A 5.786 5.786 0 0 0 6.516 8.426 A 4.548 4.548 0 0 0 6.94 9.347 A 2.647 2.647 0 0 0 8.035 10.357 Q 8.427 10.554 8.908 10.638 A 4.482 4.482 0 0 0 9.683 10.702 A 3.151 3.151 0 0 0 9.782 10.7 A 2.76 2.76 0 0 0 10.605 10.552 A 3.229 3.229 0 0 0 10.704 10.516 Q 11.069 10.375 11.305 10.178 A 2.936 2.936 0 0 0 11.338 10.15 Q 11.582 9.94 11.722 9.724 Q 11.814 9.583 11.85 9.462 A 0.511 0.511 0 0 0 11.873 9.317 Q 11.873 9.181 11.772 9.151 A 0.232 0.232 0 0 0 11.704 9.142 Q 11.638 9.142 11.437 9.23 Q 11.235 9.317 10.88 9.409 Q 10.525 9.501 10.085 9.501 A 2.791 2.791 0 0 1 9.773 9.484 A 2.205 2.205 0 0 1 9.302 9.38 Q 8.95 9.259 8.705 9.057 A 1.809 1.809 0 0 1 8.526 8.888 A 2.145 2.145 0 0 1 8.273 8.552 A 3.049 3.049 0 0 1 7.976 7.918 A 4.311 4.311 0 0 1 7.882 7.592 A 5.652 5.652 0 0 1 7.797 7.179 Q 7.727 6.769 7.701 6.388 A 11.02 11.02 0 0 1 7.682 5.992 A 13.611 13.611 0 0 1 7.676 5.567 Q 7.676 4.886 7.749 4.242 A 29.127 29.127 0 0 1 7.752 4.213 Q 7.824 3.589 7.896 3.205 Q 7.955 2.887 7.966 2.784 Z M 58.11 0.367 L 58.11 9.457 Q 58.11 9.815 57.957 9.991 A 1.294 1.294 0 0 1 57.752 10.186 Q 57.647 10.267 57.516 10.34 A 2.333 2.333 0 0 1 57.44 10.379 A 2.35 2.35 0 0 1 57.262 10.461 Q 57.079 10.535 56.941 10.546 A 0.587 0.587 0 0 1 56.895 10.548 Q 56.66 10.548 56.64 10.285 A 0.679 0.679 0 0 1 56.638 10.233 L 56.638 1.144 A 0.997 0.997 0 0 1 56.658 0.94 Q 56.684 0.813 56.747 0.715 A 0.58 0.58 0 0 1 56.792 0.653 A 1.558 1.558 0 0 1 57.015 0.438 Q 57.129 0.347 57.27 0.263 A 2.698 2.698 0 0 1 57.312 0.239 Q 57.606 0.073 57.807 0.054 A 0.53 0.53 0 0 1 57.854 0.052 Q 58.088 0.052 58.108 0.315 A 0.679 0.679 0 0 1 58.11 0.367 Z M 54.69 0.367 L 54.69 4.864 Q 54.69 7.135 54.318 8.417 A 4.475 4.475 0 0 1 54.119 8.973 Q 53.833 9.618 53.467 9.988 A 1.918 1.918 0 0 1 53.276 10.158 Q 53.017 10.357 52.786 10.357 A 0.221 0.221 0 0 1 52.725 10.35 Q 52.632 10.323 52.632 10.204 A 0.185 0.185 0 0 1 52.641 10.148 Q 52.648 10.126 52.661 10.101 A 0.387 0.387 0 0 1 52.676 10.075 A 3.841 3.841 0 0 1 52.7 10.037 Q 52.728 9.994 52.767 9.937 A 14.807 14.807 0 0 1 52.804 9.881 A 1.918 1.918 0 0 0 52.916 9.695 A 1.683 1.683 0 0 0 52.947 9.632 Q 53.323 8.85 53.397 7.235 A 18.385 18.385 0 0 0 53.416 6.395 L 53.416 0.997 Q 53.416 0.588 53.737 0.34 A 1.057 1.057 0 0 1 53.785 0.305 A 2.05 2.05 0 0 1 53.997 0.177 Q 54.234 0.054 54.427 0.052 A 0.618 0.618 0 0 1 54.434 0.052 Q 54.668 0.052 54.688 0.315 A 0.679 0.679 0 0 1 54.69 0.367 Z M 16.479 7.655 L 16.479 3.678 A 0.692 0.692 0 0 1 16.586 3.308 A 1.135 1.135 0 0 1 16.849 3.011 Q 17.007 2.887 17.194 2.817 A 1.198 1.198 0 0 1 17.36 2.768 Q 17.455 2.748 17.542 2.748 Q 17.776 2.748 17.796 3.011 A 0.679 0.679 0 0 1 17.798 3.063 L 17.798 7.523 L 17.827 8.087 Q 17.856 8.504 17.944 8.801 A 1.397 1.397 0 0 0 18.044 9.051 A 1.04 1.04 0 0 0 18.208 9.284 A 1.016 1.016 0 0 0 18.562 9.526 A 1.23 1.23 0 0 0 18.651 9.559 A 1.616 1.616 0 0 0 18.907 9.619 Q 19.035 9.639 19.182 9.645 A 3.074 3.074 0 0 0 19.299 9.647 A 2.231 2.231 0 0 0 20.147 9.487 A 2.13 2.13 0 0 0 20.405 9.361 A 1.877 1.877 0 0 1 20.454 9.334 Q 20.53 9.293 20.569 9.284 A 0.086 0.086 0 0 1 20.588 9.281 A 0.131 0.131 0 0 1 20.624 9.285 A 0.087 0.087 0 0 1 20.68 9.332 A 0.15 0.15 0 0 1 20.691 9.363 Q 20.706 9.423 20.706 9.552 A 0.734 0.734 0 0 1 20.625 9.897 A 0.75 0.75 0 0 1 20.493 10.075 A 1.686 1.686 0 0 1 20.09 10.376 A 1.974 1.974 0 0 1 19.98 10.431 A 2.808 2.808 0 0 1 19.354 10.636 Q 19.028 10.702 18.801 10.702 A 4.052 4.052 0 0 1 18.33 10.676 Q 18.087 10.647 17.878 10.588 A 2.264 2.264 0 0 1 17.743 10.544 A 1.538 1.538 0 0 1 17.021 10.024 Q 16.77 9.696 16.638 9.191 A 3.536 3.536 0 0 1 16.611 9.083 Q 16.512 8.646 16.487 8.054 A 9.723 9.723 0 0 1 16.479 7.655 Z M 36.35 7.655 L 36.35 3.678 A 0.692 0.692 0 0 1 36.456 3.308 A 1.135 1.135 0 0 1 36.72 3.011 Q 36.877 2.887 37.064 2.817 A 1.198 1.198 0 0 1 37.231 2.768 Q 37.325 2.748 37.412 2.748 Q 37.646 2.748 37.667 3.011 A 0.679 0.679 0 0 1 37.668 3.063 L 37.668 7.193 L 37.69 7.838 A 7.585 7.585 0 0 0 37.695 7.939 Q 37.701 8.082 37.712 8.179 A 2.822 2.822 0 0 0 37.729 8.3 A 2.068 2.068 0 0 0 37.749 8.409 A 3.967 3.967 0 0 0 37.79 8.583 A 3.618 3.618 0 0 0 37.797 8.607 Q 37.822 8.702 37.866 8.849 A 1.165 1.165 0 0 0 37.992 9.142 A 0.867 0.867 0 0 0 38.342 9.468 Q 38.641 9.62 39.071 9.643 A 2.947 2.947 0 0 0 39.229 9.647 A 2.074 2.074 0 0 0 40.276 9.361 A 1.57 1.57 0 0 1 40.333 9.33 Q 40.412 9.288 40.453 9.282 A 0.088 0.088 0 0 1 40.466 9.281 Q 40.576 9.281 40.576 9.552 A 0.711 0.711 0 0 1 40.365 10.066 A 0.895 0.895 0 0 1 40.364 10.068 A 1.686 1.686 0 0 1 39.961 10.368 A 1.974 1.974 0 0 1 39.851 10.423 Q 39.551 10.563 39.225 10.632 Q 38.989 10.682 38.805 10.696 A 1.77 1.77 0 0 1 38.672 10.702 A 4.052 4.052 0 0 1 38.2 10.676 Q 37.958 10.647 37.749 10.588 A 2.264 2.264 0 0 1 37.614 10.544 A 1.538 1.538 0 0 1 36.892 10.024 Q 36.64 9.696 36.508 9.191 A 3.536 3.536 0 0 1 36.482 9.083 Q 36.382 8.646 36.358 8.054 A 9.723 9.723 0 0 1 36.35 7.655 Z M 22.397 3.063 L 22.397 9.625 A 0.756 0.756 0 0 1 22.139 10.199 A 1.126 1.126 0 0 1 22.035 10.284 A 1.65 1.65 0 0 1 21.779 10.439 Q 21.624 10.513 21.474 10.537 A 0.891 0.891 0 0 1 21.335 10.548 Q 21.101 10.548 21.081 10.285 A 0.679 0.679 0 0 1 21.079 10.233 L 21.079 3.67 Q 21.079 3.29 21.445 3.019 Q 21.812 2.748 22.141 2.748 Q 22.375 2.748 22.396 3.011 A 0.679 0.679 0 0 1 22.397 3.063 Z M 24.382 7.472 L 25.012 7.472 Q 25.174 7.472 25.254 7.525 A 0.186 0.186 0 0 1 25.28 7.545 A 0.224 0.224 0 0 1 25.319 7.598 Q 25.352 7.657 25.378 7.758 A 1.583 1.583 0 0 1 25.4 7.866 A 2.925 2.925 0 0 0 25.62 8.625 Q 26.008 9.471 26.939 9.617 A 2.654 2.654 0 0 0 27.349 9.647 A 3.016 3.016 0 0 0 27.916 9.595 A 2.642 2.642 0 0 0 28.132 9.544 Q 28.499 9.442 28.7 9.317 Q 28.901 9.193 29.073 9.09 Q 29.243 8.99 29.323 8.988 A 0.131 0.131 0 0 1 29.326 8.988 A 0.221 0.221 0 0 1 29.395 8.998 Q 29.467 9.021 29.487 9.1 A 0.288 0.288 0 0 1 29.495 9.171 A 0.377 0.377 0 0 1 29.478 9.276 Q 29.442 9.4 29.326 9.566 A 2.004 2.004 0 0 1 29.159 9.774 Q 29.068 9.873 28.954 9.975 A 3.911 3.911 0 0 1 28.846 10.068 A 1.962 1.962 0 0 1 28.555 10.267 Q 28.313 10.404 27.99 10.515 A 3.501 3.501 0 0 1 27.1 10.691 A 4.141 4.141 0 0 1 26.807 10.702 Q 25.488 10.702 24.76 9.907 A 2.725 2.725 0 0 1 24.082 8.489 A 3.787 3.787 0 0 1 24.031 7.853 A 0.598 0.598 0 0 1 24.047 7.707 Q 24.095 7.517 24.285 7.48 A 0.52 0.52 0 0 1 24.382 7.472 Z M 31.04 5.091 L 31.04 3.67 A 0.756 0.756 0 0 1 31.298 3.097 A 1.126 1.126 0 0 1 31.403 3.011 A 1.65 1.65 0 0 1 31.658 2.856 Q 31.814 2.782 31.964 2.758 A 0.891 0.891 0 0 1 32.102 2.748 Q 32.336 2.748 32.356 3.011 A 0.679 0.679 0 0 1 32.358 3.063 L 32.358 3.473 A 0.809 0.809 0 0 0 32.362 3.549 Q 32.377 3.707 32.461 3.707 Q 32.532 3.707 32.677 3.57 A 1.888 1.888 0 0 0 32.717 3.531 A 3.983 3.983 0 0 1 33.145 3.157 Q 33.692 2.748 34.189 2.748 A 2.136 2.136 0 0 1 34.713 2.816 A 2.778 2.778 0 0 1 35.065 2.931 A 1.363 1.363 0 0 1 35.249 3.019 Q 35.522 3.18 35.522 3.407 A 0.419 0.419 0 0 1 35.472 3.6 Q 35.397 3.744 35.215 3.894 Q 34.932 4.126 34.711 4.145 A 0.453 0.453 0 0 1 34.673 4.147 A 0.612 0.612 0 0 1 34.543 4.131 Q 34.414 4.103 34.24 4.023 A 3.092 3.092 0 0 1 34.116 3.963 A 1.933 1.933 0 0 0 33.872 3.865 Q 33.736 3.822 33.612 3.808 A 1.027 1.027 0 0 0 33.501 3.802 A 1.037 1.037 0 0 0 33.164 3.857 A 0.93 0.93 0 0 0 33.042 3.91 Q 32.981 3.941 32.913 3.984 A 2.256 2.256 0 0 0 32.791 4.07 A 11.714 11.714 0 0 0 32.689 4.146 Q 32.549 4.252 32.449 4.335 A 4.062 4.062 0 0 0 32.443 4.341 Q 32.307 4.454 31.981 4.758 Q 31.732 4.991 31.566 5.14 A 12.175 12.175 0 0 1 31.472 5.223 Q 31.343 5.334 31.247 5.357 A 0.204 0.204 0 0 1 31.201 5.362 A 0.133 0.133 0 0 1 31.074 5.282 Q 31.044 5.223 31.041 5.12 A 0.841 0.841 0 0 1 31.04 5.091 Z M 31.04 10.233 L 31.04 6.542 A 1.364 1.364 0 0 1 31.06 6.298 Q 31.085 6.163 31.139 6.056 A 0.666 0.666 0 0 1 31.238 5.912 A 2.425 2.425 0 0 1 31.599 5.575 A 2.802 2.802 0 0 1 31.707 5.498 Q 31.917 5.353 32.057 5.32 A 0.332 0.332 0 0 1 32.131 5.311 A 0.228 0.228 0 0 1 32.24 5.335 Q 32.358 5.398 32.358 5.626 L 32.358 9.625 A 0.763 0.763 0 0 1 32.093 10.212 A 1.095 1.095 0 0 1 32 10.288 A 1.589 1.589 0 0 1 31.733 10.446 Q 31.512 10.548 31.296 10.548 Q 31.062 10.548 31.042 10.285 A 0.679 0.679 0 0 1 31.04 10.233 Z M 37.954 13.478 A 2.666 2.666 0 0 0 38.147 13.61 Q 38.303 13.707 38.445 13.76 A 1.239 1.239 0 0 0 38.663 13.817 Q 38.816 13.844 39.001 13.844 A 2.57 2.57 0 0 0 39.274 13.828 Q 39.413 13.813 39.567 13.784 A 4.604 4.604 0 0 0 39.672 13.763 A 53.992 53.992 0 0 1 39.76 13.744 Q 40.052 13.683 40.071 13.683 Q 40.235 13.683 40.258 13.819 A 0.287 0.287 0 0 1 40.261 13.866 Q 40.261 14.203 39.69 14.551 A 2.324 2.324 0 0 1 38.459 14.898 A 2.825 2.825 0 0 1 37.24 14.627 Q 36.697 14.372 36.667 14.122 A 0.244 0.244 0 0 1 36.665 14.093 A 0.493 0.493 0 0 1 36.745 13.829 Q 36.792 13.753 36.866 13.681 A 1.194 1.194 0 0 1 36.965 13.595 A 2.241 2.241 0 0 1 37.13 13.47 Q 37.365 13.309 37.529 13.309 A 0.599 0.599 0 0 1 37.811 13.382 A 0.847 0.847 0 0 1 37.954 13.478 Z M 0.176 11.094 A 1.281 1.281 0 0 0 1.128 11.5 A 1.137 1.137 0 0 0 1.696 11.354 Q 1.956 11.207 2.102 11.002 A 2.834 2.834 0 0 0 2.121 10.976 Q 2.185 10.884 2.235 10.796 A 1.687 1.687 0 0 0 2.325 10.614 A 1.725 1.725 0 0 0 2.34 10.579 Q 2.381 10.475 2.395 10.397 A 0.429 0.429 0 0 0 2.402 10.321 A 0.457 0.457 0 0 0 2.402 10.3 Q 2.395 10.157 2.297 10.121 A 0.224 0.224 0 0 0 2.219 10.108 Q 2.156 10.108 2.013 10.167 A 2.601 2.601 0 0 0 1.926 10.204 A 1.45 1.45 0 0 1 1.833 10.242 Q 1.678 10.299 1.553 10.299 A 0.439 0.439 0 0 1 1.297 10.215 A 0.673 0.673 0 0 1 1.179 10.108 Q 1.011 9.925 0.945 9.874 Q 0.879 9.823 0.762 9.823 Q 0.513 9.823 0.256 10.13 A 2.008 2.008 0 0 0 0.236 10.155 Q 0.092 10.333 0.036 10.489 A 0.561 0.561 0 0 0 0 10.68 Q 0 10.892 0.125 11.039 A 1.663 1.663 0 0 0 0.176 11.094 Z" vector-effect="non-scaling-stroke"/></g></svg>