<svg width="157.552" height="15.967" viewBox="0 0 157.552 15.967" xmlns="http://www.w3.org/2000/svg"><g id="svgGroup" stroke-linecap="round" fill-rule="evenodd" font-size="9pt" stroke="#000" stroke-width="0.25mm" fill="#000" style="stroke:#000;stroke-width:0.25mm;fill:#000"><path d="M 52.573 2.454 L 50.83 2.454 Q 50.735 2.454 50.68 2.446 Q 50.625 2.439 50.585 2.399 A 0.132 0.132 0 0 1 50.551 2.338 Q 50.545 2.317 50.545 2.292 A 0.257 0.257 0 0 1 50.544 2.285 A 0.561 0.561 0 0 1 50.611 2.03 Q 50.701 1.853 50.913 1.667 A 2.277 2.277 0 0 1 50.962 1.626 A 1.845 1.845 0 0 1 51.274 1.415 Q 51.489 1.302 51.704 1.275 A 1.102 1.102 0 0 1 51.804 1.267 L 53.196 1.245 A 8.855 8.855 0 0 1 53.612 1.255 A 7.611 7.611 0 0 1 53.767 1.263 Q 53.953 1.276 54.195 1.316 A 7.738 7.738 0 0 1 54.426 1.359 A 4.634 4.634 0 0 1 54.875 1.47 A 3.781 3.781 0 0 1 55.137 1.56 A 2.782 2.782 0 0 1 55.5 1.733 A 3.679 3.679 0 0 1 55.8 1.923 A 2.353 2.353 0 0 1 56.371 2.483 A 2.275 2.275 0 0 1 56.569 2.822 Q 56.672 3.035 56.752 3.296 A 3.393 3.393 0 0 1 56.879 3.935 A 4.326 4.326 0 0 1 56.902 4.387 Q 56.902 5.955 55.342 7.031 A 0.844 0.844 0 0 0 55.24 7.115 Q 55.191 7.163 55.161 7.212 A 0.297 0.297 0 0 0 55.115 7.368 Q 55.115 7.491 55.223 7.666 A 1.365 1.365 0 0 0 55.239 7.69 L 56.953 10.444 Q 57.11 10.702 57.114 10.889 A 0.456 0.456 0 0 1 57.114 10.899 Q 57.114 11.128 56.875 11.318 A 1.285 1.285 0 0 1 56.726 11.419 Q 56.495 11.564 56.292 11.602 A 0.772 0.772 0 0 1 56.148 11.616 Q 55.953 11.616 55.796 11.412 A 1.044 1.044 0 0 1 55.723 11.301 L 53.694 7.749 A 0.602 0.602 0 0 1 53.64 7.651 Q 53.606 7.571 53.606 7.493 A 0.315 0.315 0 0 1 53.674 7.3 Q 53.713 7.25 53.772 7.202 A 0.921 0.921 0 0 1 53.884 7.127 A 3.232 3.232 0 0 0 54.515 6.671 A 2.61 2.61 0 0 0 54.972 6.108 A 2.554 2.554 0 0 0 55.342 4.768 A 3.406 3.406 0 0 0 55.311 4.298 Q 55.274 4.031 55.192 3.805 A 2.256 2.256 0 0 0 55.042 3.474 Q 54.941 3.293 54.814 3.157 A 1.384 1.384 0 0 0 54.796 3.138 Q 54.551 2.886 54.185 2.728 A 3.061 3.061 0 0 0 53.434 2.512 A 4.932 4.932 0 0 0 53.026 2.468 A 6.682 6.682 0 0 0 52.573 2.454 Z M 31.421 6.921 L 31.421 10.671 A 0.781 0.781 0 0 1 31.175 11.243 A 1.157 1.157 0 0 1 31.062 11.342 A 1.587 1.587 0 0 1 30.807 11.503 Q 30.647 11.583 30.491 11.606 A 0.882 0.882 0 0 1 30.359 11.616 Q 30.125 11.616 30.104 11.353 A 0.679 0.679 0 0 1 30.103 11.301 L 30.103 8.408 Q 30.103 7.881 30.096 7.552 A 15.784 15.784 0 0 0 30.092 7.368 Q 30.084 7.127 30.059 6.819 A 18.393 18.393 0 0 0 30.033 6.526 A 4.527 4.527 0 0 0 30.001 6.27 Q 29.954 5.968 29.876 5.797 A 2.424 2.424 0 0 0 29.728 5.526 A 3.143 3.143 0 0 0 29.579 5.31 A 0.954 0.954 0 0 0 29.092 4.966 A 1.893 1.893 0 0 0 28.796 4.899 Q 28.602 4.871 28.374 4.871 A 1.808 1.808 0 0 0 27.827 4.967 Q 27.305 5.134 26.621 5.592 A 10.943 10.943 0 0 0 26.067 5.991 A 1.719 1.719 0 0 1 25.963 6.067 Q 25.859 6.136 25.78 6.161 A 0.268 0.268 0 0 1 25.701 6.174 Q 25.562 6.174 25.555 5.951 A 0.781 0.781 0 0 1 25.554 5.925 L 25.554 4.761 A 0.775 0.775 0 0 1 25.794 4.198 A 1.154 1.154 0 0 1 25.917 4.091 Q 26.279 3.816 26.616 3.816 Q 26.85 3.816 26.871 4.079 A 0.679 0.679 0 0 1 26.873 4.131 L 26.873 4.314 A 0.896 0.896 0 0 0 26.876 4.4 Q 26.885 4.484 26.911 4.529 A 0.088 0.088 0 0 0 26.99 4.578 Q 27.07 4.578 27.2 4.492 A 1.374 1.374 0 0 0 27.275 4.439 A 3.359 3.359 0 0 1 27.95 4.05 A 3.039 3.039 0 0 1 28.147 3.973 A 3.282 3.282 0 0 1 28.499 3.872 Q 28.677 3.832 28.837 3.82 A 1.751 1.751 0 0 1 28.96 3.816 A 3.596 3.596 0 0 1 29.657 3.879 Q 30.057 3.958 30.363 4.137 A 1.746 1.746 0 0 1 30.828 4.53 A 2.066 2.066 0 0 1 31.165 5.135 Q 31.421 5.821 31.421 6.921 Z M 124.365 6.921 L 124.365 10.671 A 0.781 0.781 0 0 1 124.12 11.243 A 1.157 1.157 0 0 1 124.006 11.342 A 1.587 1.587 0 0 1 123.751 11.503 Q 123.591 11.583 123.435 11.606 A 0.882 0.882 0 0 1 123.303 11.616 Q 123.069 11.616 123.049 11.353 A 0.679 0.679 0 0 1 123.047 11.301 L 123.047 8.408 Q 123.047 7.881 123.04 7.552 A 15.784 15.784 0 0 0 123.036 7.368 Q 123.028 7.127 123.004 6.819 A 18.393 18.393 0 0 0 122.977 6.526 A 4.527 4.527 0 0 0 122.946 6.27 Q 122.899 5.968 122.82 5.797 A 2.424 2.424 0 0 0 122.672 5.526 A 3.143 3.143 0 0 0 122.523 5.31 A 0.954 0.954 0 0 0 122.036 4.966 A 1.893 1.893 0 0 0 121.74 4.899 Q 121.547 4.871 121.318 4.871 A 1.808 1.808 0 0 0 120.771 4.967 Q 120.249 5.134 119.566 5.592 A 10.943 10.943 0 0 0 119.011 5.991 A 1.719 1.719 0 0 1 118.907 6.067 Q 118.803 6.136 118.724 6.161 A 0.268 0.268 0 0 1 118.645 6.174 Q 118.506 6.174 118.499 5.951 A 0.781 0.781 0 0 1 118.499 5.925 L 118.499 4.761 A 0.775 0.775 0 0 1 118.738 4.198 A 1.154 1.154 0 0 1 118.861 4.091 Q 119.224 3.816 119.561 3.816 Q 119.795 3.816 119.815 4.079 A 0.679 0.679 0 0 1 119.817 4.131 L 119.817 4.314 A 0.896 0.896 0 0 0 119.821 4.4 Q 119.829 4.484 119.855 4.529 A 0.088 0.088 0 0 0 119.934 4.578 Q 120.015 4.578 120.144 4.492 A 1.374 1.374 0 0 0 120.22 4.439 A 3.359 3.359 0 0 1 120.894 4.05 A 3.039 3.039 0 0 1 121.091 3.973 A 3.282 3.282 0 0 1 121.443 3.872 Q 121.621 3.832 121.781 3.82 A 1.751 1.751 0 0 1 121.904 3.816 A 3.596 3.596 0 0 1 122.601 3.879 Q 123.001 3.958 123.307 4.137 A 1.746 1.746 0 0 1 123.772 4.53 A 2.066 2.066 0 0 1 124.11 5.135 Q 124.365 5.821 124.365 6.921 Z M 59.971 6.878 A 0.502 0.502 0 0 0 59.978 6.968 Q 60.002 7.096 60.099 7.138 A 0.536 0.536 0 0 0 60.191 7.166 Q 60.305 7.192 60.476 7.192 A 6.268 6.268 0 0 0 60.928 7.177 Q 61.284 7.151 61.567 7.083 A 2.63 2.63 0 0 0 61.849 6.999 Q 62.103 6.906 62.263 6.775 A 1.593 1.593 0 0 0 62.437 6.611 Q 62.527 6.511 62.586 6.406 A 0.932 0.932 0 0 0 62.611 6.357 Q 62.717 6.138 62.717 5.874 A 1.061 1.061 0 0 0 62.665 5.535 A 0.882 0.882 0 0 0 62.402 5.145 A 0.94 0.94 0 0 0 62.105 4.975 Q 61.821 4.871 61.392 4.871 A 3.399 3.399 0 0 0 59.537 5.426 A 4.225 4.225 0 0 0 59.341 5.559 Q 59.062 5.767 58.986 5.771 A 0.056 0.056 0 0 1 58.982 5.772 A 0.159 0.159 0 0 1 58.93 5.764 Q 58.86 5.74 58.858 5.639 A 0.3 0.3 0 0 1 58.857 5.632 A 0.412 0.412 0 0 1 58.881 5.5 Q 58.929 5.361 59.07 5.186 A 3.67 3.67 0 0 1 59.785 4.485 A 3.382 3.382 0 0 1 59.971 4.358 A 4.554 4.554 0 0 1 60.337 4.146 Q 60.522 4.051 60.693 3.989 A 2.284 2.284 0 0 1 60.894 3.926 A 3.242 3.242 0 0 1 61.721 3.816 A 4.38 4.38 0 0 1 62.223 3.843 A 3.317 3.317 0 0 1 62.673 3.926 Q 63.098 4.036 63.428 4.266 A 1.49 1.49 0 0 1 63.88 4.776 A 1.809 1.809 0 0 1 63.94 4.896 A 1.953 1.953 0 0 1 64.089 5.388 A 2.659 2.659 0 0 1 64.124 5.83 A 1.851 1.851 0 0 1 63.44 7.313 A 2.681 2.681 0 0 1 63.036 7.592 A 4.151 4.151 0 0 1 62.043 7.987 Q 61.198 8.211 60.066 8.211 Q 59.539 8.211 58.872 8.152 A 0.532 0.532 0 0 1 58.741 8.128 Q 58.573 8.072 58.547 7.896 A 0.466 0.466 0 0 1 58.543 7.83 Q 58.543 7.017 58.777 6.61 A 1.772 1.772 0 0 1 59.124 6.175 A 1.598 1.598 0 0 1 59.385 5.984 A 2.956 2.956 0 0 1 59.557 5.891 Q 59.724 5.809 59.844 5.783 A 0.473 0.473 0 0 1 59.941 5.772 A 0.199 0.199 0 0 1 60.018 5.785 Q 60.104 5.821 60.116 5.95 A 0.474 0.474 0 0 1 60.117 5.991 A 0.464 0.464 0 0 1 60.114 6.04 Q 60.102 6.147 60.048 6.4 A 12.736 12.736 0 0 1 60.044 6.42 A 7.825 7.825 0 0 0 60.015 6.558 Q 59.979 6.746 59.972 6.841 A 0.542 0.542 0 0 0 59.971 6.878 Z M 153.398 6.878 A 0.502 0.502 0 0 0 153.406 6.968 Q 153.43 7.096 153.527 7.138 A 0.536 0.536 0 0 0 153.619 7.166 Q 153.733 7.192 153.904 7.192 A 6.268 6.268 0 0 0 154.356 7.177 Q 154.711 7.151 154.995 7.083 A 2.63 2.63 0 0 0 155.276 6.999 Q 155.53 6.906 155.691 6.775 A 1.593 1.593 0 0 0 155.865 6.611 Q 155.955 6.511 156.014 6.406 A 0.932 0.932 0 0 0 156.039 6.357 Q 156.145 6.138 156.145 5.874 A 1.061 1.061 0 0 0 156.093 5.535 A 0.882 0.882 0 0 0 155.83 5.145 A 0.94 0.94 0 0 0 155.533 4.975 Q 155.249 4.871 154.819 4.871 A 3.399 3.399 0 0 0 152.965 5.426 A 4.225 4.225 0 0 0 152.769 5.559 Q 152.49 5.767 152.413 5.771 A 0.056 0.056 0 0 1 152.41 5.772 A 0.159 0.159 0 0 1 152.358 5.764 Q 152.287 5.74 152.285 5.639 A 0.3 0.3 0 0 1 152.285 5.632 A 0.412 0.412 0 0 1 152.309 5.5 Q 152.357 5.361 152.498 5.186 A 3.67 3.67 0 0 1 153.213 4.485 A 3.382 3.382 0 0 1 153.398 4.358 A 4.554 4.554 0 0 1 153.765 4.146 Q 153.95 4.051 154.121 3.989 A 2.284 2.284 0 0 1 154.321 3.926 A 3.242 3.242 0 0 1 155.149 3.816 A 4.38 4.38 0 0 1 155.651 3.843 A 3.317 3.317 0 0 1 156.101 3.926 Q 156.526 4.036 156.856 4.266 A 1.49 1.49 0 0 1 157.307 4.776 A 1.809 1.809 0 0 1 157.368 4.896 A 1.953 1.953 0 0 1 157.516 5.388 A 2.659 2.659 0 0 1 157.551 5.83 A 1.851 1.851 0 0 1 156.867 7.313 A 2.681 2.681 0 0 1 156.464 7.592 A 4.151 4.151 0 0 1 155.471 7.987 Q 154.626 8.211 153.494 8.211 Q 152.966 8.211 152.3 8.152 A 0.532 0.532 0 0 1 152.168 8.128 Q 152 8.072 151.975 7.896 A 0.466 0.466 0 0 1 151.97 7.83 Q 151.97 7.017 152.205 6.61 A 1.772 1.772 0 0 1 152.552 6.175 A 1.598 1.598 0 0 1 152.813 5.984 A 2.956 2.956 0 0 1 152.985 5.891 Q 153.152 5.809 153.271 5.783 A 0.473 0.473 0 0 1 153.369 5.772 A 0.199 0.199 0 0 1 153.446 5.785 Q 153.532 5.821 153.543 5.95 A 0.474 0.474 0 0 1 153.545 5.991 A 0.464 0.464 0 0 1 153.542 6.04 Q 153.53 6.147 153.476 6.4 A 12.736 12.736 0 0 1 153.472 6.42 A 7.825 7.825 0 0 0 153.443 6.558 Q 153.406 6.746 153.4 6.841 A 0.542 0.542 0 0 0 153.398 6.878 Z M 10.648 3.907 A 4.47 4.47 0 0 0 9.712 3.816 A 3.093 3.093 0 0 0 7.935 4.351 A 3.882 3.882 0 0 0 7.061 5.186 A 0.719 0.719 0 0 0 7.039 5.214 Q 6.987 5.286 6.918 5.413 A 1.323 1.323 0 0 0 6.888 5.471 Q 6.834 5.583 6.834 5.647 A 0.269 0.269 0 0 0 6.834 5.666 Q 6.84 5.743 6.892 5.764 A 0.119 0.119 0 0 0 6.936 5.772 A 0.081 0.081 0 0 0 6.939 5.771 Q 6.959 5.771 6.985 5.761 A 0.298 0.298 0 0 0 7.009 5.75 Q 7.053 5.728 7.094 5.698 Q 7.124 5.676 7.173 5.644 A 4.948 4.948 0 0 1 7.207 5.621 Q 7.262 5.586 7.296 5.56 A 0.694 0.694 0 0 0 7.317 5.544 A 5.22 5.22 0 0 1 7.458 5.451 Q 8.365 4.871 9.221 4.871 A 3.523 3.523 0 0 1 9.3 4.872 Q 9.915 4.885 10.349 5.116 Q 10.811 5.361 11.071 5.837 A 3.256 3.256 0 0 1 11.27 6.28 A 3.998 3.998 0 0 1 11.444 6.925 A 5.475 5.475 0 0 1 11.475 7.106 Q 11.517 7.385 11.537 7.704 A 10.19 10.19 0 0 1 11.558 8.364 A 14.07 14.07 0 0 1 11.555 8.642 Q 11.539 9.472 11.422 10.074 A 3.986 3.986 0 0 1 11.257 10.686 Q 11.191 10.884 11.104 11.034 Q 11.038 11.147 10.992 11.216 A 1.578 1.578 0 0 1 10.964 11.257 A 0.545 0.545 0 0 0 10.949 11.281 Q 10.926 11.317 10.918 11.345 A 0.105 0.105 0 0 0 10.913 11.375 A 0.202 0.202 0 0 0 10.917 11.413 Q 10.931 11.489 11.009 11.508 A 0.248 0.248 0 0 0 11.067 11.514 A 0.432 0.432 0 0 0 11.213 11.485 Q 11.357 11.433 11.538 11.286 A 2.827 2.827 0 0 0 11.719 11.126 A 3.117 3.117 0 0 0 11.992 10.825 A 3.633 3.633 0 0 0 12.4 10.181 A 4.766 4.766 0 0 0 12.617 9.653 A 6.144 6.144 0 0 0 12.806 8.976 A 6.788 6.788 0 0 0 12.904 8.439 A 5.351 5.351 0 0 0 12.957 7.705 A 7.764 7.764 0 0 0 12.906 6.793 Q 12.757 5.537 12.169 4.801 A 2.354 2.354 0 0 0 11.631 4.308 Q 11.211 4.028 10.648 3.907 Z M 114.6 3.907 A 4.47 4.47 0 0 0 113.665 3.816 A 3.093 3.093 0 0 0 111.887 4.351 A 3.882 3.882 0 0 0 111.013 5.186 A 0.719 0.719 0 0 0 110.992 5.214 Q 110.94 5.286 110.87 5.413 A 1.323 1.323 0 0 0 110.84 5.471 Q 110.786 5.583 110.786 5.647 A 0.269 0.269 0 0 0 110.787 5.666 Q 110.792 5.743 110.844 5.764 A 0.119 0.119 0 0 0 110.889 5.772 A 0.081 0.081 0 0 0 110.892 5.771 Q 110.912 5.771 110.937 5.761 A 0.298 0.298 0 0 0 110.962 5.75 Q 111.006 5.728 111.046 5.698 Q 111.076 5.676 111.125 5.644 A 4.948 4.948 0 0 1 111.16 5.621 Q 111.215 5.586 111.249 5.56 A 0.694 0.694 0 0 0 111.27 5.544 A 5.22 5.22 0 0 1 111.411 5.451 Q 112.317 4.871 113.174 4.871 A 3.523 3.523 0 0 1 113.253 4.872 Q 113.868 4.885 114.302 5.116 Q 114.763 5.361 115.023 5.837 A 3.256 3.256 0 0 1 115.223 6.28 A 3.998 3.998 0 0 1 115.397 6.925 A 5.475 5.475 0 0 1 115.427 7.106 Q 115.469 7.385 115.49 7.704 A 10.19 10.19 0 0 1 115.51 8.364 A 14.07 14.07 0 0 1 115.508 8.642 Q 115.491 9.472 115.375 10.074 A 3.986 3.986 0 0 1 115.21 10.686 Q 115.144 10.884 115.056 11.034 Q 114.99 11.147 114.945 11.216 A 1.578 1.578 0 0 1 114.917 11.257 A 0.545 0.545 0 0 0 114.901 11.281 Q 114.879 11.317 114.871 11.345 A 0.105 0.105 0 0 0 114.866 11.375 A 0.202 0.202 0 0 0 114.869 11.413 Q 114.884 11.489 114.962 11.508 A 0.248 0.248 0 0 0 115.02 11.514 A 0.432 0.432 0 0 0 115.166 11.485 Q 115.31 11.433 115.491 11.286 A 2.827 2.827 0 0 0 115.671 11.126 A 3.117 3.117 0 0 0 115.945 10.825 A 3.633 3.633 0 0 0 116.353 10.181 A 4.766 4.766 0 0 0 116.57 9.653 A 6.144 6.144 0 0 0 116.759 8.976 A 6.788 6.788 0 0 0 116.856 8.439 A 5.351 5.351 0 0 0 116.909 7.705 A 7.764 7.764 0 0 0 116.859 6.793 Q 116.71 5.537 116.122 4.801 A 2.354 2.354 0 0 0 115.584 4.308 Q 115.163 4.028 114.6 3.907 Z M 99.924 6.76 L 99.924 10.73 A 0.579 0.579 0 0 1 99.83 11.046 A 0.715 0.715 0 0 1 99.811 11.074 A 1.219 1.219 0 0 1 99.533 11.356 A 1.446 1.446 0 0 1 99.181 11.547 A 1.353 1.353 0 0 1 99.053 11.588 Q 98.944 11.616 98.855 11.616 Q 98.621 11.616 98.601 11.353 A 0.679 0.679 0 0 1 98.599 11.301 L 98.599 7.031 A 3.998 3.998 0 0 0 98.528 6.243 Q 98.251 4.871 96.885 4.871 A 3.16 3.16 0 0 0 95.076 5.42 Q 94.753 5.632 94.658 5.632 A 0.148 0.148 0 0 1 94.614 5.626 Q 94.566 5.611 94.553 5.558 A 0.184 0.184 0 0 1 94.548 5.515 Q 94.548 5.328 94.738 5.079 A 1.85 1.85 0 0 1 94.775 5.032 A 3.388 3.388 0 0 1 95.777 4.185 A 3.129 3.129 0 0 1 97.295 3.816 A 4.052 4.052 0 0 1 97.879 3.856 A 3.105 3.105 0 0 1 98.401 3.977 A 1.991 1.991 0 0 1 99.097 4.367 A 1.924 1.924 0 0 1 99.229 4.493 A 2.098 2.098 0 0 1 99.573 4.988 A 2.813 2.813 0 0 1 99.745 5.409 A 3.469 3.469 0 0 1 99.868 5.943 Q 99.909 6.217 99.92 6.529 A 6.531 6.531 0 0 1 99.924 6.76 Z M 142.515 6.76 L 142.515 10.73 A 0.579 0.579 0 0 1 142.42 11.046 A 0.715 0.715 0 0 1 142.401 11.074 A 1.219 1.219 0 0 1 142.123 11.356 A 1.446 1.446 0 0 1 141.771 11.547 A 1.353 1.353 0 0 1 141.643 11.588 Q 141.535 11.616 141.445 11.616 Q 141.211 11.616 141.191 11.353 A 0.679 0.679 0 0 1 141.189 11.301 L 141.189 7.031 A 3.998 3.998 0 0 0 141.118 6.243 Q 140.841 4.871 139.475 4.871 A 3.16 3.16 0 0 0 137.666 5.42 Q 137.344 5.632 137.249 5.632 A 0.148 0.148 0 0 1 137.204 5.626 Q 137.156 5.611 137.143 5.558 A 0.184 0.184 0 0 1 137.139 5.515 Q 137.139 5.328 137.328 5.079 A 1.85 1.85 0 0 1 137.366 5.032 A 3.388 3.388 0 0 1 138.367 4.185 A 3.129 3.129 0 0 1 139.885 3.816 A 4.052 4.052 0 0 1 140.469 3.856 A 3.105 3.105 0 0 1 140.991 3.977 A 1.991 1.991 0 0 1 141.687 4.367 A 1.924 1.924 0 0 1 141.819 4.493 A 2.098 2.098 0 0 1 142.163 4.988 A 2.813 2.813 0 0 1 142.335 5.409 A 3.469 3.469 0 0 1 142.458 5.943 Q 142.5 6.217 142.511 6.529 A 6.531 6.531 0 0 1 142.515 6.76 Z M 131.096 2.461 L 129.565 2.461 Q 129.47 2.461 129.415 2.454 Q 129.36 2.446 129.32 2.406 A 0.132 0.132 0 0 1 129.286 2.346 Q 129.281 2.325 129.28 2.3 A 0.257 0.257 0 0 1 129.28 2.293 A 0.542 0.542 0 0 1 129.342 2.051 Q 129.441 1.85 129.701 1.633 A 1.909 1.909 0 0 1 130 1.426 Q 130.271 1.277 130.54 1.267 L 131.316 1.26 L 132.253 1.267 A 4.343 4.343 0 0 1 133.055 1.359 A 2.971 2.971 0 0 1 133.476 1.48 Q 133.693 1.56 133.923 1.677 A 3.084 3.084 0 0 1 134.736 2.271 Q 135.088 2.629 135.319 3.237 Q 135.549 3.845 135.549 4.614 A 2.721 2.721 0 0 1 135.53 4.929 A 3.682 3.682 0 0 1 135.472 5.274 A 2.909 2.909 0 0 1 135.38 5.603 Q 135.304 5.825 135.187 6.072 Q 134.978 6.511 134.667 6.874 A 2.444 2.444 0 0 1 134.288 7.226 Q 134.084 7.382 133.828 7.518 A 3.222 3.222 0 0 1 132.963 7.828 A 3.856 3.856 0 0 1 132.642 7.881 L 132.598 7.881 A 0.338 0.338 0 0 1 132.524 7.874 Q 132.4 7.846 132.4 7.712 Q 132.4 7.624 132.525 7.536 A 0.762 0.762 0 0 1 132.568 7.507 A 3.003 3.003 0 0 0 133.533 6.585 Q 133.989 5.879 133.989 4.9 Q 133.989 2.631 131.486 2.473 A 6.178 6.178 0 0 0 131.096 2.461 Z M 19.241 15.425 A 1.671 1.671 0 0 0 19.819 14.766 A 1.877 1.877 0 0 0 20.013 14.057 A 1.809 1.809 0 0 0 20.017 13.938 A 2.555 2.555 0 0 0 19.966 13.406 Q 19.898 13.088 19.741 12.854 A 1.275 1.275 0 0 0 19.365 12.488 Q 18.713 12.07 17.395 12.056 A 122.988 122.988 0 0 1 17.148 12.052 Q 16.804 12.047 16.609 12.041 A 14.625 14.625 0 0 1 16.608 12.041 Q 16.433 12.036 16.191 12.016 A 15.516 15.516 0 0 1 15.938 11.993 A 4.308 4.308 0 0 1 15.723 11.967 Q 15.517 11.937 15.381 11.891 A 0.967 0.967 0 0 1 15.322 11.869 Q 15.117 11.785 14.887 11.642 A 0.835 0.835 0 0 1 14.683 11.468 A 0.729 0.729 0 0 1 14.564 11.268 A 1.225 1.225 0 0 1 14.497 11.023 Q 14.477 10.908 14.474 10.777 A 2.178 2.178 0 0 1 14.473 10.715 A 1.373 1.373 0 0 1 14.561 10.215 A 1.256 1.256 0 0 1 14.817 9.811 A 2.201 2.201 0 0 1 14.973 9.658 Q 15.22 9.441 15.41 9.441 A 0.19 0.19 0 0 1 15.462 9.448 Q 15.542 9.47 15.542 9.573 Q 15.542 9.624 15.459 9.834 A 5.249 5.249 0 0 1 15.458 9.836 A 1.355 1.355 0 0 0 15.403 10.003 Q 15.374 10.12 15.374 10.225 A 0.51 0.51 0 0 0 15.388 10.35 A 0.39 0.39 0 0 0 15.45 10.485 A 0.541 0.541 0 0 0 15.64 10.647 A 0.633 0.633 0 0 0 15.652 10.653 A 0.644 0.644 0 0 0 15.741 10.689 Q 15.835 10.72 15.969 10.739 A 2.312 2.312 0 0 0 16.014 10.745 Q 16.252 10.774 16.498 10.785 A 8.487 8.487 0 0 0 16.63 10.79 Q 16.812 10.795 17.057 10.796 A 26.842 26.842 0 0 0 17.139 10.796 A 23.226 23.226 0 0 1 17.553 10.799 Q 17.742 10.803 17.911 10.809 A 13.301 13.301 0 0 1 18.021 10.814 A 7.384 7.384 0 0 1 18.521 10.856 A 8.932 8.932 0 0 1 18.838 10.899 A 5.07 5.07 0 0 1 19.194 10.965 Q 19.409 11.014 19.589 11.078 A 2.927 2.927 0 0 1 20.135 11.341 A 3.29 3.29 0 0 1 20.211 11.389 A 1.913 1.913 0 0 1 20.554 11.671 A 1.662 1.662 0 0 1 20.706 11.854 Q 20.884 12.105 20.998 12.468 A 3.12 3.12 0 0 1 21.013 12.517 A 2.792 2.792 0 0 1 21.11 13.006 A 3.642 3.642 0 0 1 21.13 13.403 A 2.309 2.309 0 0 1 20.944 14.323 A 2.662 2.662 0 0 1 20.726 14.733 A 2.086 2.086 0 0 1 20.475 15.048 A 2.743 2.743 0 0 1 20.054 15.404 A 2.414 2.414 0 0 1 19.871 15.516 A 1.841 1.841 0 0 1 19.626 15.631 Q 19.489 15.683 19.361 15.701 A 1.006 1.006 0 0 1 19.27 15.711 A 0.269 0.269 0 0 1 19.217 15.706 Q 19.134 15.689 19.125 15.614 A 0.164 0.164 0 0 1 19.124 15.593 A 0.117 0.117 0 0 1 19.136 15.543 Q 19.155 15.504 19.202 15.459 A 0.659 0.659 0 0 1 19.241 15.425 Z M 70.305 15.425 A 1.671 1.671 0 0 0 70.884 14.766 A 1.877 1.877 0 0 0 71.078 14.057 A 1.809 1.809 0 0 0 71.082 13.938 A 2.555 2.555 0 0 0 71.03 13.406 Q 70.962 13.088 70.805 12.854 A 1.275 1.275 0 0 0 70.43 12.488 Q 69.778 12.07 68.46 12.056 A 122.988 122.988 0 0 1 68.213 12.052 Q 67.868 12.047 67.673 12.041 A 14.625 14.625 0 0 1 67.672 12.041 Q 67.497 12.036 67.255 12.016 A 15.516 15.516 0 0 1 67.002 11.993 A 4.308 4.308 0 0 1 66.788 11.967 Q 66.581 11.937 66.445 11.891 A 0.967 0.967 0 0 1 66.387 11.869 Q 66.182 11.785 65.951 11.642 A 0.835 0.835 0 0 1 65.748 11.468 A 0.729 0.729 0 0 1 65.629 11.268 A 1.225 1.225 0 0 1 65.561 11.023 Q 65.542 10.908 65.538 10.777 A 2.178 2.178 0 0 1 65.537 10.715 A 1.373 1.373 0 0 1 65.626 10.215 A 1.256 1.256 0 0 1 65.881 9.811 A 2.201 2.201 0 0 1 66.038 9.658 Q 66.284 9.441 66.475 9.441 A 0.19 0.19 0 0 1 66.527 9.448 Q 66.606 9.47 66.606 9.573 Q 66.606 9.624 66.523 9.834 A 5.249 5.249 0 0 1 66.522 9.836 A 1.355 1.355 0 0 0 66.468 10.003 Q 66.438 10.12 66.438 10.225 A 0.51 0.51 0 0 0 66.453 10.35 A 0.39 0.39 0 0 0 66.515 10.485 A 0.541 0.541 0 0 0 66.705 10.647 A 0.633 0.633 0 0 0 66.716 10.653 A 0.644 0.644 0 0 0 66.805 10.689 Q 66.9 10.72 67.034 10.739 A 2.312 2.312 0 0 0 67.079 10.745 Q 67.317 10.774 67.562 10.785 A 8.487 8.487 0 0 0 67.694 10.79 Q 67.877 10.795 68.121 10.796 A 26.842 26.842 0 0 0 68.203 10.796 A 23.226 23.226 0 0 1 68.617 10.799 Q 68.806 10.803 68.975 10.809 A 13.301 13.301 0 0 1 69.086 10.814 A 7.384 7.384 0 0 1 69.585 10.856 A 8.932 8.932 0 0 1 69.902 10.899 A 5.07 5.07 0 0 1 70.259 10.965 Q 70.474 11.014 70.653 11.078 A 2.927 2.927 0 0 1 71.199 11.341 A 3.29 3.29 0 0 1 71.276 11.389 A 1.913 1.913 0 0 1 71.619 11.671 A 1.662 1.662 0 0 1 71.77 11.854 Q 71.949 12.105 72.063 12.468 A 3.12 3.12 0 0 1 72.078 12.517 A 2.792 2.792 0 0 1 72.174 13.006 A 3.642 3.642 0 0 1 72.195 13.403 A 2.309 2.309 0 0 1 72.008 14.323 A 2.662 2.662 0 0 1 71.79 14.733 A 2.086 2.086 0 0 1 71.539 15.048 A 2.743 2.743 0 0 1 71.118 15.404 A 2.414 2.414 0 0 1 70.935 15.516 A 1.841 1.841 0 0 1 70.69 15.631 Q 70.554 15.683 70.426 15.701 A 1.006 1.006 0 0 1 70.335 15.711 A 0.269 0.269 0 0 1 70.281 15.706 Q 70.199 15.689 70.189 15.614 A 0.164 0.164 0 0 1 70.188 15.593 A 0.117 0.117 0 0 1 70.201 15.543 Q 70.219 15.504 70.266 15.459 A 0.659 0.659 0 0 1 70.305 15.425 Z M 149.019 15.425 A 1.671 1.671 0 0 0 149.597 14.766 A 1.877 1.877 0 0 0 149.791 14.057 A 1.809 1.809 0 0 0 149.795 13.938 A 2.555 2.555 0 0 0 149.743 13.406 Q 149.676 13.088 149.519 12.854 A 1.275 1.275 0 0 0 149.143 12.488 Q 148.491 12.07 147.173 12.056 A 122.988 122.988 0 0 1 146.926 12.052 Q 146.582 12.047 146.387 12.041 A 14.625 14.625 0 0 1 146.386 12.041 Q 146.211 12.036 145.968 12.016 A 15.516 15.516 0 0 1 145.715 11.993 A 4.308 4.308 0 0 1 145.501 11.967 Q 145.295 11.937 145.158 11.891 A 0.967 0.967 0 0 1 145.1 11.869 Q 144.895 11.785 144.664 11.642 A 0.835 0.835 0 0 1 144.461 11.468 A 0.729 0.729 0 0 1 144.342 11.268 A 1.225 1.225 0 0 1 144.275 11.023 Q 144.255 10.908 144.251 10.777 A 2.178 2.178 0 0 1 144.251 10.715 A 1.373 1.373 0 0 1 144.339 10.215 A 1.256 1.256 0 0 1 144.595 9.811 A 2.201 2.201 0 0 1 144.751 9.658 Q 144.997 9.441 145.188 9.441 A 0.19 0.19 0 0 1 145.24 9.448 Q 145.32 9.47 145.32 9.573 Q 145.32 9.624 145.237 9.834 A 5.249 5.249 0 0 1 145.236 9.836 A 1.355 1.355 0 0 0 145.181 10.003 Q 145.151 10.12 145.151 10.225 A 0.51 0.51 0 0 0 145.166 10.35 A 0.39 0.39 0 0 0 145.228 10.485 A 0.541 0.541 0 0 0 145.418 10.647 A 0.633 0.633 0 0 0 145.43 10.653 A 0.644 0.644 0 0 0 145.519 10.689 Q 145.613 10.72 145.747 10.739 A 2.312 2.312 0 0 0 145.792 10.745 Q 146.03 10.774 146.276 10.785 A 8.487 8.487 0 0 0 146.408 10.79 Q 146.59 10.795 146.835 10.796 A 26.842 26.842 0 0 0 146.917 10.796 A 23.226 23.226 0 0 1 147.331 10.799 Q 147.52 10.803 147.689 10.809 A 13.301 13.301 0 0 1 147.799 10.814 A 7.384 7.384 0 0 1 148.298 10.856 A 8.932 8.932 0 0 1 148.616 10.899 A 5.07 5.07 0 0 1 148.972 10.965 Q 149.187 11.014 149.366 11.078 A 2.927 2.927 0 0 1 149.913 11.341 A 3.29 3.29 0 0 1 149.989 11.389 A 1.913 1.913 0 0 1 150.332 11.671 A 1.662 1.662 0 0 1 150.483 11.854 Q 150.662 12.105 150.776 12.468 A 3.12 3.12 0 0 1 150.791 12.517 A 2.792 2.792 0 0 1 150.887 13.006 A 3.642 3.642 0 0 1 150.908 13.403 A 2.309 2.309 0 0 1 150.721 14.323 A 2.662 2.662 0 0 1 150.504 14.733 A 2.086 2.086 0 0 1 150.253 15.048 A 2.743 2.743 0 0 1 149.831 15.404 A 2.414 2.414 0 0 1 149.648 15.516 A 1.841 1.841 0 0 1 149.403 15.631 Q 149.267 15.683 149.139 15.701 A 1.006 1.006 0 0 1 149.048 15.711 A 0.269 0.269 0 0 1 148.994 15.706 Q 148.912 15.689 148.903 15.614 A 0.164 0.164 0 0 1 148.901 15.593 A 0.117 0.117 0 0 1 148.914 15.543 Q 148.933 15.504 148.979 15.459 A 0.659 0.659 0 0 1 149.019 15.425 Z M 37.674 7.268 A 0.363 0.363 0 0 0 37.683 7.192 Q 37.683 7.046 37.514 6.941 A 0.839 0.839 0 0 0 37.398 6.881 Q 37.112 6.76 36.841 6.76 A 0.603 0.603 0 0 0 36.577 6.82 Q 36.459 6.877 36.355 6.986 A 1.279 1.279 0 0 0 36.196 7.192 A 3.074 3.074 0 0 0 35.811 8.155 A 4.086 4.086 0 0 0 35.72 9.038 A 3.918 3.918 0 0 0 35.723 9.188 A 3.439 3.439 0 0 0 35.801 9.804 A 2.125 2.125 0 0 0 35.909 10.145 A 2.69 2.69 0 0 0 36.108 10.536 A 2.271 2.271 0 0 0 36.687 11.169 Q 36.907 11.334 37.221 11.462 A 3.988 3.988 0 0 0 37.632 11.602 Q 37.947 11.691 38.31 11.733 A 5.899 5.899 0 0 0 38.987 11.77 A 4.622 4.622 0 0 0 39.609 11.73 A 3.557 3.557 0 0 0 40.514 11.488 A 4.306 4.306 0 0 0 41.003 11.246 A 3.324 3.324 0 0 0 41.631 10.781 A 0.651 0.651 0 0 0 41.751 10.629 Q 41.865 10.429 41.865 10.122 Q 41.865 9.944 41.821 9.863 A 0.119 0.119 0 0 0 41.711 9.793 A 0.126 0.126 0 0 0 41.709 9.793 Q 41.653 9.794 41.552 9.844 A 1.366 1.366 0 0 0 41.484 9.88 Q 41.283 10.005 41.123 10.096 A 5.719 5.719 0 0 1 40.968 10.181 Q 40.759 10.291 40.316 10.43 A 3.269 3.269 0 0 1 40.144 10.479 A 2.81 2.81 0 0 1 39.448 10.569 A 4.306 4.306 0 0 1 38.874 10.533 Q 38.574 10.493 38.332 10.406 A 1.629 1.629 0 0 1 37.804 10.107 A 1.366 1.366 0 0 1 37.53 9.781 Q 37.385 9.542 37.322 9.229 A 2.709 2.709 0 0 1 37.273 8.694 A 2.273 2.273 0 0 1 37.326 8.207 A 2.681 2.681 0 0 1 37.551 7.581 A 2.469 2.469 0 0 0 37.607 7.462 Q 37.657 7.348 37.674 7.268 Z M 0 9.544 L 0 2.212 A 0.997 0.997 0 0 1 0.02 2.008 Q 0.046 1.881 0.108 1.783 A 0.58 0.58 0 0 1 0.154 1.721 A 1.558 1.558 0 0 1 0.377 1.506 Q 0.491 1.415 0.632 1.332 A 2.698 2.698 0 0 1 0.674 1.307 Q 0.968 1.141 1.168 1.123 A 0.53 0.53 0 0 1 1.216 1.121 Q 1.45 1.121 1.47 1.384 A 0.679 0.679 0 0 1 1.472 1.436 L 1.472 9.544 A 0.595 0.595 0 0 1 1.46 9.669 Q 1.444 9.742 1.408 9.794 A 0.282 0.282 0 0 1 1.293 9.891 Q 1.113 9.976 0.74 9.976 Q 0.33 9.976 0.165 9.891 Q 0.022 9.818 0.003 9.611 A 0.736 0.736 0 0 1 0 9.544 Z M 85.107 5.874 L 85.107 8.438 A 9.063 9.063 0 0 0 85.118 8.883 Q 85.128 9.1 85.15 9.287 A 4.306 4.306 0 0 0 85.181 9.503 A 3.359 3.359 0 0 0 85.244 9.801 Q 85.306 10.039 85.397 10.21 Q 85.534 10.471 85.739 10.589 A 0.712 0.712 0 0 0 85.756 10.598 A 0.952 0.952 0 0 0 86.056 10.699 A 1.272 1.272 0 0 0 86.265 10.715 Q 86.528 10.715 86.725 10.666 A 1.145 1.145 0 0 0 86.84 10.631 A 2.536 2.536 0 0 0 87.014 10.56 Q 87.1 10.522 87.171 10.481 A 1.341 1.341 0 0 0 87.224 10.448 A 3.693 3.693 0 0 0 87.332 10.376 Q 87.385 10.339 87.43 10.305 A 1.884 1.884 0 0 0 87.481 10.265 A 0.439 0.439 0 0 1 87.554 10.216 Q 87.62 10.181 87.686 10.181 Q 87.75 10.181 87.791 10.206 A 0.13 0.13 0 0 1 87.825 10.236 A 0.194 0.194 0 0 1 87.862 10.314 Q 87.868 10.342 87.869 10.374 A 0.346 0.346 0 0 1 87.869 10.378 A 0.446 0.446 0 0 1 87.861 10.457 Q 87.846 10.54 87.803 10.653 A 2.205 2.205 0 0 1 87.77 10.734 A 1.195 1.195 0 0 1 87.647 10.95 Q 87.561 11.073 87.437 11.195 A 1.73 1.73 0 0 1 87.169 11.408 Q 87.035 11.496 86.872 11.573 A 3.004 3.004 0 0 1 86.818 11.598 A 1.805 1.805 0 0 1 86.444 11.716 Q 86.263 11.753 86.052 11.765 A 3.56 3.56 0 0 1 85.855 11.77 Q 85.291 11.77 84.899 11.609 A 1.421 1.421 0 0 1 84.258 11.085 Q 84.009 10.723 83.899 10.14 Q 83.816 9.7 83.796 9.107 A 11.685 11.685 0 0 1 83.789 8.709 L 83.789 5.874 A 0.597 0.597 0 0 1 83.796 5.781 Q 83.811 5.687 83.859 5.629 Q 83.928 5.544 84.034 5.508 A 0.669 0.669 0 0 1 84.254 5.471 L 84.456 5.471 A 2.881 2.881 0 0 1 84.647 5.477 A 2.544 2.544 0 0 1 84.708 5.482 A 0.779 0.779 0 0 1 84.808 5.497 Q 84.868 5.511 84.917 5.534 Q 85.005 5.574 85.056 5.654 Q 85.096 5.717 85.105 5.814 A 0.655 0.655 0 0 1 85.107 5.874 Z M 103.726 5.874 L 103.726 8.438 A 9.063 9.063 0 0 0 103.736 8.883 Q 103.747 9.1 103.768 9.287 A 4.306 4.306 0 0 0 103.799 9.503 A 3.359 3.359 0 0 0 103.862 9.801 Q 103.925 10.039 104.015 10.21 Q 104.152 10.471 104.357 10.589 A 0.712 0.712 0 0 0 104.374 10.598 A 0.952 0.952 0 0 0 104.674 10.699 A 1.272 1.272 0 0 0 104.883 10.715 Q 105.146 10.715 105.343 10.666 A 1.145 1.145 0 0 0 105.458 10.631 A 2.536 2.536 0 0 0 105.633 10.56 Q 105.718 10.522 105.789 10.481 A 1.341 1.341 0 0 0 105.842 10.448 A 3.693 3.693 0 0 0 105.95 10.376 Q 106.003 10.339 106.048 10.305 A 1.884 1.884 0 0 0 106.099 10.265 A 0.439 0.439 0 0 1 106.172 10.216 Q 106.238 10.181 106.304 10.181 Q 106.368 10.181 106.409 10.206 A 0.13 0.13 0 0 1 106.443 10.236 A 0.194 0.194 0 0 1 106.48 10.314 Q 106.486 10.342 106.487 10.374 A 0.346 0.346 0 0 1 106.487 10.378 A 0.446 0.446 0 0 1 106.479 10.457 Q 106.464 10.54 106.421 10.653 A 2.205 2.205 0 0 1 106.388 10.734 A 1.195 1.195 0 0 1 106.266 10.95 Q 106.179 11.073 106.055 11.195 A 1.73 1.73 0 0 1 105.788 11.408 Q 105.653 11.496 105.49 11.573 A 3.004 3.004 0 0 1 105.436 11.598 A 1.805 1.805 0 0 1 105.062 11.716 Q 104.881 11.753 104.67 11.765 A 3.56 3.56 0 0 1 104.473 11.77 Q 103.909 11.77 103.517 11.609 A 1.421 1.421 0 0 1 102.876 11.085 Q 102.627 10.723 102.517 10.14 Q 102.434 9.7 102.414 9.107 A 11.685 11.685 0 0 1 102.407 8.709 L 102.407 5.874 A 0.597 0.597 0 0 1 102.414 5.781 Q 102.429 5.687 102.477 5.629 Q 102.546 5.544 102.653 5.508 A 0.669 0.669 0 0 1 102.872 5.471 L 103.074 5.471 A 2.881 2.881 0 0 1 103.265 5.477 A 2.544 2.544 0 0 1 103.326 5.482 A 0.779 0.779 0 0 1 103.426 5.497 Q 103.486 5.511 103.535 5.534 Q 103.623 5.574 103.674 5.654 Q 103.714 5.717 103.723 5.814 A 0.655 0.655 0 0 1 103.726 5.874 Z M 80.53 9.88 A 2.256 2.256 0 0 0 80.496 9.475 Q 80.409 9.002 80.101 8.76 A 1.632 1.632 0 0 0 79.682 8.526 Q 79.489 8.451 79.256 8.405 A 3.727 3.727 0 0 0 78.867 8.35 Q 78.259 8.293 77.796 8.156 A 3.714 3.714 0 0 1 77.644 8.108 Q 77.265 7.978 77.01 7.806 A 1.588 1.588 0 0 1 76.846 7.68 A 1.871 1.871 0 0 1 76.613 7.435 A 1.399 1.399 0 0 1 76.432 7.138 A 1.518 1.518 0 0 1 76.304 6.553 A 1.748 1.748 0 0 1 76.304 6.511 A 0.663 0.663 0 0 1 76.452 6.097 Q 76.522 6.007 76.625 5.923 A 1.376 1.376 0 0 1 76.655 5.9 Q 76.955 5.672 77.175 5.638 A 0.487 0.487 0 0 1 77.249 5.632 A 0.196 0.196 0 0 1 77.42 5.727 Q 77.444 5.763 77.461 5.812 A 0.588 0.588 0 0 1 77.476 5.859 A 4.986 4.986 0 0 0 77.52 6.035 Q 77.543 6.12 77.567 6.193 A 2.372 2.372 0 0 0 77.596 6.277 Q 77.659 6.445 77.772 6.574 A 1.472 1.472 0 0 0 77.879 6.682 Q 77.939 6.738 77.999 6.779 A 0.63 0.63 0 0 0 78.082 6.825 Q 78.172 6.868 78.306 6.906 A 2.473 2.473 0 0 0 78.351 6.918 A 5.655 5.655 0 0 0 78.64 6.986 A 4.751 4.751 0 0 0 78.805 7.017 A 7.742 7.742 0 0 0 78.925 7.036 Q 79.06 7.057 79.245 7.081 A 30.84 30.84 0 0 0 79.424 7.105 A 4.603 4.603 0 0 1 79.928 7.195 Q 80.25 7.273 80.508 7.394 A 2.21 2.21 0 0 1 80.829 7.576 Q 81.045 7.725 81.182 7.91 Q 81.409 8.218 81.504 8.547 A 2.346 2.346 0 0 1 81.578 8.922 A 3.161 3.161 0 0 1 81.599 9.294 A 2.58 2.58 0 0 1 81.442 10.192 Q 81.308 10.557 81.123 10.805 A 1.645 1.645 0 0 1 81.057 10.888 A 2.738 2.738 0 0 1 80.843 11.114 Q 80.724 11.225 80.604 11.307 A 1.676 1.676 0 0 1 80.596 11.312 Q 80.364 11.468 80.19 11.47 A 0.394 0.394 0 0 1 80.186 11.47 A 0.181 0.181 0 0 1 80.14 11.465 Q 80.082 11.449 80.071 11.39 A 0.165 0.165 0 0 1 80.068 11.36 A 0.077 0.077 0 0 1 80.073 11.337 Q 80.092 11.28 80.186 11.14 A 2.316 2.316 0 0 0 80.527 10.011 A 2.792 2.792 0 0 0 80.53 9.88 Z M 7.925 7.5 A 20.269 20.269 0 0 0 7.928 7.864 Q 7.931 8.043 7.938 8.199 A 10.039 10.039 0 0 0 7.947 8.379 A 7.719 7.719 0 0 0 8.002 8.945 A 8.802 8.802 0 0 0 8.031 9.141 Q 8.08 9.451 8.169 9.68 A 1.625 1.625 0 0 0 8.221 9.8 A 2.14 2.14 0 0 0 8.544 10.283 A 1.141 1.141 0 0 0 8.962 10.58 A 1.373 1.373 0 0 0 9.038 10.609 A 1.768 1.768 0 0 0 9.364 10.689 Q 9.518 10.712 9.691 10.715 A 2.984 2.984 0 0 0 9.741 10.715 A 2.113 2.113 0 0 0 10.036 10.696 Q 10.193 10.674 10.328 10.627 A 1.307 1.307 0 0 0 10.346 10.62 Q 10.563 10.541 10.624 10.528 A 0.095 0.095 0 0 1 10.642 10.525 Q 10.765 10.525 10.79 10.627 A 0.25 0.25 0 0 1 10.796 10.686 A 0.557 0.557 0 0 1 10.73 10.94 Q 10.638 11.119 10.422 11.311 A 2.542 2.542 0 0 1 10.324 11.393 A 1.713 1.713 0 0 1 9.464 11.751 A 2.271 2.271 0 0 1 9.163 11.77 A 3.224 3.224 0 0 1 8.619 11.726 A 2.335 2.335 0 0 1 8.053 11.558 A 2.332 2.332 0 0 1 7.627 11.312 A 1.859 1.859 0 0 1 7.295 11.001 A 2.297 2.297 0 0 1 7.016 10.572 A 3.14 3.14 0 0 1 6.837 10.137 A 5.128 5.128 0 0 1 6.606 9.089 A 9.124 9.124 0 0 1 6.563 8.546 Q 6.548 8.239 6.548 7.896 A 4.276 4.276 0 0 1 6.582 7.366 A 5.116 5.116 0 0 1 6.621 7.108 A 3.397 3.397 0 0 1 6.672 6.869 Q 6.733 6.626 6.819 6.475 A 1.188 1.188 0 0 1 7.004 6.237 Q 7.1 6.14 7.226 6.05 A 2.227 2.227 0 0 1 7.313 5.991 A 2.022 2.022 0 0 1 7.497 5.885 Q 7.722 5.772 7.896 5.772 A 0.216 0.216 0 0 1 7.975 5.785 Q 8.069 5.822 8.078 5.961 A 0.473 0.473 0 0 1 8.079 5.991 A 0.207 0.207 0 0 1 8.077 6.008 Q 8.069 6.094 8.002 6.555 A 8.109 8.109 0 0 0 7.949 6.996 Q 7.929 7.215 7.926 7.411 A 4.724 4.724 0 0 0 7.925 7.5 Z M 111.877 7.5 A 20.269 20.269 0 0 0 111.881 7.864 Q 111.884 8.043 111.89 8.199 A 10.039 10.039 0 0 0 111.899 8.379 A 7.719 7.719 0 0 0 111.955 8.945 A 8.802 8.802 0 0 0 111.984 9.141 Q 112.033 9.451 112.122 9.68 A 1.625 1.625 0 0 0 112.174 9.8 A 2.14 2.14 0 0 0 112.496 10.283 A 1.141 1.141 0 0 0 112.915 10.58 A 1.373 1.373 0 0 0 112.991 10.609 A 1.768 1.768 0 0 0 113.317 10.689 Q 113.471 10.712 113.644 10.715 A 2.984 2.984 0 0 0 113.694 10.715 A 2.113 2.113 0 0 0 113.989 10.696 Q 114.145 10.674 114.28 10.627 A 1.307 1.307 0 0 0 114.298 10.62 Q 114.516 10.541 114.577 10.528 A 0.095 0.095 0 0 1 114.595 10.525 Q 114.717 10.525 114.742 10.627 A 0.25 0.25 0 0 1 114.749 10.686 A 0.557 0.557 0 0 1 114.682 10.94 Q 114.591 11.119 114.374 11.311 A 2.542 2.542 0 0 1 114.276 11.393 A 1.713 1.713 0 0 1 113.416 11.751 A 2.271 2.271 0 0 1 113.115 11.77 A 3.224 3.224 0 0 1 112.572 11.726 A 2.335 2.335 0 0 1 112.006 11.558 A 2.332 2.332 0 0 1 111.58 11.312 A 1.859 1.859 0 0 1 111.248 11.001 A 2.297 2.297 0 0 1 110.969 10.572 A 3.14 3.14 0 0 1 110.79 10.137 A 5.128 5.128 0 0 1 110.559 9.089 A 9.124 9.124 0 0 1 110.516 8.546 Q 110.501 8.239 110.501 7.896 A 4.276 4.276 0 0 1 110.535 7.366 A 5.116 5.116 0 0 1 110.574 7.108 A 3.397 3.397 0 0 1 110.625 6.869 Q 110.686 6.626 110.772 6.475 A 1.188 1.188 0 0 1 110.957 6.237 Q 111.053 6.14 111.179 6.05 A 2.227 2.227 0 0 1 111.266 5.991 A 2.022 2.022 0 0 1 111.45 5.885 Q 111.674 5.772 111.848 5.772 A 0.216 0.216 0 0 1 111.927 5.785 Q 112.021 5.822 112.03 5.961 A 0.473 0.473 0 0 1 112.031 5.991 A 0.207 0.207 0 0 1 112.03 6.008 Q 112.022 6.094 111.954 6.555 A 8.109 8.109 0 0 0 111.902 6.996 Q 111.882 7.215 111.878 7.411 A 4.724 4.724 0 0 0 111.877 7.5 Z M 23.738 4.131 L 23.738 10.671 Q 23.738 10.92 23.633 11.087 A 0.581 0.581 0 0 1 23.606 11.126 A 1.52 1.52 0 0 1 23.156 11.481 A 1.404 1.404 0 0 1 22.966 11.563 Q 22.861 11.6 22.763 11.611 A 0.756 0.756 0 0 1 22.676 11.616 Q 22.442 11.616 22.421 11.353 A 0.679 0.679 0 0 1 22.419 11.301 L 22.419 4.761 A 0.955 0.955 0 0 1 22.437 4.575 Q 22.458 4.465 22.508 4.378 A 0.542 0.542 0 0 1 22.551 4.314 A 1.572 1.572 0 0 1 23.002 3.955 A 1.385 1.385 0 0 1 23.191 3.87 Q 23.296 3.833 23.394 3.821 A 0.736 0.736 0 0 1 23.481 3.816 Q 23.716 3.816 23.736 4.079 A 0.679 0.679 0 0 1 23.738 4.131 Z M 74.802 4.131 L 74.802 10.671 Q 74.802 10.92 74.697 11.087 A 0.581 0.581 0 0 1 74.67 11.126 A 1.52 1.52 0 0 1 74.22 11.481 A 1.404 1.404 0 0 1 74.031 11.563 Q 73.925 11.6 73.828 11.611 A 0.756 0.756 0 0 1 73.74 11.616 Q 73.506 11.616 73.486 11.353 A 0.679 0.679 0 0 1 73.484 11.301 L 73.484 4.761 A 0.955 0.955 0 0 1 73.501 4.575 Q 73.523 4.465 73.573 4.378 A 0.542 0.542 0 0 1 73.616 4.314 A 1.572 1.572 0 0 1 74.066 3.955 A 1.385 1.385 0 0 1 74.256 3.87 Q 74.361 3.833 74.459 3.821 A 0.736 0.736 0 0 1 74.546 3.816 Q 74.78 3.816 74.8 4.079 A 0.679 0.679 0 0 1 74.802 4.131 Z M 108.926 4.131 L 108.926 10.671 Q 108.926 10.92 108.821 11.087 A 0.581 0.581 0 0 1 108.794 11.126 A 1.52 1.52 0 0 1 108.344 11.481 A 1.404 1.404 0 0 1 108.154 11.563 Q 108.049 11.6 107.951 11.611 A 0.756 0.756 0 0 1 107.864 11.616 Q 107.63 11.616 107.609 11.353 A 0.679 0.679 0 0 1 107.607 11.301 L 107.607 4.761 A 0.955 0.955 0 0 1 107.624 4.575 Q 107.646 4.465 107.696 4.378 A 0.542 0.542 0 0 1 107.739 4.314 A 1.572 1.572 0 0 1 108.19 3.955 A 1.385 1.385 0 0 1 108.379 3.87 Q 108.484 3.833 108.582 3.821 A 0.736 0.736 0 0 1 108.669 3.816 Q 108.904 3.816 108.924 4.079 A 0.679 0.679 0 0 1 108.926 4.131 Z M 43.543 7.339 L 43.543 8.438 A 9.063 9.063 0 0 0 43.553 8.883 Q 43.564 9.1 43.585 9.287 A 4.306 4.306 0 0 0 43.616 9.503 A 3.359 3.359 0 0 0 43.679 9.801 Q 43.741 10.039 43.832 10.21 Q 43.969 10.471 44.174 10.589 A 0.712 0.712 0 0 0 44.191 10.598 A 0.952 0.952 0 0 0 44.491 10.699 A 1.272 1.272 0 0 0 44.7 10.715 Q 44.963 10.715 45.16 10.666 A 1.145 1.145 0 0 0 45.275 10.631 A 2.536 2.536 0 0 0 45.449 10.56 Q 45.535 10.522 45.606 10.481 A 1.341 1.341 0 0 0 45.659 10.448 A 3.693 3.693 0 0 0 45.767 10.376 Q 45.82 10.339 45.865 10.305 A 1.884 1.884 0 0 0 45.916 10.265 A 0.439 0.439 0 0 1 45.989 10.216 Q 46.055 10.181 46.121 10.181 Q 46.185 10.181 46.226 10.206 A 0.13 0.13 0 0 1 46.26 10.236 A 0.194 0.194 0 0 1 46.297 10.314 Q 46.303 10.342 46.304 10.374 A 0.346 0.346 0 0 1 46.304 10.378 A 0.446 0.446 0 0 1 46.296 10.457 Q 46.281 10.54 46.238 10.653 A 2.205 2.205 0 0 1 46.205 10.734 A 1.195 1.195 0 0 1 46.082 10.95 Q 45.996 11.073 45.872 11.195 A 1.73 1.73 0 0 1 45.605 11.408 Q 45.47 11.496 45.307 11.573 A 3.004 3.004 0 0 1 45.253 11.598 A 1.805 1.805 0 0 1 44.879 11.716 Q 44.698 11.753 44.487 11.765 A 3.56 3.56 0 0 1 44.29 11.77 Q 43.726 11.77 43.334 11.609 A 1.421 1.421 0 0 1 42.693 11.085 Q 42.444 10.723 42.334 10.14 Q 42.251 9.7 42.231 9.107 A 11.685 11.685 0 0 1 42.224 8.709 L 42.224 7.339 A 0.597 0.597 0 0 1 42.231 7.246 Q 42.246 7.152 42.294 7.094 Q 42.363 7.009 42.47 6.973 A 0.669 0.669 0 0 1 42.689 6.936 L 42.891 6.936 A 2.881 2.881 0 0 1 43.082 6.942 A 2.544 2.544 0 0 1 43.143 6.947 A 0.779 0.779 0 0 1 43.243 6.962 Q 43.303 6.976 43.352 6.998 Q 43.44 7.039 43.491 7.119 Q 43.531 7.182 43.54 7.279 A 0.655 0.655 0 0 1 43.543 7.339 Z M 41.843 5.75 L 41.843 6.167 Q 41.843 6.296 41.803 6.385 A 0.323 0.323 0 0 1 41.763 6.453 A 0.224 0.224 0 0 1 41.675 6.518 Q 41.601 6.551 41.484 6.555 A 0.944 0.944 0 0 1 41.455 6.555 L 38.906 6.555 Q 38.259 6.555 37.751 6.477 A 5.019 5.019 0 0 1 37.588 6.449 Q 37.218 6.379 36.95 6.283 A 2.107 2.107 0 0 1 36.698 6.174 A 1.813 1.813 0 0 1 36.396 5.98 A 1.437 1.437 0 0 1 36.174 5.761 A 1.716 1.716 0 0 1 36.037 5.565 Q 35.952 5.422 35.914 5.284 A 1.785 1.785 0 0 1 35.862 4.986 A 2.255 2.255 0 0 1 35.852 4.775 A 1.313 1.313 0 0 1 35.916 4.364 A 1.224 1.224 0 0 1 35.918 4.358 A 1.066 1.066 0 0 1 36.074 4.06 Q 36.157 3.946 36.275 3.836 A 2.095 2.095 0 0 1 36.365 3.757 A 1.839 1.839 0 0 1 36.553 3.619 Q 36.785 3.472 36.98 3.472 Q 37.112 3.472 37.181 3.527 A 0.142 0.142 0 0 1 37.221 3.579 Q 37.244 3.628 37.25 3.709 A 0.762 0.762 0 0 1 37.251 3.757 A 3.756 3.756 0 0 0 37.262 4.059 Q 37.274 4.2 37.297 4.321 A 1.724 1.724 0 0 0 37.339 4.497 A 1.349 1.349 0 0 0 37.485 4.825 A 1.176 1.176 0 0 0 37.614 4.995 Q 37.8 5.2 38.156 5.31 A 3.375 3.375 0 0 0 38.514 5.399 Q 38.732 5.441 38.983 5.464 Q 39.456 5.508 40.181 5.508 L 41.682 5.508 A 0.148 0.148 0 0 1 41.767 5.531 Q 41.824 5.57 41.839 5.674 A 0.558 0.558 0 0 1 41.843 5.75 Z M 19.592 4.329 L 20.984 4.329 A 0.505 0.505 0 0 1 21.067 4.335 Q 21.218 4.36 21.218 4.49 A 0.317 0.317 0 0 1 21.193 4.608 Q 21.141 4.736 20.984 4.896 A 1.757 1.757 0 0 1 20.801 5.059 Q 20.698 5.138 20.596 5.188 A 0.944 0.944 0 0 1 20.515 5.222 A 1.185 1.185 0 0 1 20.329 5.274 Q 20.001 5.339 19.38 5.339 Q 18.653 5.339 18.236 5.226 A 1.583 1.583 0 0 1 18.069 5.171 A 5.158 5.158 0 0 0 17.522 4.988 Q 17.251 4.915 17.006 4.887 A 2.55 2.55 0 0 0 16.721 4.871 A 1.946 1.946 0 0 0 16.489 4.886 Q 16.239 4.916 15.908 5.006 A 3.129 3.129 0 0 0 15.342 5.224 A 4.182 4.182 0 0 0 14.89 5.486 A 7.338 7.338 0 0 1 14.821 5.534 Q 14.634 5.662 14.569 5.685 A 0.073 0.073 0 0 1 14.546 5.691 A 0.149 0.149 0 0 1 14.497 5.684 Q 14.431 5.661 14.429 5.567 A 0.283 0.283 0 0 1 14.429 5.559 A 0.238 0.238 0 0 1 14.441 5.491 Q 14.476 5.374 14.619 5.171 Q 14.898 4.761 15.249 4.471 A 2.776 2.776 0 0 1 15.615 4.215 A 2.158 2.158 0 0 1 15.963 4.05 A 4.792 4.792 0 0 1 16.268 3.95 Q 16.42 3.906 16.559 3.879 A 2.772 2.772 0 0 1 16.622 3.867 Q 16.919 3.816 17.212 3.816 A 4.083 4.083 0 0 1 18.823 4.146 Q 19.158 4.287 19.436 4.319 A 1.37 1.37 0 0 0 19.592 4.329 Z M 70.657 4.329 L 72.048 4.329 A 0.505 0.505 0 0 1 72.131 4.335 Q 72.283 4.36 72.283 4.49 A 0.317 0.317 0 0 1 72.258 4.608 Q 72.206 4.736 72.048 4.896 A 1.757 1.757 0 0 1 71.865 5.059 Q 71.763 5.138 71.66 5.188 A 0.944 0.944 0 0 1 71.58 5.222 A 1.185 1.185 0 0 1 71.393 5.274 Q 71.065 5.339 70.444 5.339 Q 69.717 5.339 69.301 5.226 A 1.583 1.583 0 0 1 69.133 5.171 A 5.158 5.158 0 0 0 68.587 4.988 Q 68.315 4.915 68.07 4.887 A 2.55 2.55 0 0 0 67.786 4.871 A 1.946 1.946 0 0 0 67.553 4.886 Q 67.303 4.916 66.973 5.006 A 3.129 3.129 0 0 0 66.406 5.224 A 4.182 4.182 0 0 0 65.955 5.486 A 7.338 7.338 0 0 1 65.885 5.534 Q 65.698 5.662 65.634 5.685 A 0.073 0.073 0 0 1 65.61 5.691 A 0.149 0.149 0 0 1 65.562 5.684 Q 65.496 5.661 65.493 5.567 A 0.283 0.283 0 0 1 65.493 5.559 A 0.238 0.238 0 0 1 65.505 5.491 Q 65.541 5.374 65.684 5.171 Q 65.962 4.761 66.314 4.471 A 2.776 2.776 0 0 1 66.679 4.215 A 2.158 2.158 0 0 1 67.028 4.05 A 4.792 4.792 0 0 1 67.332 3.95 Q 67.485 3.906 67.624 3.879 A 2.772 2.772 0 0 1 67.687 3.867 Q 67.983 3.816 68.276 3.816 A 4.083 4.083 0 0 1 69.888 4.146 Q 70.223 4.287 70.5 4.319 A 1.37 1.37 0 0 0 70.657 4.329 Z M 149.37 4.329 L 150.762 4.329 A 0.505 0.505 0 0 1 150.844 4.335 Q 150.996 4.36 150.996 4.49 A 0.317 0.317 0 0 1 150.971 4.608 Q 150.919 4.736 150.762 4.896 A 1.757 1.757 0 0 1 150.579 5.059 Q 150.476 5.138 150.373 5.188 A 0.944 0.944 0 0 1 150.293 5.222 A 1.185 1.185 0 0 1 150.107 5.274 Q 149.778 5.339 149.158 5.339 Q 148.431 5.339 148.014 5.226 A 1.583 1.583 0 0 1 147.847 5.171 A 5.158 5.158 0 0 0 147.3 4.988 Q 147.028 4.915 146.783 4.887 A 2.55 2.55 0 0 0 146.499 4.871 A 1.946 1.946 0 0 0 146.267 4.886 Q 146.017 4.916 145.686 5.006 A 3.129 3.129 0 0 0 145.12 5.224 A 4.182 4.182 0 0 0 144.668 5.486 A 7.338 7.338 0 0 1 144.599 5.534 Q 144.412 5.662 144.347 5.685 A 0.073 0.073 0 0 1 144.324 5.691 A 0.149 0.149 0 0 1 144.275 5.684 Q 144.209 5.661 144.207 5.567 A 0.283 0.283 0 0 1 144.207 5.559 A 0.238 0.238 0 0 1 144.218 5.491 Q 144.254 5.374 144.397 5.171 Q 144.675 4.761 145.027 4.471 A 2.776 2.776 0 0 1 145.392 4.215 A 2.158 2.158 0 0 1 145.741 4.05 A 4.792 4.792 0 0 1 146.046 3.95 Q 146.198 3.906 146.337 3.879 A 2.772 2.772 0 0 1 146.4 3.867 Q 146.697 3.816 146.99 3.816 A 4.083 4.083 0 0 1 148.601 4.146 Q 148.936 4.287 149.214 4.319 A 1.37 1.37 0 0 0 149.37 4.329 Z M 58.953 8.54 L 59.583 8.54 Q 59.744 8.54 59.824 8.593 A 0.186 0.186 0 0 1 59.85 8.613 A 0.224 0.224 0 0 1 59.889 8.667 Q 59.923 8.726 59.948 8.827 A 1.583 1.583 0 0 1 59.971 8.935 A 2.925 2.925 0 0 0 60.19 9.693 Q 60.578 10.54 61.509 10.685 A 2.654 2.654 0 0 0 61.919 10.715 A 3.016 3.016 0 0 0 62.487 10.664 A 2.642 2.642 0 0 0 62.703 10.613 Q 63.069 10.51 63.27 10.386 Q 63.472 10.261 63.644 10.159 Q 63.813 10.058 63.894 10.056 A 0.131 0.131 0 0 1 63.897 10.056 A 0.221 0.221 0 0 1 63.966 10.066 Q 64.037 10.09 64.057 10.169 A 0.288 0.288 0 0 1 64.065 10.239 A 0.377 0.377 0 0 1 64.049 10.344 Q 64.012 10.469 63.897 10.635 A 2.004 2.004 0 0 1 63.729 10.842 Q 63.638 10.941 63.525 11.043 A 3.911 3.911 0 0 1 63.417 11.137 A 1.962 1.962 0 0 1 63.125 11.336 Q 62.884 11.472 62.56 11.583 A 3.501 3.501 0 0 1 61.671 11.76 A 4.141 4.141 0 0 1 61.377 11.77 Q 60.059 11.77 59.33 10.975 A 2.725 2.725 0 0 1 58.653 9.557 A 3.787 3.787 0 0 1 58.601 8.921 A 0.598 0.598 0 0 1 58.617 8.775 Q 58.665 8.585 58.855 8.549 A 0.52 0.52 0 0 1 58.953 8.54 Z M 152.38 8.54 L 153.01 8.54 Q 153.172 8.54 153.252 8.593 A 0.186 0.186 0 0 1 153.278 8.613 A 0.224 0.224 0 0 1 153.317 8.667 Q 153.35 8.726 153.376 8.827 A 1.583 1.583 0 0 1 153.398 8.935 A 2.925 2.925 0 0 0 153.618 9.693 Q 154.006 10.54 154.937 10.685 A 2.654 2.654 0 0 0 155.347 10.715 A 3.016 3.016 0 0 0 155.914 10.664 A 2.642 2.642 0 0 0 156.13 10.613 Q 156.497 10.51 156.698 10.386 Q 156.899 10.261 157.072 10.159 Q 157.241 10.058 157.321 10.056 A 0.131 0.131 0 0 1 157.324 10.056 A 0.221 0.221 0 0 1 157.393 10.066 Q 157.465 10.09 157.485 10.169 A 0.288 0.288 0 0 1 157.493 10.239 A 0.377 0.377 0 0 1 157.476 10.344 Q 157.44 10.469 157.324 10.635 A 2.004 2.004 0 0 1 157.157 10.842 Q 157.066 10.941 156.952 11.043 A 3.911 3.911 0 0 1 156.845 11.137 A 1.962 1.962 0 0 1 156.553 11.336 Q 156.312 11.472 155.988 11.583 A 3.501 3.501 0 0 1 155.098 11.76 A 4.141 4.141 0 0 1 154.805 11.77 Q 153.486 11.77 152.758 10.975 A 2.725 2.725 0 0 1 152.08 9.557 A 3.787 3.787 0 0 1 152.029 8.921 A 0.598 0.598 0 0 1 152.045 8.775 Q 152.093 8.585 152.283 8.549 A 0.52 0.52 0 0 1 152.38 8.54 Z M 129.28 7.214 L 129.28 3.311 A 0.595 0.595 0 0 1 129.292 3.185 Q 129.308 3.112 129.344 3.06 A 0.282 0.282 0 0 1 129.459 2.963 Q 129.639 2.878 130.012 2.878 Q 130.422 2.878 130.587 2.963 Q 130.73 3.036 130.749 3.243 A 0.736 0.736 0 0 1 130.752 3.311 L 130.752 6.365 Q 130.752 6.634 130.956 6.673 A 0.398 0.398 0 0 0 131.03 6.68 L 132.253 6.68 A 0.81 0.81 0 0 1 132.36 6.686 Q 132.477 6.702 132.528 6.755 A 0.149 0.149 0 0 1 132.568 6.863 Q 132.568 7.003 132.367 7.177 A 1.721 1.721 0 0 1 132.25 7.269 Q 131.975 7.469 131.566 7.61 A 4.053 4.053 0 0 1 131.433 7.654 A 1.212 1.212 0 0 1 131.259 7.69 Q 130.959 7.735 130.336 7.746 A 24.906 24.906 0 0 1 129.91 7.749 Q 129.536 7.749 129.408 7.617 A 0.408 0.408 0 0 1 129.317 7.465 Q 129.28 7.359 129.28 7.214 Z M 14.348 13.35 A 2.286 2.286 0 0 0 14.231 14.092 A 1.887 1.887 0 0 0 14.235 14.211 A 1.549 1.549 0 0 0 14.469 14.952 Q 14.707 15.33 15.088 15.542 A 3.351 3.351 0 0 0 15.875 15.861 A 3.503 3.503 0 0 0 15.926 15.874 A 3.144 3.144 0 0 0 16.677 15.967 A 4.973 4.973 0 0 0 17.13 15.947 A 4.025 4.025 0 0 0 17.824 15.824 Q 18.151 15.735 18.392 15.621 A 1.936 1.936 0 0 0 18.651 15.476 A 3.226 3.226 0 0 0 18.78 15.385 Q 18.881 15.309 18.963 15.234 A 1.593 1.593 0 0 0 19.12 15.07 A 1.354 1.354 0 0 0 19.148 15.034 Q 19.232 14.924 19.264 14.832 A 0.333 0.333 0 0 0 19.285 14.722 Q 19.285 14.619 19.205 14.596 A 0.19 0.19 0 0 0 19.153 14.59 A 0.016 0.016 0 0 0 19.15 14.591 Q 19.129 14.596 18.975 14.652 A 37.61 37.61 0 0 0 18.922 14.67 Q 18.699 14.751 18.318 14.832 Q 17.937 14.912 17.564 14.912 A 4.812 4.812 0 0 1 17.193 14.898 Q 16.43 14.839 15.934 14.528 A 1.698 1.698 0 0 1 15.832 14.458 Q 15.597 14.286 15.47 14.061 A 1.2 1.2 0 0 1 15.322 13.462 A 3.823 3.823 0 0 1 15.323 13.411 A 3.445 3.445 0 0 1 15.392 12.759 A 44.442 44.442 0 0 0 15.408 12.679 Q 15.461 12.419 15.461 12.4 A 0.228 0.228 0 0 0 15.456 12.347 Q 15.44 12.28 15.378 12.261 A 0.19 0.19 0 0 0 15.322 12.253 A 0.302 0.302 0 0 0 15.308 12.254 Q 15.027 12.267 14.634 12.803 A 2.024 2.024 0 0 0 14.348 13.35 Z M 65.413 13.35 A 2.286 2.286 0 0 0 65.295 14.092 A 1.887 1.887 0 0 0 65.299 14.211 A 1.549 1.549 0 0 0 65.533 14.952 Q 65.772 15.33 66.152 15.542 A 3.351 3.351 0 0 0 66.94 15.861 A 3.503 3.503 0 0 0 66.991 15.874 A 3.144 3.144 0 0 0 67.742 15.967 A 4.973 4.973 0 0 0 68.195 15.947 A 4.025 4.025 0 0 0 68.888 15.824 Q 69.215 15.735 69.457 15.621 A 1.936 1.936 0 0 0 69.716 15.476 A 3.226 3.226 0 0 0 69.844 15.385 Q 69.945 15.309 70.028 15.234 A 1.593 1.593 0 0 0 70.184 15.07 A 1.354 1.354 0 0 0 70.212 15.034 Q 70.296 14.924 70.329 14.832 A 0.333 0.333 0 0 0 70.349 14.722 Q 70.349 14.619 70.269 14.596 A 0.19 0.19 0 0 0 70.217 14.59 A 0.016 0.016 0 0 0 70.214 14.591 Q 70.194 14.596 70.039 14.652 A 37.61 37.61 0 0 0 69.987 14.67 Q 69.763 14.751 69.382 14.832 Q 69.002 14.912 68.628 14.912 A 4.812 4.812 0 0 1 68.257 14.898 Q 67.494 14.839 66.998 14.528 A 1.698 1.698 0 0 1 66.896 14.458 Q 66.661 14.286 66.535 14.061 A 1.2 1.2 0 0 1 66.387 13.462 A 3.823 3.823 0 0 1 66.387 13.411 A 3.445 3.445 0 0 1 66.456 12.759 A 44.442 44.442 0 0 0 66.473 12.679 Q 66.526 12.419 66.526 12.4 A 0.228 0.228 0 0 0 66.52 12.347 Q 66.504 12.28 66.443 12.261 A 0.19 0.19 0 0 0 66.387 12.253 A 0.302 0.302 0 0 0 66.372 12.254 Q 66.091 12.267 65.698 12.803 A 2.024 2.024 0 0 0 65.413 13.35 Z M 144.126 13.35 A 2.286 2.286 0 0 0 144.009 14.092 A 1.887 1.887 0 0 0 144.013 14.211 A 1.549 1.549 0 0 0 144.247 14.952 Q 144.485 15.33 144.866 15.542 A 3.351 3.351 0 0 0 145.653 15.861 A 3.503 3.503 0 0 0 145.704 15.874 A 3.144 3.144 0 0 0 146.455 15.967 A 4.973 4.973 0 0 0 146.908 15.947 A 4.025 4.025 0 0 0 147.601 15.824 Q 147.929 15.735 148.17 15.621 A 1.936 1.936 0 0 0 148.429 15.476 A 3.226 3.226 0 0 0 148.557 15.385 Q 148.659 15.309 148.741 15.234 A 1.593 1.593 0 0 0 148.898 15.07 A 1.354 1.354 0 0 0 148.926 15.034 Q 149.01 14.924 149.042 14.832 A 0.333 0.333 0 0 0 149.063 14.722 Q 149.063 14.619 148.983 14.596 A 0.19 0.19 0 0 0 148.931 14.59 A 0.016 0.016 0 0 0 148.928 14.591 Q 148.907 14.596 148.752 14.652 A 37.61 37.61 0 0 0 148.7 14.67 Q 148.477 14.751 148.096 14.832 Q 147.715 14.912 147.341 14.912 A 4.812 4.812 0 0 1 146.97 14.898 Q 146.207 14.839 145.712 14.528 A 1.698 1.698 0 0 1 145.61 14.458 Q 145.375 14.286 145.248 14.061 A 1.2 1.2 0 0 1 145.1 13.462 A 3.823 3.823 0 0 1 145.1 13.411 A 3.445 3.445 0 0 1 145.17 12.759 A 44.442 44.442 0 0 0 145.186 12.679 Q 145.239 12.419 145.239 12.4 A 0.228 0.228 0 0 0 145.234 12.347 Q 145.218 12.28 145.156 12.261 A 0.19 0.19 0 0 0 145.1 12.253 A 0.302 0.302 0 0 0 145.086 12.254 Q 144.804 12.267 144.412 12.803 A 2.024 2.024 0 0 0 144.126 13.35 Z M 41.393 2.483 A 1.9 1.9 0 0 0 41.42 2.462 Q 41.77 2.187 41.77 1.912 A 0.392 0.392 0 0 0 41.69 1.679 Q 41.643 1.614 41.569 1.553 A 1.186 1.186 0 0 0 41.415 1.447 A 2.437 2.437 0 0 0 41.096 1.29 A 2.984 2.984 0 0 0 40.598 1.139 A 4.773 4.773 0 0 0 40.233 1.075 A 3.756 3.756 0 0 0 39.734 1.04 Q 39.013 1.04 38.43 1.159 A 3.977 3.977 0 0 0 37.606 1.417 A 3.804 3.804 0 0 0 36.888 1.838 A 4.558 4.558 0 0 0 36.094 2.6 A 2.042 2.042 0 0 0 36.035 2.677 Q 35.937 2.811 35.83 2.996 Q 35.691 3.237 35.691 3.355 A 0.36 0.36 0 0 0 35.691 3.356 Q 35.691 3.49 35.786 3.521 A 0.211 0.211 0 0 0 35.852 3.53 A 0.072 0.072 0 0 0 35.858 3.53 Q 35.966 3.521 36.35 3.201 Q 36.674 2.931 36.985 2.741 A 3.644 3.644 0 0 1 37.518 2.468 Q 37.838 2.339 38.225 2.283 A 4.382 4.382 0 0 1 38.848 2.241 A 2.023 2.023 0 0 1 39.108 2.258 A 2.361 2.361 0 0 1 39.584 2.373 A 10.945 10.945 0 0 1 39.942 2.505 A 8.142 8.142 0 0 1 40.261 2.637 Q 40.469 2.728 40.617 2.756 A 0.65 0.65 0 0 0 40.737 2.769 A 0.568 0.568 0 0 0 40.783 2.767 Q 40.966 2.752 41.189 2.621 A 2.119 2.119 0 0 0 41.393 2.483 Z M 50.544 6.826 L 50.544 3.311 A 0.595 0.595 0 0 1 50.557 3.185 Q 50.572 3.112 50.608 3.06 A 0.282 0.282 0 0 1 50.724 2.963 Q 50.903 2.878 51.277 2.878 Q 51.687 2.878 51.852 2.963 Q 51.995 3.036 52.014 3.243 A 0.736 0.736 0 0 1 52.017 3.311 L 52.017 5.977 Q 52.017 6.246 52.221 6.285 A 0.398 0.398 0 0 0 52.295 6.292 L 53.577 6.292 A 0.81 0.81 0 0 1 53.684 6.298 Q 53.8 6.314 53.851 6.367 A 0.149 0.149 0 0 1 53.892 6.475 A 0.237 0.237 0 0 1 53.858 6.59 Q 53.784 6.723 53.547 6.881 A 2.643 2.643 0 0 1 53.176 7.087 Q 52.986 7.174 52.763 7.245 A 4.522 4.522 0 0 1 52.698 7.266 A 1.212 1.212 0 0 1 52.524 7.302 Q 52.224 7.347 51.601 7.358 A 24.906 24.906 0 0 1 51.174 7.361 Q 50.801 7.361 50.673 7.229 A 0.408 0.408 0 0 1 50.581 7.076 Q 50.544 6.971 50.544 6.826 Z M 89.004 6.16 L 89.004 4.739 A 0.756 0.756 0 0 1 89.262 4.165 A 1.126 1.126 0 0 1 89.366 4.08 A 1.65 1.65 0 0 1 89.622 3.925 Q 89.778 3.85 89.928 3.827 A 0.891 0.891 0 0 1 90.066 3.816 Q 90.3 3.816 90.32 4.079 A 0.679 0.679 0 0 1 90.322 4.131 L 90.322 4.541 A 0.809 0.809 0 0 0 90.326 4.618 Q 90.341 4.775 90.425 4.775 Q 90.496 4.775 90.641 4.639 A 1.888 1.888 0 0 0 90.681 4.6 A 3.983 3.983 0 0 1 91.109 4.225 Q 91.656 3.816 92.153 3.816 A 2.136 2.136 0 0 1 92.677 3.884 A 2.778 2.778 0 0 1 93.029 3.999 A 1.363 1.363 0 0 1 93.213 4.088 Q 93.486 4.249 93.486 4.475 A 0.419 0.419 0 0 1 93.436 4.669 Q 93.361 4.812 93.179 4.962 Q 92.896 5.195 92.675 5.213 A 0.453 0.453 0 0 1 92.637 5.215 A 0.612 0.612 0 0 1 92.507 5.199 Q 92.378 5.171 92.204 5.092 A 3.092 3.092 0 0 1 92.08 5.032 A 1.933 1.933 0 0 0 91.836 4.934 Q 91.7 4.89 91.576 4.877 A 1.027 1.027 0 0 0 91.465 4.871 A 1.037 1.037 0 0 0 91.128 4.926 A 0.93 0.93 0 0 0 91.006 4.978 Q 90.944 5.01 90.877 5.053 A 2.256 2.256 0 0 0 90.754 5.138 A 11.714 11.714 0 0 0 90.653 5.214 Q 90.513 5.32 90.413 5.403 A 4.062 4.062 0 0 0 90.407 5.409 Q 90.271 5.523 89.945 5.826 Q 89.696 6.059 89.53 6.208 A 12.175 12.175 0 0 1 89.436 6.292 Q 89.307 6.403 89.211 6.425 A 0.204 0.204 0 0 1 89.165 6.431 A 0.133 0.133 0 0 1 89.038 6.351 Q 89.008 6.291 89.004 6.188 A 0.841 0.841 0 0 1 89.004 6.16 Z M 43.543 3.435 L 43.543 5.12 A 0.785 0.785 0 0 0 43.549 5.224 Q 43.568 5.367 43.645 5.427 Q 43.729 5.493 43.867 5.505 A 0.738 0.738 0 0 0 43.931 5.508 L 45.894 5.508 A 0.584 0.584 0 0 1 45.981 5.514 Q 46.093 5.531 46.131 5.597 A 0.158 0.158 0 0 1 46.15 5.676 A 0.337 0.337 0 0 1 46.126 5.795 Q 46.086 5.9 45.981 6.029 A 1.832 1.832 0 0 1 45.905 6.116 A 1.82 1.82 0 0 1 45.729 6.283 Q 45.572 6.411 45.418 6.467 A 0.923 0.923 0 0 1 45.277 6.506 Q 45.042 6.553 44.616 6.555 A 8.166 8.166 0 0 1 44.575 6.555 L 42.612 6.555 Q 42.483 6.555 42.394 6.515 A 0.323 0.323 0 0 1 42.327 6.475 A 0.224 0.224 0 0 1 42.261 6.387 Q 42.228 6.313 42.225 6.196 A 0.944 0.944 0 0 1 42.224 6.167 L 42.224 4.043 A 0.763 0.763 0 0 1 42.489 3.456 A 1.095 1.095 0 0 1 42.583 3.38 A 1.589 1.589 0 0 1 42.849 3.222 Q 43.071 3.12 43.286 3.12 Q 43.52 3.12 43.541 3.383 A 0.679 0.679 0 0 1 43.543 3.435 Z M 14.863 5.943 A 1.674 1.674 0 0 0 14.744 6.035 Q 14.494 6.259 14.422 6.676 A 2.172 2.172 0 0 0 14.392 7.046 A 3.292 3.292 0 0 0 14.419 7.474 A 2.477 2.477 0 0 0 14.531 7.961 Q 14.599 8.157 14.687 8.316 A 1.562 1.562 0 0 0 14.898 8.613 A 1.862 1.862 0 0 0 14.912 8.629 A 1.952 1.952 0 0 0 15.439 9.027 A 2.707 2.707 0 0 0 15.538 9.076 A 2.371 2.371 0 0 0 16.077 9.258 A 3.1 3.1 0 0 0 16.158 9.273 A 3.397 3.397 0 0 0 16.751 9.324 A 3.252 3.252 0 0 0 17.031 9.312 Q 17.287 9.29 17.501 9.226 A 1.528 1.528 0 0 0 17.999 8.976 Q 18.45 8.628 18.45 8.335 A 0.332 0.332 0 0 0 18.449 8.309 Q 18.441 8.216 18.38 8.191 A 0.142 0.142 0 0 0 18.325 8.181 A 0.065 0.065 0 0 0 18.321 8.181 Q 18.265 8.185 18.032 8.28 A 1.098 1.098 0 0 1 17.941 8.313 Q 17.829 8.347 17.697 8.364 A 2.08 2.08 0 0 1 17.439 8.379 A 5.068 5.068 0 0 1 17.372 8.379 Q 17.171 8.376 17.011 8.357 Q 16.888 8.343 16.732 8.295 A 2.924 2.924 0 0 1 16.56 8.236 A 1.387 1.387 0 0 1 16.404 8.167 A 1.104 1.104 0 0 1 16.124 7.961 Q 16.01 7.845 15.915 7.652 A 2.228 2.228 0 0 1 15.824 7.438 A 1.728 1.728 0 0 1 15.798 7.362 Q 15.745 7.194 15.72 6.999 A 2.975 2.975 0 0 1 15.696 6.614 A 4.059 4.059 0 0 1 15.699 6.445 A 4.939 4.939 0 0 1 15.721 6.145 Q 15.742 5.943 15.746 5.866 A 0.588 0.588 0 0 0 15.747 5.837 A 0.459 0.459 0 0 0 15.747 5.828 Q 15.744 5.674 15.635 5.637 A 0.244 0.244 0 0 0 15.557 5.625 A 0.389 0.389 0 0 0 15.506 5.629 Q 15.409 5.641 15.279 5.7 A 1.828 1.828 0 0 0 15.147 5.768 A 3.85 3.85 0 0 0 14.994 5.858 Q 14.923 5.901 14.863 5.943 Z M 65.928 5.943 A 1.674 1.674 0 0 0 65.808 6.035 Q 65.558 6.259 65.486 6.676 A 2.172 2.172 0 0 0 65.457 7.046 A 3.292 3.292 0 0 0 65.483 7.474 A 2.477 2.477 0 0 0 65.596 7.961 Q 65.663 8.157 65.751 8.316 A 1.562 1.562 0 0 0 65.962 8.613 A 1.862 1.862 0 0 0 65.976 8.629 A 1.952 1.952 0 0 0 66.504 9.027 A 2.707 2.707 0 0 0 66.603 9.076 A 2.371 2.371 0 0 0 67.141 9.258 A 3.1 3.1 0 0 0 67.222 9.273 A 3.397 3.397 0 0 0 67.815 9.324 A 3.252 3.252 0 0 0 68.095 9.312 Q 68.351 9.29 68.565 9.226 A 1.528 1.528 0 0 0 69.064 8.976 Q 69.514 8.628 69.514 8.335 A 0.332 0.332 0 0 0 69.513 8.309 Q 69.506 8.216 69.444 8.191 A 0.142 0.142 0 0 0 69.39 8.181 A 0.065 0.065 0 0 0 69.386 8.181 Q 69.329 8.185 69.097 8.28 A 1.098 1.098 0 0 1 69.006 8.313 Q 68.894 8.347 68.761 8.364 A 2.08 2.08 0 0 1 68.503 8.379 A 5.068 5.068 0 0 1 68.437 8.379 Q 68.235 8.376 68.075 8.357 Q 67.952 8.343 67.797 8.295 A 2.924 2.924 0 0 1 67.625 8.236 A 1.387 1.387 0 0 1 67.469 8.167 A 1.104 1.104 0 0 1 67.189 7.961 Q 67.074 7.845 66.98 7.652 A 2.228 2.228 0 0 1 66.888 7.438 A 1.728 1.728 0 0 1 66.863 7.362 Q 66.809 7.194 66.784 6.999 A 2.975 2.975 0 0 1 66.76 6.614 A 4.059 4.059 0 0 1 66.764 6.445 A 4.939 4.939 0 0 1 66.786 6.145 Q 66.807 5.943 66.811 5.866 A 0.588 0.588 0 0 0 66.812 5.837 A 0.459 0.459 0 0 0 66.811 5.828 Q 66.808 5.674 66.7 5.637 A 0.244 0.244 0 0 0 66.621 5.625 A 0.389 0.389 0 0 0 66.57 5.629 Q 66.473 5.641 66.344 5.7 A 1.828 1.828 0 0 0 66.211 5.768 A 3.85 3.85 0 0 0 66.058 5.858 Q 65.987 5.901 65.928 5.943 Z M 144.641 5.943 A 1.674 1.674 0 0 0 144.522 6.035 Q 144.272 6.259 144.199 6.676 A 2.172 2.172 0 0 0 144.17 7.046 A 3.292 3.292 0 0 0 144.197 7.474 A 2.477 2.477 0 0 0 144.309 7.961 Q 144.377 8.157 144.465 8.316 A 1.562 1.562 0 0 0 144.675 8.613 A 1.862 1.862 0 0 0 144.69 8.629 A 1.952 1.952 0 0 0 145.217 9.027 A 2.707 2.707 0 0 0 145.316 9.076 A 2.371 2.371 0 0 0 145.855 9.258 A 3.1 3.1 0 0 0 145.936 9.273 A 3.397 3.397 0 0 0 146.528 9.324 A 3.252 3.252 0 0 0 146.808 9.312 Q 147.065 9.29 147.278 9.226 A 1.528 1.528 0 0 0 147.777 8.976 Q 148.228 8.628 148.228 8.335 A 0.332 0.332 0 0 0 148.227 8.309 Q 148.219 8.216 148.158 8.191 A 0.142 0.142 0 0 0 148.103 8.181 A 0.065 0.065 0 0 0 148.099 8.181 Q 148.043 8.185 147.81 8.28 A 1.098 1.098 0 0 1 147.719 8.313 Q 147.607 8.347 147.475 8.364 A 2.08 2.08 0 0 1 147.217 8.379 A 5.068 5.068 0 0 1 147.15 8.379 Q 146.949 8.376 146.788 8.357 Q 146.666 8.343 146.51 8.295 A 2.924 2.924 0 0 1 146.338 8.236 A 1.387 1.387 0 0 1 146.182 8.167 A 1.104 1.104 0 0 1 145.902 7.961 Q 145.788 7.845 145.693 7.652 A 2.228 2.228 0 0 1 145.602 7.438 A 1.728 1.728 0 0 1 145.576 7.362 Q 145.523 7.194 145.497 6.999 A 2.975 2.975 0 0 1 145.474 6.614 A 4.059 4.059 0 0 1 145.477 6.445 A 4.939 4.939 0 0 1 145.499 6.145 Q 145.52 5.943 145.524 5.866 A 0.588 0.588 0 0 0 145.525 5.837 A 0.459 0.459 0 0 0 145.525 5.828 Q 145.522 5.674 145.413 5.637 A 0.244 0.244 0 0 0 145.335 5.625 A 0.389 0.389 0 0 0 145.283 5.629 Q 145.187 5.641 145.057 5.7 A 1.828 1.828 0 0 0 144.924 5.768 A 3.85 3.85 0 0 0 144.771 5.858 Q 144.701 5.901 144.641 5.943 Z M 0.3 10.342 L 5.266 10.342 Q 5.575 10.342 5.581 10.561 A 0.318 0.318 0 0 1 5.581 10.569 Q 5.581 10.661 5.459 10.89 A 3.466 3.466 0 0 1 5.431 10.942 A 1.983 1.983 0 0 1 5.247 11.22 A 1.609 1.609 0 0 1 5.083 11.397 A 0.468 0.468 0 0 1 4.933 11.485 Q 4.798 11.537 4.594 11.542 A 1.806 1.806 0 0 1 4.548 11.543 L 0.3 11.543 A 0.411 0.411 0 0 1 0.18 11.527 Q 0.047 11.486 0.012 11.343 A 0.488 0.488 0 0 1 0 11.228 L 0 10.657 A 0.477 0.477 0 0 1 0.014 10.534 Q 0.056 10.377 0.22 10.348 A 0.463 0.463 0 0 1 0.3 10.342 Z M 25.554 11.301 L 25.554 7.361 A 1.364 1.364 0 0 1 25.575 7.118 Q 25.599 6.982 25.653 6.876 A 0.666 0.666 0 0 1 25.752 6.731 A 2.26 2.26 0 0 1 26.138 6.382 A 2.572 2.572 0 0 1 26.221 6.325 Q 26.492 6.145 26.646 6.145 A 0.228 0.228 0 0 1 26.754 6.169 Q 26.873 6.232 26.873 6.46 L 26.873 10.671 A 0.784 0.784 0 0 1 26.605 11.266 A 1.153 1.153 0 0 1 26.51 11.345 Q 26.233 11.552 25.971 11.601 A 0.874 0.874 0 0 1 25.811 11.616 Q 25.576 11.616 25.556 11.353 A 0.679 0.679 0 0 1 25.554 11.301 Z M 118.499 11.301 L 118.499 7.361 A 1.364 1.364 0 0 1 118.519 7.118 Q 118.543 6.982 118.598 6.876 A 0.666 0.666 0 0 1 118.696 6.731 A 2.26 2.26 0 0 1 119.082 6.382 A 2.572 2.572 0 0 1 119.165 6.325 Q 119.436 6.145 119.59 6.145 A 0.228 0.228 0 0 1 119.698 6.169 Q 119.817 6.232 119.817 6.46 L 119.817 10.671 A 0.784 0.784 0 0 1 119.55 11.266 A 1.153 1.153 0 0 1 119.454 11.345 Q 119.177 11.552 118.915 11.601 A 0.874 0.874 0 0 1 118.755 11.616 Q 118.521 11.616 118.5 11.353 A 0.679 0.679 0 0 1 118.499 11.301 Z M 89.004 11.301 L 89.004 7.61 A 1.364 1.364 0 0 1 89.024 7.367 Q 89.049 7.231 89.103 7.125 A 0.666 0.666 0 0 1 89.202 6.98 A 2.425 2.425 0 0 1 89.563 6.644 A 2.802 2.802 0 0 1 89.67 6.566 Q 89.881 6.421 90.021 6.389 A 0.332 0.332 0 0 1 90.095 6.379 A 0.228 0.228 0 0 1 90.204 6.404 Q 90.322 6.467 90.322 6.694 L 90.322 10.693 A 0.763 0.763 0 0 1 90.057 11.28 A 1.095 1.095 0 0 1 89.963 11.356 A 1.589 1.589 0 0 1 89.697 11.514 Q 89.476 11.616 89.26 11.616 Q 89.026 11.616 89.006 11.353 A 0.679 0.679 0 0 1 89.004 11.301 Z M 85.107 2.71 L 85.107 3.655 A 0.785 0.785 0 0 0 85.114 3.759 Q 85.133 3.902 85.21 3.962 Q 85.294 4.028 85.431 4.04 A 0.738 0.738 0 0 0 85.496 4.043 L 87.459 4.043 A 0.584 0.584 0 0 1 87.546 4.049 Q 87.658 4.066 87.696 4.132 A 0.158 0.158 0 0 1 87.715 4.211 A 0.337 0.337 0 0 1 87.691 4.33 Q 87.651 4.435 87.546 4.564 A 1.832 1.832 0 0 1 87.47 4.651 A 1.82 1.82 0 0 1 87.294 4.818 Q 87.137 4.946 86.982 5.003 A 0.923 0.923 0 0 1 86.842 5.041 Q 86.607 5.088 86.181 5.09 A 8.166 8.166 0 0 1 86.14 5.09 L 84.177 5.09 Q 84.048 5.09 83.959 5.05 A 0.323 0.323 0 0 1 83.892 5.01 A 0.224 0.224 0 0 1 83.826 4.922 Q 83.793 4.848 83.79 4.731 A 0.944 0.944 0 0 1 83.789 4.702 L 83.789 3.318 A 0.763 0.763 0 0 1 84.054 2.731 A 1.095 1.095 0 0 1 84.148 2.655 A 1.589 1.589 0 0 1 84.414 2.497 Q 84.636 2.395 84.851 2.395 Q 85.085 2.395 85.106 2.658 A 0.679 0.679 0 0 1 85.107 2.71 Z M 103.726 2.71 L 103.726 3.655 A 0.785 0.785 0 0 0 103.732 3.759 Q 103.751 3.902 103.828 3.962 Q 103.912 4.028 104.05 4.04 A 0.738 0.738 0 0 0 104.114 4.043 L 106.077 4.043 A 0.584 0.584 0 0 1 106.164 4.049 Q 106.276 4.066 106.314 4.132 A 0.158 0.158 0 0 1 106.333 4.211 A 0.337 0.337 0 0 1 106.309 4.33 Q 106.269 4.435 106.164 4.564 A 1.832 1.832 0 0 1 106.088 4.651 A 1.82 1.82 0 0 1 105.912 4.818 Q 105.755 4.946 105.601 5.003 A 0.923 0.923 0 0 1 105.46 5.041 Q 105.225 5.088 104.8 5.09 A 8.166 8.166 0 0 1 104.758 5.09 L 102.795 5.09 Q 102.666 5.09 102.577 5.05 A 0.323 0.323 0 0 1 102.51 5.01 A 0.224 0.224 0 0 1 102.444 4.922 Q 102.411 4.848 102.408 4.731 A 0.944 0.944 0 0 1 102.407 4.702 L 102.407 3.318 A 0.763 0.763 0 0 1 102.672 2.731 A 1.095 1.095 0 0 1 102.766 2.655 A 1.589 1.589 0 0 1 103.033 2.497 Q 103.254 2.395 103.469 2.395 Q 103.704 2.395 103.724 2.658 A 0.679 0.679 0 0 1 103.726 2.71 Z M 97.613 11.435 A 2.254 2.254 0 0 0 98.042 11.133 Q 98.171 11.014 98.212 10.822 A 0.951 0.951 0 0 0 98.232 10.62 A 1.31 1.31 0 0 0 98.232 10.589 Q 98.229 10.447 98.193 10.389 A 0.072 0.072 0 0 0 98.13 10.349 Q 98.08 10.349 97.992 10.395 A 1.092 1.092 0 0 0 97.932 10.43 Q 97.809 10.504 97.655 10.561 A 2.356 2.356 0 0 1 97.398 10.638 Q 97.201 10.687 97.041 10.705 A 1.595 1.595 0 0 1 96.863 10.715 Q 96.13 10.715 95.845 10.338 Q 95.637 10.064 95.58 9.548 A 3.876 3.876 0 0 1 95.559 9.126 A 0.412 0.412 0 0 0 95.557 9.087 Q 95.549 8.999 95.501 8.95 A 0.235 0.235 0 0 0 95.499 8.948 A 0.19 0.19 0 0 0 95.361 8.892 A 0.494 0.494 0 0 0 95.317 8.894 Q 95.155 8.908 94.957 9.029 A 1.891 1.891 0 0 0 94.775 9.155 A 0.906 0.906 0 0 0 94.446 9.641 A 1.255 1.255 0 0 0 94.402 9.983 A 2.189 2.189 0 0 0 94.402 10.006 A 1.724 1.724 0 0 0 94.918 11.254 A 1.555 1.555 0 0 0 95.216 11.486 Q 95.687 11.77 96.409 11.77 A 2.103 2.103 0 0 0 96.815 11.729 A 2.668 2.668 0 0 0 97.28 11.591 A 2.912 2.912 0 0 0 97.613 11.435 Z M 140.203 11.435 A 2.254 2.254 0 0 0 140.632 11.133 Q 140.761 11.014 140.803 10.822 A 0.951 0.951 0 0 0 140.823 10.62 A 1.31 1.31 0 0 0 140.822 10.589 Q 140.819 10.447 140.784 10.389 A 0.072 0.072 0 0 0 140.72 10.349 Q 140.67 10.349 140.582 10.395 A 1.092 1.092 0 0 0 140.523 10.43 Q 140.399 10.504 140.245 10.561 A 2.356 2.356 0 0 1 139.988 10.638 Q 139.791 10.687 139.631 10.705 A 1.595 1.595 0 0 1 139.453 10.715 Q 138.721 10.715 138.435 10.338 Q 138.228 10.064 138.171 9.548 A 3.876 3.876 0 0 1 138.149 9.126 A 0.412 0.412 0 0 0 138.148 9.087 Q 138.139 8.999 138.091 8.95 A 0.235 0.235 0 0 0 138.089 8.948 A 0.19 0.19 0 0 0 137.952 8.892 A 0.494 0.494 0 0 0 137.908 8.894 Q 137.745 8.908 137.547 9.029 A 1.891 1.891 0 0 0 137.366 9.155 A 0.906 0.906 0 0 0 137.036 9.641 A 1.255 1.255 0 0 0 136.992 9.983 A 2.189 2.189 0 0 0 136.992 10.006 A 1.724 1.724 0 0 0 137.509 11.254 A 1.555 1.555 0 0 0 137.806 11.486 Q 138.277 11.77 138.999 11.77 A 2.103 2.103 0 0 0 139.405 11.729 A 2.668 2.668 0 0 0 139.871 11.591 A 2.912 2.912 0 0 0 140.203 11.435 Z M 81.113 4.328 A 0.969 0.969 0 0 0 81.013 4.241 A 1.251 1.251 0 0 0 80.836 4.127 Q 80.718 4.063 80.571 4.012 A 2.834 2.834 0 0 0 80.266 3.926 A 4.724 4.724 0 0 0 80.146 3.9 A 4.197 4.197 0 0 0 79.321 3.816 A 4.609 4.609 0 0 0 78.667 3.861 A 3.153 3.153 0 0 0 76.604 4.988 Q 76.377 5.274 76.377 5.435 A 0.269 0.269 0 0 0 76.378 5.453 Q 76.383 5.531 76.435 5.551 A 0.119 0.119 0 0 0 76.48 5.559 A 0.088 0.088 0 0 0 76.488 5.559 Q 76.511 5.557 76.542 5.542 A 0.349 0.349 0 0 0 76.571 5.526 A 3.304 3.304 0 0 0 76.599 5.509 Q 76.632 5.489 76.674 5.462 A 10.904 10.904 0 0 0 76.718 5.435 A 6.763 6.763 0 0 1 76.758 5.409 Q 76.801 5.382 76.832 5.363 A 1.721 1.721 0 0 1 76.86 5.347 Q 77.644 4.871 78.677 4.871 A 2.292 2.292 0 0 1 78.908 4.883 Q 79.151 4.907 79.418 4.982 A 4.407 4.407 0 0 1 79.915 5.156 A 0.605 0.605 0 0 1 79.944 5.166 Q 79.994 5.183 80.079 5.219 A 4.372 4.372 0 0 0 80.13 5.239 Q 80.207 5.27 80.252 5.284 A 0.385 0.385 0 0 0 80.312 5.298 A 0.504 0.504 0 0 0 80.383 5.303 A 0.468 0.468 0 0 0 80.396 5.303 Q 80.64 5.296 80.936 5.035 Q 81.146 4.851 81.211 4.707 A 0.298 0.298 0 0 0 81.24 4.585 A 0.255 0.255 0 0 0 81.237 4.544 Q 81.22 4.438 81.113 4.328 Z M 98.08 7.244 A 0.489 0.489 0 0 0 97.983 7.178 A 2.068 2.068 0 0 0 97.494 7.007 A 2.633 2.633 0 0 0 96.936 6.951 A 3.437 3.437 0 0 0 96.768 6.955 A 2.886 2.886 0 0 0 95.526 7.291 A 2.578 2.578 0 0 0 95.225 7.481 A 2.674 2.674 0 0 0 94.504 8.284 A 1.366 1.366 0 0 0 94.459 8.364 Q 94.358 8.56 94.358 8.731 A 0.283 0.283 0 0 0 94.358 8.738 Q 94.361 8.832 94.427 8.855 A 0.149 0.149 0 0 0 94.475 8.862 A 0.13 0.13 0 0 0 94.514 8.855 Q 94.589 8.831 94.729 8.727 A 3.112 3.112 0 0 0 94.819 8.657 A 3.419 3.419 0 0 1 95.244 8.365 A 2.538 2.538 0 0 1 96.533 8.005 A 2.224 2.224 0 0 1 96.761 8.017 Q 97.228 8.066 97.778 8.306 A 1.349 1.349 0 0 0 97.828 8.327 Q 97.939 8.372 98.005 8.372 A 0.238 0.238 0 0 0 98.011 8.372 Q 98.131 8.369 98.178 8.243 A 0.508 0.508 0 0 0 98.196 8.178 Q 98.225 8.05 98.225 7.822 A 4.109 4.109 0 0 0 98.225 7.8 Q 98.223 7.489 98.174 7.372 A 0.355 0.355 0 0 0 98.08 7.244 Z M 140.671 7.244 A 0.489 0.489 0 0 0 140.574 7.178 A 2.068 2.068 0 0 0 140.084 7.007 A 2.633 2.633 0 0 0 139.526 6.951 A 3.437 3.437 0 0 0 139.358 6.955 A 2.886 2.886 0 0 0 138.116 7.291 A 2.578 2.578 0 0 0 137.815 7.481 A 2.674 2.674 0 0 0 137.095 8.284 A 1.366 1.366 0 0 0 137.05 8.364 Q 136.948 8.56 136.948 8.731 A 0.283 0.283 0 0 0 136.948 8.738 Q 136.951 8.832 137.017 8.855 A 0.149 0.149 0 0 0 137.065 8.862 A 0.13 0.13 0 0 0 137.105 8.855 Q 137.179 8.831 137.32 8.727 A 3.112 3.112 0 0 0 137.41 8.657 A 3.419 3.419 0 0 1 137.835 8.365 A 2.538 2.538 0 0 1 139.124 8.005 A 2.224 2.224 0 0 1 139.352 8.017 Q 139.818 8.066 140.369 8.306 A 1.349 1.349 0 0 0 140.418 8.327 Q 140.529 8.372 140.596 8.372 A 0.238 0.238 0 0 0 140.601 8.372 Q 140.721 8.369 140.768 8.243 A 0.508 0.508 0 0 0 140.787 8.178 Q 140.815 8.05 140.815 7.822 A 4.109 4.109 0 0 0 140.815 7.8 Q 140.814 7.489 140.764 7.372 A 0.355 0.355 0 0 0 140.671 7.244 Z M 52.017 8.254 L 52.017 10.525 Q 52.017 10.884 51.863 11.06 A 1.294 1.294 0 0 1 51.658 11.254 Q 51.553 11.336 51.422 11.408 A 2.333 2.333 0 0 1 51.346 11.448 A 2.35 2.35 0 0 1 51.169 11.529 Q 50.985 11.603 50.848 11.614 A 0.587 0.587 0 0 1 50.801 11.616 Q 50.567 11.616 50.546 11.353 A 0.679 0.679 0 0 1 50.544 11.301 L 50.544 8.254 A 0.574 0.574 0 0 1 50.559 8.121 A 0.324 0.324 0 0 1 50.731 7.896 A 0.688 0.688 0 0 1 50.866 7.845 Q 51.011 7.807 51.221 7.801 A 2.724 2.724 0 0 1 51.292 7.8 A 2.806 2.806 0 0 1 51.478 7.806 Q 51.656 7.818 51.768 7.855 A 0.471 0.471 0 0 1 51.856 7.892 Q 51.99 7.968 52.012 8.169 A 0.772 0.772 0 0 1 52.017 8.254 Z M 130.752 8.643 L 130.752 10.525 Q 130.752 10.884 130.598 11.06 A 1.294 1.294 0 0 1 130.394 11.254 Q 130.288 11.336 130.157 11.408 A 2.333 2.333 0 0 1 130.082 11.448 A 2.35 2.35 0 0 1 129.904 11.529 Q 129.721 11.603 129.583 11.614 A 0.587 0.587 0 0 1 129.536 11.616 Q 129.302 11.616 129.282 11.353 A 0.679 0.679 0 0 1 129.28 11.301 L 129.28 8.643 A 0.574 0.574 0 0 1 129.294 8.509 A 0.324 0.324 0 0 1 129.467 8.284 A 0.688 0.688 0 0 1 129.602 8.234 Q 129.746 8.195 129.956 8.189 A 2.724 2.724 0 0 1 130.027 8.189 A 2.806 2.806 0 0 1 130.213 8.194 Q 130.391 8.206 130.504 8.243 A 0.471 0.471 0 0 1 130.591 8.28 Q 130.725 8.356 130.748 8.557 A 0.772 0.772 0 0 1 130.752 8.643 Z M 20.09 5.881 A 0.351 0.351 0 0 0 19.972 5.793 Q 19.792 5.706 19.431 5.706 A 4.941 4.941 0 0 0 19.341 5.706 Q 19.121 5.71 18.995 5.735 A 1.551 1.551 0 0 0 18.943 5.746 Q 18.868 5.763 18.837 5.781 A 0.064 0.064 0 0 0 18.82 5.794 A 0.1 0.1 0 0 0 18.799 5.831 A 0.124 0.124 0 0 0 18.794 5.867 A 0.082 0.082 0 0 0 18.796 5.885 Q 18.802 5.908 18.819 5.938 A 0.486 0.486 0 0 0 18.838 5.969 A 1.138 1.138 0 0 1 18.92 6.114 Q 18.969 6.215 19.008 6.34 A 2.542 2.542 0 0 1 19.072 6.592 A 6.396 6.396 0 0 1 19.079 6.627 Q 19.153 6.998 19.153 7.236 A 3.176 3.176 0 0 1 19.142 7.508 A 2.565 2.565 0 0 1 19.072 7.925 Q 19.017 8.141 18.955 8.283 A 0.986 0.986 0 0 1 18.897 8.397 A 22.518 22.518 0 0 1 18.805 8.547 A 16.812 16.812 0 0 1 18.721 8.683 A 1.528 1.528 0 0 0 18.707 8.705 Q 18.64 8.816 18.64 8.862 Q 18.64 8.965 18.72 8.988 A 0.19 0.19 0 0 0 18.772 8.994 A 0.213 0.213 0 0 0 18.802 8.992 Q 18.964 8.969 19.281 8.709 A 4 4 0 0 0 19.401 8.606 Q 19.662 8.374 19.812 8.152 A 2.758 2.758 0 0 0 20.273 6.621 Q 20.273 6.297 20.198 6.085 A 0.715 0.715 0 0 0 20.09 5.881 Z M 71.155 5.881 A 0.351 0.351 0 0 0 71.036 5.793 Q 70.857 5.706 70.496 5.706 A 4.941 4.941 0 0 0 70.405 5.706 Q 70.185 5.71 70.06 5.735 A 1.551 1.551 0 0 0 70.008 5.746 Q 69.933 5.763 69.901 5.781 A 0.064 0.064 0 0 0 69.884 5.794 A 0.1 0.1 0 0 0 69.863 5.831 A 0.124 0.124 0 0 0 69.858 5.867 A 0.082 0.082 0 0 0 69.861 5.885 Q 69.866 5.908 69.883 5.938 A 0.486 0.486 0 0 0 69.902 5.969 A 1.138 1.138 0 0 1 69.985 6.114 Q 70.034 6.215 70.073 6.34 A 2.542 2.542 0 0 1 70.137 6.592 A 6.396 6.396 0 0 1 70.144 6.627 Q 70.217 6.998 70.217 7.236 A 3.176 3.176 0 0 1 70.206 7.508 A 2.565 2.565 0 0 1 70.137 7.925 Q 70.081 8.141 70.019 8.283 A 0.986 0.986 0 0 1 69.961 8.397 A 22.518 22.518 0 0 1 69.869 8.547 A 16.812 16.812 0 0 1 69.785 8.683 A 1.528 1.528 0 0 0 69.772 8.705 Q 69.705 8.816 69.705 8.862 Q 69.705 8.965 69.784 8.988 A 0.19 0.19 0 0 0 69.836 8.994 A 0.213 0.213 0 0 0 69.866 8.992 Q 70.028 8.969 70.346 8.709 A 4 4 0 0 0 70.466 8.606 Q 70.726 8.374 70.877 8.152 A 2.758 2.758 0 0 0 71.338 6.621 Q 71.338 6.297 71.263 6.085 A 0.715 0.715 0 0 0 71.155 5.881 Z M 149.868 5.881 A 0.351 0.351 0 0 0 149.749 5.793 Q 149.57 5.706 149.209 5.706 A 4.941 4.941 0 0 0 149.119 5.706 Q 148.899 5.71 148.773 5.735 A 1.551 1.551 0 0 0 148.721 5.746 Q 148.646 5.763 148.615 5.781 A 0.064 0.064 0 0 0 148.597 5.794 A 0.1 0.1 0 0 0 148.577 5.831 A 0.124 0.124 0 0 0 148.572 5.867 A 0.082 0.082 0 0 0 148.574 5.885 Q 148.579 5.908 148.597 5.938 A 0.486 0.486 0 0 0 148.616 5.969 A 1.138 1.138 0 0 1 148.698 6.114 Q 148.747 6.215 148.786 6.34 A 2.542 2.542 0 0 1 148.85 6.592 A 6.396 6.396 0 0 1 148.857 6.627 Q 148.931 6.998 148.931 7.236 A 3.176 3.176 0 0 1 148.919 7.508 A 2.565 2.565 0 0 1 148.85 7.925 Q 148.795 8.141 148.732 8.283 A 0.986 0.986 0 0 1 148.674 8.397 A 22.518 22.518 0 0 1 148.583 8.547 A 16.812 16.812 0 0 1 148.499 8.683 A 1.528 1.528 0 0 0 148.485 8.705 Q 148.418 8.816 148.418 8.862 Q 148.418 8.965 148.498 8.988 A 0.19 0.19 0 0 0 148.55 8.994 A 0.213 0.213 0 0 0 148.58 8.992 Q 148.742 8.969 149.059 8.709 A 4 4 0 0 0 149.179 8.606 Q 149.44 8.374 149.59 8.152 A 2.758 2.758 0 0 0 150.051 6.621 Q 150.051 6.297 149.976 6.085 A 0.715 0.715 0 0 0 149.868 5.881 Z M 77.695 10.342 A 35.211 35.211 0 0 0 77.8 10.405 Q 77.959 10.5 78.029 10.54 A 0.616 0.616 0 0 0 78.087 10.568 Q 78.15 10.595 78.246 10.624 A 3.53 3.53 0 0 0 78.344 10.653 A 1.714 1.714 0 0 0 78.697 10.712 A 2.014 2.014 0 0 0 78.823 10.715 A 2.191 2.191 0 0 0 79.46 10.62 Q 79.748 10.533 79.785 10.526 A 0.03 0.03 0 0 1 79.79 10.525 A 0.232 0.232 0 0 1 79.858 10.534 Q 79.959 10.565 79.959 10.701 Q 79.959 10.818 79.841 10.99 Q 79.741 11.138 79.57 11.291 A 2.608 2.608 0 0 1 79.512 11.342 Q 79.347 11.481 79.086 11.587 A 2.658 2.658 0 0 1 78.929 11.646 A 2.394 2.394 0 0 1 78.368 11.76 A 2.903 2.903 0 0 1 78.12 11.77 A 2.577 2.577 0 0 1 76.941 11.484 Q 76.377 11.199 76.377 10.899 A 0.393 0.393 0 0 1 76.427 10.712 Q 76.5 10.575 76.681 10.433 A 1.407 1.407 0 0 1 76.878 10.303 Q 76.994 10.24 77.106 10.214 A 0.692 0.692 0 0 1 77.263 10.195 A 0.575 0.575 0 0 1 77.41 10.216 Q 77.54 10.25 77.695 10.342 Z M 23.738 0.315 L 23.738 1.377 Q 23.738 1.625 23.633 1.792 A 0.581 0.581 0 0 1 23.606 1.831 A 1.52 1.52 0 0 1 23.156 2.186 A 1.404 1.404 0 0 1 22.966 2.269 Q 22.861 2.305 22.763 2.317 A 0.756 0.756 0 0 1 22.676 2.322 Q 22.442 2.322 22.421 2.059 A 0.679 0.679 0 0 1 22.419 2.007 L 22.419 0.945 Q 22.419 0.737 22.489 0.595 A 0.503 0.503 0 0 1 22.551 0.498 A 1.572 1.572 0 0 1 23.002 0.139 A 1.385 1.385 0 0 1 23.191 0.054 Q 23.296 0.017 23.394 0.005 A 0.736 0.736 0 0 1 23.481 0 Q 23.716 0 23.736 0.263 A 0.679 0.679 0 0 1 23.738 0.315 Z M 74.802 0.315 L 74.802 1.377 Q 74.802 1.625 74.697 1.792 A 0.581 0.581 0 0 1 74.67 1.831 A 1.52 1.52 0 0 1 74.22 2.186 A 1.404 1.404 0 0 1 74.031 2.269 Q 73.925 2.305 73.828 2.317 A 0.756 0.756 0 0 1 73.74 2.322 Q 73.506 2.322 73.486 2.059 A 0.679 0.679 0 0 1 73.484 2.007 L 73.484 0.945 Q 73.484 0.737 73.554 0.595 A 0.503 0.503 0 0 1 73.616 0.498 A 1.572 1.572 0 0 1 74.066 0.139 A 1.385 1.385 0 0 1 74.256 0.054 Q 74.361 0.017 74.459 0.005 A 0.736 0.736 0 0 1 74.546 0 Q 74.78 0 74.8 0.263 A 0.679 0.679 0 0 1 74.802 0.315 Z M 108.926 0.315 L 108.926 1.377 Q 108.926 1.625 108.821 1.792 A 0.581 0.581 0 0 1 108.794 1.831 A 1.52 1.52 0 0 1 108.344 2.186 A 1.404 1.404 0 0 1 108.154 2.269 Q 108.049 2.305 107.951 2.317 A 0.756 0.756 0 0 1 107.864 2.322 Q 107.63 2.322 107.609 2.059 A 0.679 0.679 0 0 1 107.607 2.007 L 107.607 0.945 Q 107.607 0.737 107.677 0.595 A 0.503 0.503 0 0 1 107.739 0.498 A 1.572 1.572 0 0 1 108.19 0.139 A 1.385 1.385 0 0 1 108.379 0.054 Q 108.484 0.017 108.582 0.005 A 0.736 0.736 0 0 1 108.669 0 Q 108.904 0 108.924 0.263 A 0.679 0.679 0 0 1 108.926 0.315 Z M 83.408 4.285 L 83.408 4.702 Q 83.408 4.831 83.368 4.921 A 0.323 0.323 0 0 1 83.328 4.988 A 0.224 0.224 0 0 1 83.24 5.053 Q 83.166 5.086 83.049 5.09 A 0.944 0.944 0 0 1 83.02 5.09 L 82.676 5.09 Q 82.5 5.09 82.445 5.015 A 0.141 0.141 0 0 1 82.419 4.929 A 0.353 0.353 0 0 1 82.445 4.806 Q 82.508 4.636 82.733 4.392 A 3.299 3.299 0 0 1 82.738 4.387 A 2.459 2.459 0 0 1 82.871 4.253 Q 83.084 4.057 83.227 4.044 A 0.222 0.222 0 0 1 83.247 4.043 A 0.148 0.148 0 0 1 83.332 4.066 Q 83.389 4.105 83.404 4.209 A 0.558 0.558 0 0 1 83.408 4.285 Z M 102.026 4.285 L 102.026 4.702 Q 102.026 4.831 101.986 4.921 A 0.323 0.323 0 0 1 101.946 4.988 A 0.224 0.224 0 0 1 101.858 5.053 Q 101.784 5.086 101.667 5.09 A 0.944 0.944 0 0 1 101.638 5.09 L 101.294 5.09 Q 101.119 5.09 101.063 5.015 A 0.141 0.141 0 0 1 101.038 4.929 A 0.353 0.353 0 0 1 101.063 4.806 Q 101.127 4.636 101.352 4.392 A 3.299 3.299 0 0 1 101.356 4.387 A 2.459 2.459 0 0 1 101.489 4.253 Q 101.702 4.057 101.846 4.044 A 0.222 0.222 0 0 1 101.865 4.043 A 0.148 0.148 0 0 1 101.95 4.066 Q 102.007 4.105 102.022 4.209 A 0.558 0.558 0 0 1 102.026 4.285 Z" vector-effect="non-scaling-stroke"/></g></svg>