<svg width="23.203" height="10.496" viewBox="0 0 23.203 10.496" xmlns="http://www.w3.org/2000/svg"><g id="svgGroup" stroke-linecap="round" fill-rule="evenodd" font-size="9pt" stroke="#000" stroke-width="0.25mm" fill="#000" style="stroke:#000;stroke-width:0.25mm;fill:#000"><path d="M 1.816 1.34 L 0.286 1.34 Q 0.19 1.34 0.136 1.333 Q 0.081 1.326 0.04 1.285 A 0.132 0.132 0 0 1 0.006 1.225 Q 0.001 1.204 0 1.179 A 0.257 0.257 0 0 1 0 1.172 A 0.542 0.542 0 0 1 0.062 0.93 Q 0.161 0.73 0.421 0.513 A 1.909 1.909 0 0 1 0.72 0.305 Q 0.991 0.156 1.26 0.147 L 2.036 0.139 L 2.974 0.147 A 4.343 4.343 0 0 1 3.776 0.238 A 2.971 2.971 0 0 1 4.196 0.36 Q 4.413 0.44 4.644 0.557 A 3.084 3.084 0 0 1 5.457 1.15 Q 5.808 1.509 6.039 2.117 Q 6.27 2.725 6.27 3.494 A 2.721 2.721 0 0 1 6.25 3.809 A 3.682 3.682 0 0 1 6.193 4.153 A 2.909 2.909 0 0 1 6.1 4.482 Q 6.024 4.704 5.907 4.951 Q 5.698 5.391 5.387 5.753 A 2.444 2.444 0 0 1 5.009 6.106 Q 4.804 6.261 4.548 6.398 A 3.222 3.222 0 0 1 3.683 6.707 A 3.856 3.856 0 0 1 3.362 6.76 L 3.318 6.76 A 0.338 0.338 0 0 1 3.244 6.753 Q 3.12 6.725 3.12 6.592 Q 3.12 6.503 3.245 6.415 A 0.762 0.762 0 0 1 3.289 6.387 A 3.003 3.003 0 0 0 4.254 5.465 Q 4.709 4.758 4.709 3.779 Q 4.709 1.511 2.206 1.352 A 6.178 6.178 0 0 0 1.816 1.34 Z M 18.75 1.34 L 17.219 1.34 Q 17.124 1.34 17.069 1.333 Q 17.014 1.326 16.974 1.285 A 0.132 0.132 0 0 1 16.94 1.225 Q 16.934 1.204 16.934 1.179 A 0.257 0.257 0 0 1 16.934 1.172 A 0.542 0.542 0 0 1 16.995 0.93 Q 17.095 0.73 17.355 0.513 A 1.909 1.909 0 0 1 17.654 0.305 Q 17.924 0.156 18.193 0.147 L 18.97 0.139 L 19.907 0.147 A 4.343 4.343 0 0 1 20.709 0.238 A 2.971 2.971 0 0 1 21.129 0.36 Q 21.346 0.44 21.577 0.557 A 3.084 3.084 0 0 1 22.39 1.15 Q 22.742 1.509 22.972 2.117 Q 23.203 2.725 23.203 3.494 A 2.721 2.721 0 0 1 23.184 3.809 A 3.682 3.682 0 0 1 23.126 4.153 A 2.909 2.909 0 0 1 23.034 4.482 Q 22.958 4.704 22.841 4.951 Q 22.632 5.391 22.321 5.753 A 2.444 2.444 0 0 1 21.942 6.106 Q 21.737 6.261 21.482 6.398 A 3.222 3.222 0 0 1 20.617 6.707 A 3.856 3.856 0 0 1 20.295 6.76 L 20.251 6.76 A 0.338 0.338 0 0 1 20.177 6.753 Q 20.054 6.725 20.054 6.592 Q 20.054 6.503 20.179 6.415 A 0.762 0.762 0 0 1 20.222 6.387 A 3.003 3.003 0 0 0 21.187 5.465 Q 21.643 4.758 21.643 3.779 Q 21.643 1.511 19.14 1.352 A 6.178 6.178 0 0 0 18.75 1.34 Z M 14.985 0.315 L 14.985 9.404 A 1.452 1.452 0 0 1 14.974 9.595 Q 14.946 9.806 14.85 9.926 A 0.421 0.421 0 0 1 14.839 9.939 A 1.262 1.262 0 0 1 14.633 10.134 Q 14.53 10.212 14.403 10.282 A 2.344 2.344 0 0 1 14.315 10.327 A 2.468 2.468 0 0 1 14.134 10.409 Q 13.949 10.482 13.812 10.494 A 0.594 0.594 0 0 1 13.762 10.496 A 0.278 0.278 0 0 1 13.652 10.475 Q 13.532 10.424 13.516 10.242 A 0.682 0.682 0 0 1 13.513 10.181 L 13.513 1.091 A 1.049 1.049 0 0 1 13.531 0.89 Q 13.554 0.773 13.606 0.68 A 0.583 0.583 0 0 1 13.66 0.601 Q 13.843 0.374 14.18 0.187 A 2.301 2.301 0 0 1 14.359 0.097 Q 14.576 0 14.729 0 Q 14.963 0 14.983 0.263 A 0.679 0.679 0 0 1 14.985 0.315 Z M 12.671 5.559 L 8.071 5.559 Q 7.833 5.559 7.784 5.37 A 0.442 0.442 0 0 1 7.771 5.259 L 7.771 1.091 A 0.997 0.997 0 0 1 7.791 0.887 Q 7.817 0.761 7.879 0.663 A 0.58 0.58 0 0 1 7.925 0.601 A 1.558 1.558 0 0 1 8.148 0.385 Q 8.262 0.294 8.403 0.211 A 2.698 2.698 0 0 1 8.445 0.187 Q 8.739 0.02 8.939 0.002 A 0.53 0.53 0 0 1 8.987 0 Q 9.221 0 9.241 0.263 A 0.679 0.679 0 0 1 9.243 0.315 L 9.243 4.058 Q 9.243 4.296 9.432 4.345 A 0.442 0.442 0 0 0 9.543 4.358 L 12.671 4.358 A 0.707 0.707 0 0 1 12.782 4.366 Q 12.838 4.375 12.882 4.394 A 0.24 0.24 0 0 1 12.993 4.486 A 0.378 0.378 0 0 1 13.032 4.574 Q 13.062 4.67 13.071 4.82 A 2.232 2.232 0 0 1 13.074 4.944 Q 13.074 5.209 13.026 5.35 A 0.385 0.385 0 0 1 12.993 5.424 Q 12.93 5.53 12.768 5.553 A 0.694 0.694 0 0 1 12.671 5.559 Z M 0 6.094 L 0 2.19 A 0.595 0.595 0 0 1 0.012 2.064 Q 0.028 1.992 0.064 1.939 A 0.282 0.282 0 0 1 0.179 1.842 Q 0.359 1.758 0.732 1.758 Q 1.143 1.758 1.307 1.842 Q 1.45 1.915 1.469 2.123 A 0.736 0.736 0 0 1 1.472 2.19 L 1.472 5.244 Q 1.472 5.514 1.676 5.553 A 0.398 0.398 0 0 0 1.751 5.559 L 2.974 5.559 A 0.81 0.81 0 0 1 3.081 5.566 Q 3.197 5.581 3.248 5.635 A 0.149 0.149 0 0 1 3.289 5.742 Q 3.289 5.882 3.087 6.057 A 1.721 1.721 0 0 1 2.97 6.149 Q 2.695 6.348 2.286 6.49 A 4.053 4.053 0 0 1 2.153 6.533 A 1.212 1.212 0 0 1 1.979 6.57 Q 1.679 6.614 1.056 6.625 A 24.906 24.906 0 0 1 0.63 6.628 Q 0.256 6.628 0.128 6.497 A 0.408 0.408 0 0 1 0.037 6.344 Q 0 6.239 0 6.094 Z M 16.934 6.094 L 16.934 2.19 A 0.595 0.595 0 0 1 16.946 2.064 Q 16.962 1.992 16.997 1.939 A 0.282 0.282 0 0 1 17.113 1.842 Q 17.293 1.758 17.666 1.758 Q 18.076 1.758 18.241 1.842 Q 18.384 1.915 18.403 2.123 A 0.736 0.736 0 0 1 18.406 2.19 L 18.406 5.244 Q 18.406 5.514 18.61 5.553 A 0.398 0.398 0 0 0 18.684 5.559 L 19.907 5.559 A 0.81 0.81 0 0 1 20.014 5.566 Q 20.131 5.581 20.182 5.635 A 0.149 0.149 0 0 1 20.222 5.742 Q 20.222 5.882 20.02 6.057 A 1.721 1.721 0 0 1 19.904 6.149 Q 19.629 6.348 19.22 6.49 A 4.053 4.053 0 0 1 19.087 6.533 A 1.212 1.212 0 0 1 18.913 6.57 Q 18.613 6.614 17.99 6.625 A 24.906 24.906 0 0 1 17.564 6.628 Q 17.19 6.628 17.062 6.497 A 0.408 0.408 0 0 1 16.97 6.344 Q 16.934 6.239 16.934 6.094 Z M 7.771 10.181 L 7.771 6.431 A 0.595 0.595 0 0 1 7.783 6.305 Q 7.799 6.233 7.835 6.18 A 0.282 0.282 0 0 1 7.95 6.083 Q 8.13 5.999 8.503 5.999 Q 8.914 5.999 9.078 6.083 Q 9.221 6.156 9.24 6.363 A 0.736 0.736 0 0 1 9.243 6.431 L 9.243 9.404 Q 9.243 9.763 9.089 9.939 A 1.294 1.294 0 0 1 8.885 10.134 Q 8.78 10.215 8.648 10.287 A 2.333 2.333 0 0 1 8.573 10.327 A 2.35 2.35 0 0 1 8.395 10.409 Q 8.212 10.483 8.074 10.494 A 0.587 0.587 0 0 1 8.027 10.496 Q 7.793 10.496 7.773 10.233 A 0.679 0.679 0 0 1 7.771 10.181 Z M 1.472 7.522 L 1.472 9.404 Q 1.472 9.763 1.318 9.939 A 1.294 1.294 0 0 1 1.114 10.134 Q 1.009 10.215 0.877 10.287 A 2.333 2.333 0 0 1 0.802 10.327 A 2.35 2.35 0 0 1 0.624 10.409 Q 0.441 10.483 0.303 10.494 A 0.587 0.587 0 0 1 0.256 10.496 Q 0.022 10.496 0.002 10.233 A 0.679 0.679 0 0 1 0 10.181 L 0 7.522 A 0.574 0.574 0 0 1 0.014 7.389 A 0.324 0.324 0 0 1 0.187 7.163 A 0.688 0.688 0 0 1 0.322 7.113 Q 0.467 7.074 0.677 7.069 A 2.724 2.724 0 0 1 0.747 7.068 A 2.806 2.806 0 0 1 0.933 7.074 Q 1.111 7.086 1.224 7.122 A 0.471 0.471 0 0 1 1.311 7.159 Q 1.445 7.236 1.468 7.437 A 0.772 0.772 0 0 1 1.472 7.522 Z M 18.406 7.522 L 18.406 9.404 Q 18.406 9.763 18.252 9.939 A 1.294 1.294 0 0 1 18.047 10.134 Q 17.942 10.215 17.811 10.287 A 2.333 2.333 0 0 1 17.736 10.327 A 2.35 2.35 0 0 1 17.558 10.409 Q 17.375 10.483 17.237 10.494 A 0.587 0.587 0 0 1 17.19 10.496 Q 16.956 10.496 16.936 10.233 A 0.679 0.679 0 0 1 16.934 10.181 L 16.934 7.522 A 0.574 0.574 0 0 1 16.948 7.389 A 0.324 0.324 0 0 1 17.12 7.163 A 0.688 0.688 0 0 1 17.255 7.113 Q 17.4 7.074 17.61 7.069 A 2.724 2.724 0 0 1 17.681 7.068 A 2.806 2.806 0 0 1 17.867 7.074 Q 18.045 7.086 18.157 7.122 A 0.471 0.471 0 0 1 18.245 7.159 Q 18.379 7.236 18.401 7.437 A 0.772 0.772 0 0 1 18.406 7.522 Z" vector-effect="non-scaling-stroke"/></g></svg>