<svg width="52.068" height="11.77" viewBox="0 0 52.068 11.77" xmlns="http://www.w3.org/2000/svg"><g id="svgGroup" stroke-linecap="round" fill-rule="evenodd" font-size="9pt" stroke="#000" stroke-width="0.25mm" fill="#000" style="stroke:#000;stroke-width:0.25mm;fill:#000"><path d="M 11.57 3.907 A 4.47 4.47 0 0 0 10.635 3.816 A 3.093 3.093 0 0 0 8.858 4.351 A 3.882 3.882 0 0 0 7.983 5.186 A 0.719 0.719 0 0 0 7.962 5.214 Q 7.91 5.286 7.841 5.413 A 1.323 1.323 0 0 0 7.81 5.471 Q 7.756 5.583 7.756 5.647 A 0.269 0.269 0 0 0 7.757 5.666 Q 7.762 5.743 7.814 5.764 A 0.119 0.119 0 0 0 7.859 5.772 A 0.081 0.081 0 0 0 7.862 5.771 Q 7.882 5.771 7.907 5.761 A 0.298 0.298 0 0 0 7.932 5.75 Q 7.976 5.728 8.016 5.698 Q 8.047 5.676 8.095 5.644 A 4.948 4.948 0 0 1 8.13 5.621 Q 8.185 5.586 8.219 5.56 A 0.694 0.694 0 0 0 8.24 5.544 A 5.22 5.22 0 0 1 8.381 5.451 Q 9.288 4.871 10.144 4.871 A 3.523 3.523 0 0 1 10.223 4.872 Q 10.838 4.885 11.272 5.116 Q 11.733 5.361 11.993 5.837 A 3.256 3.256 0 0 1 12.193 6.28 A 3.998 3.998 0 0 1 12.367 6.925 A 5.475 5.475 0 0 1 12.397 7.106 Q 12.44 7.385 12.46 7.704 A 10.19 10.19 0 0 1 12.48 8.364 A 14.07 14.07 0 0 1 12.478 8.642 Q 12.461 9.472 12.345 10.074 A 3.986 3.986 0 0 1 12.18 10.686 Q 12.114 10.884 12.026 11.034 Q 11.96 11.147 11.915 11.216 A 1.578 1.578 0 0 1 11.887 11.257 A 0.545 0.545 0 0 0 11.872 11.281 Q 11.849 11.317 11.841 11.345 A 0.105 0.105 0 0 0 11.836 11.375 A 0.202 0.202 0 0 0 11.839 11.413 Q 11.854 11.489 11.932 11.508 A 0.248 0.248 0 0 0 11.99 11.514 A 0.432 0.432 0 0 0 12.136 11.485 Q 12.28 11.433 12.461 11.286 A 2.827 2.827 0 0 0 12.642 11.126 A 3.117 3.117 0 0 0 12.915 10.825 A 3.633 3.633 0 0 0 13.323 10.181 A 4.766 4.766 0 0 0 13.54 9.653 A 6.144 6.144 0 0 0 13.729 8.976 A 6.788 6.788 0 0 0 13.826 8.439 A 5.351 5.351 0 0 0 13.879 7.705 A 7.764 7.764 0 0 0 13.829 6.793 Q 13.68 5.537 13.092 4.801 A 2.354 2.354 0 0 0 12.554 4.308 Q 12.134 4.028 11.57 3.907 Z M 35.762 3.907 A 4.47 4.47 0 0 0 34.827 3.816 A 3.093 3.093 0 0 0 33.049 4.351 A 3.882 3.882 0 0 0 32.175 5.186 A 0.719 0.719 0 0 0 32.154 5.214 Q 32.102 5.286 32.032 5.413 A 1.323 1.323 0 0 0 32.002 5.471 Q 31.948 5.583 31.948 5.647 A 0.269 0.269 0 0 0 31.949 5.666 Q 31.954 5.743 32.006 5.764 A 0.119 0.119 0 0 0 32.051 5.772 A 0.081 0.081 0 0 0 32.054 5.771 Q 32.074 5.771 32.099 5.761 A 0.298 0.298 0 0 0 32.124 5.75 Q 32.168 5.728 32.208 5.698 Q 32.238 5.676 32.287 5.644 A 4.948 4.948 0 0 1 32.322 5.621 Q 32.377 5.586 32.411 5.56 A 0.694 0.694 0 0 0 32.432 5.544 A 5.22 5.22 0 0 1 32.573 5.451 Q 33.48 4.871 34.336 4.871 A 3.523 3.523 0 0 1 34.415 4.872 Q 35.03 4.885 35.464 5.116 Q 35.925 5.361 36.185 5.837 A 3.256 3.256 0 0 1 36.385 6.28 A 3.998 3.998 0 0 1 36.559 6.925 A 5.475 5.475 0 0 1 36.589 7.106 Q 36.631 7.385 36.652 7.704 A 10.19 10.19 0 0 1 36.672 8.364 A 14.07 14.07 0 0 1 36.67 8.642 Q 36.653 9.472 36.537 10.074 A 3.986 3.986 0 0 1 36.372 10.686 Q 36.306 10.884 36.218 11.034 Q 36.152 11.147 36.107 11.216 A 1.578 1.578 0 0 1 36.079 11.257 A 0.545 0.545 0 0 0 36.064 11.281 Q 36.041 11.317 36.033 11.345 A 0.105 0.105 0 0 0 36.028 11.375 A 0.202 0.202 0 0 0 36.031 11.413 Q 36.046 11.489 36.124 11.508 A 0.248 0.248 0 0 0 36.182 11.514 A 0.432 0.432 0 0 0 36.328 11.485 Q 36.472 11.433 36.653 11.286 A 2.827 2.827 0 0 0 36.834 11.126 A 3.117 3.117 0 0 0 37.107 10.825 A 3.633 3.633 0 0 0 37.515 10.181 A 4.766 4.766 0 0 0 37.732 9.653 A 6.144 6.144 0 0 0 37.921 8.976 A 6.788 6.788 0 0 0 38.018 8.439 A 5.351 5.351 0 0 0 38.071 7.705 A 7.764 7.764 0 0 0 38.021 6.793 Q 37.872 5.537 37.284 4.801 A 2.354 2.354 0 0 0 36.746 4.308 Q 36.326 4.028 35.762 3.907 Z M 49.759 3.907 A 4.47 4.47 0 0 0 48.823 3.816 A 3.093 3.093 0 0 0 47.046 4.351 A 3.882 3.882 0 0 0 46.172 5.186 A 0.719 0.719 0 0 0 46.151 5.214 Q 46.099 5.286 46.029 5.413 A 1.323 1.323 0 0 0 45.999 5.471 Q 45.945 5.583 45.945 5.647 A 0.269 0.269 0 0 0 45.945 5.666 Q 45.951 5.743 46.003 5.764 A 0.119 0.119 0 0 0 46.047 5.772 A 0.081 0.081 0 0 0 46.051 5.771 Q 46.07 5.771 46.096 5.761 A 0.298 0.298 0 0 0 46.121 5.75 Q 46.165 5.728 46.205 5.698 Q 46.235 5.676 46.284 5.644 A 4.948 4.948 0 0 1 46.318 5.621 Q 46.373 5.586 46.408 5.56 A 0.694 0.694 0 0 0 46.428 5.544 A 5.22 5.22 0 0 1 46.569 5.451 Q 47.476 4.871 48.333 4.871 A 3.523 3.523 0 0 1 48.411 4.872 Q 49.027 4.885 49.46 5.116 Q 49.922 5.361 50.182 5.837 A 3.256 3.256 0 0 1 50.381 6.28 A 3.998 3.998 0 0 1 50.555 6.925 A 5.475 5.475 0 0 1 50.586 7.106 Q 50.628 7.385 50.649 7.704 A 10.19 10.19 0 0 1 50.669 8.364 A 14.07 14.07 0 0 1 50.666 8.642 Q 50.65 9.472 50.533 10.074 A 3.986 3.986 0 0 1 50.369 10.686 Q 50.303 10.884 50.215 11.034 Q 50.149 11.147 50.104 11.216 A 1.578 1.578 0 0 1 50.076 11.257 A 0.545 0.545 0 0 0 50.06 11.281 Q 50.037 11.317 50.029 11.345 A 0.105 0.105 0 0 0 50.024 11.375 A 0.202 0.202 0 0 0 50.028 11.413 Q 50.042 11.489 50.12 11.508 A 0.248 0.248 0 0 0 50.178 11.514 A 0.432 0.432 0 0 0 50.325 11.485 Q 50.468 11.433 50.65 11.286 A 2.827 2.827 0 0 0 50.83 11.126 A 3.117 3.117 0 0 0 51.104 10.825 A 3.633 3.633 0 0 0 51.511 10.181 A 4.766 4.766 0 0 0 51.728 9.653 A 6.144 6.144 0 0 0 51.918 8.976 A 6.788 6.788 0 0 0 52.015 8.439 A 5.351 5.351 0 0 0 52.068 7.705 A 7.764 7.764 0 0 0 52.017 6.793 Q 51.869 5.537 51.281 4.801 A 2.354 2.354 0 0 0 50.743 4.308 Q 50.322 4.028 49.759 3.907 Z M 39.646 11.301 L 39.646 1.209 A 0.754 0.754 0 0 1 39.91 0.629 A 1.112 1.112 0 0 1 40.005 0.553 A 1.589 1.589 0 0 1 40.271 0.395 Q 40.493 0.293 40.708 0.293 Q 40.942 0.293 40.962 0.556 A 0.679 0.679 0 0 1 40.964 0.608 L 40.964 10.701 A 0.755 0.755 0 0 1 40.702 11.283 A 1.076 1.076 0 0 1 40.605 11.36 A 1.594 1.594 0 0 1 40.338 11.516 Q 40.166 11.594 39.997 11.611 A 0.937 0.937 0 0 1 39.902 11.616 Q 39.668 11.616 39.648 11.353 A 0.679 0.679 0 0 1 39.646 11.301 Z M 1.816 2.461 L 0.286 2.461 Q 0.19 2.461 0.136 2.454 Q 0.081 2.446 0.04 2.406 A 0.132 0.132 0 0 1 0.006 2.346 Q 0.001 2.325 0 2.3 A 0.257 0.257 0 0 1 0 2.293 A 0.542 0.542 0 0 1 0.062 2.051 Q 0.161 1.85 0.421 1.633 A 1.909 1.909 0 0 1 0.72 1.426 Q 0.991 1.277 1.26 1.267 L 2.036 1.26 L 2.974 1.267 A 4.343 4.343 0 0 1 3.776 1.359 A 2.971 2.971 0 0 1 4.196 1.48 Q 4.413 1.56 4.644 1.677 A 3.084 3.084 0 0 1 5.457 2.271 Q 5.808 2.629 6.039 3.237 Q 6.27 3.845 6.27 4.614 A 2.721 2.721 0 0 1 6.25 4.929 A 3.682 3.682 0 0 1 6.193 5.274 A 2.909 2.909 0 0 1 6.1 5.603 Q 6.024 5.825 5.907 6.072 Q 5.698 6.511 5.387 6.874 A 2.444 2.444 0 0 1 5.009 7.226 Q 4.804 7.382 4.548 7.518 A 3.222 3.222 0 0 1 3.683 7.828 A 3.856 3.856 0 0 1 3.362 7.881 L 3.318 7.881 A 0.338 0.338 0 0 1 3.244 7.874 Q 3.12 7.846 3.12 7.712 Q 3.12 7.624 3.245 7.536 A 0.762 0.762 0 0 1 3.289 7.507 A 3.003 3.003 0 0 0 4.254 6.585 Q 4.709 5.879 4.709 4.9 Q 4.709 2.631 2.206 2.473 A 6.178 6.178 0 0 0 1.816 2.461 Z M 22.859 5.874 L 22.859 8.438 A 9.063 9.063 0 0 0 22.869 8.883 Q 22.88 9.1 22.902 9.287 A 4.306 4.306 0 0 0 22.932 9.503 A 3.359 3.359 0 0 0 22.995 9.801 Q 23.058 10.039 23.148 10.21 Q 23.286 10.471 23.49 10.589 A 0.712 0.712 0 0 0 23.507 10.598 A 0.952 0.952 0 0 0 23.807 10.699 A 1.272 1.272 0 0 0 24.016 10.715 Q 24.28 10.715 24.477 10.666 A 1.145 1.145 0 0 0 24.591 10.631 A 2.536 2.536 0 0 0 24.766 10.56 Q 24.851 10.522 24.922 10.481 A 1.341 1.341 0 0 0 24.976 10.448 A 3.693 3.693 0 0 0 25.084 10.376 Q 25.136 10.339 25.181 10.305 A 1.884 1.884 0 0 0 25.232 10.265 A 0.439 0.439 0 0 1 25.305 10.216 Q 25.371 10.181 25.437 10.181 Q 25.502 10.181 25.543 10.206 A 0.13 0.13 0 0 1 25.576 10.236 A 0.194 0.194 0 0 1 25.613 10.314 Q 25.62 10.342 25.62 10.374 A 0.346 0.346 0 0 1 25.62 10.378 A 0.446 0.446 0 0 1 25.612 10.457 Q 25.597 10.54 25.554 10.653 A 2.205 2.205 0 0 1 25.521 10.734 A 1.195 1.195 0 0 1 25.399 10.95 Q 25.313 11.073 25.188 11.195 A 1.73 1.73 0 0 1 24.921 11.408 Q 24.786 11.496 24.623 11.573 A 3.004 3.004 0 0 1 24.569 11.598 A 1.805 1.805 0 0 1 24.196 11.716 Q 24.014 11.753 23.803 11.765 A 3.56 3.56 0 0 1 23.606 11.77 Q 23.042 11.77 22.65 11.609 A 1.421 1.421 0 0 1 22.009 11.085 Q 21.76 10.723 21.65 10.14 Q 21.567 9.7 21.547 9.107 A 11.685 11.685 0 0 1 21.541 8.709 L 21.541 5.874 A 0.597 0.597 0 0 1 21.547 5.781 Q 21.562 5.687 21.61 5.629 Q 21.68 5.544 21.786 5.508 A 0.669 0.669 0 0 1 22.006 5.471 L 22.207 5.471 A 2.881 2.881 0 0 1 22.399 5.477 A 2.544 2.544 0 0 1 22.46 5.482 A 0.779 0.779 0 0 1 22.559 5.497 Q 22.619 5.511 22.668 5.534 Q 22.756 5.574 22.808 5.654 Q 22.847 5.717 22.856 5.814 A 0.655 0.655 0 0 1 22.859 5.874 Z M 8.848 7.5 A 20.269 20.269 0 0 0 8.851 7.864 Q 8.854 8.043 8.861 8.199 A 10.039 10.039 0 0 0 8.87 8.379 A 7.719 7.719 0 0 0 8.925 8.945 A 8.802 8.802 0 0 0 8.954 9.141 Q 9.003 9.451 9.092 9.68 A 1.625 1.625 0 0 0 9.144 9.8 A 2.14 2.14 0 0 0 9.467 10.283 A 1.141 1.141 0 0 0 9.885 10.58 A 1.373 1.373 0 0 0 9.961 10.609 A 1.768 1.768 0 0 0 10.287 10.689 Q 10.441 10.712 10.614 10.715 A 2.984 2.984 0 0 0 10.664 10.715 A 2.113 2.113 0 0 0 10.959 10.696 Q 11.116 10.674 11.25 10.627 A 1.307 1.307 0 0 0 11.268 10.62 Q 11.486 10.541 11.547 10.528 A 0.095 0.095 0 0 1 11.565 10.525 Q 11.688 10.525 11.712 10.627 A 0.25 0.25 0 0 1 11.719 10.686 A 0.557 0.557 0 0 1 11.652 10.94 Q 11.561 11.119 11.344 11.311 A 2.542 2.542 0 0 1 11.246 11.393 A 1.713 1.713 0 0 1 10.386 11.751 A 2.271 2.271 0 0 1 10.085 11.77 A 3.224 3.224 0 0 1 9.542 11.726 A 2.335 2.335 0 0 1 8.976 11.558 A 2.332 2.332 0 0 1 8.55 11.312 A 1.859 1.859 0 0 1 8.218 11.001 A 2.297 2.297 0 0 1 7.939 10.572 A 3.14 3.14 0 0 1 7.76 10.137 A 5.128 5.128 0 0 1 7.529 9.089 A 9.124 9.124 0 0 1 7.486 8.546 Q 7.471 8.239 7.471 7.896 A 4.276 4.276 0 0 1 7.505 7.366 A 5.116 5.116 0 0 1 7.544 7.108 A 3.397 3.397 0 0 1 7.595 6.869 Q 7.656 6.626 7.742 6.475 A 1.188 1.188 0 0 1 7.927 6.237 Q 8.023 6.14 8.149 6.05 A 2.227 2.227 0 0 1 8.236 5.991 A 2.022 2.022 0 0 1 8.42 5.885 Q 8.645 5.772 8.818 5.772 A 0.216 0.216 0 0 1 8.897 5.785 Q 8.992 5.822 9.001 5.961 A 0.473 0.473 0 0 1 9.001 5.991 A 0.207 0.207 0 0 1 9 6.008 Q 8.992 6.094 8.925 6.555 A 8.109 8.109 0 0 0 8.872 6.996 Q 8.852 7.215 8.849 7.411 A 4.724 4.724 0 0 0 8.848 7.5 Z M 33.04 7.5 A 20.269 20.269 0 0 0 33.043 7.864 Q 33.046 8.043 33.052 8.199 A 10.039 10.039 0 0 0 33.062 8.379 A 7.719 7.719 0 0 0 33.117 8.945 A 8.802 8.802 0 0 0 33.146 9.141 Q 33.195 9.451 33.284 9.68 A 1.625 1.625 0 0 0 33.336 9.8 A 2.14 2.14 0 0 0 33.658 10.283 A 1.141 1.141 0 0 0 34.077 10.58 A 1.373 1.373 0 0 0 34.153 10.609 A 1.768 1.768 0 0 0 34.479 10.689 Q 34.633 10.712 34.806 10.715 A 2.984 2.984 0 0 0 34.856 10.715 A 2.113 2.113 0 0 0 35.151 10.696 Q 35.308 10.674 35.442 10.627 A 1.307 1.307 0 0 0 35.46 10.62 Q 35.678 10.541 35.739 10.528 A 0.095 0.095 0 0 1 35.757 10.525 Q 35.88 10.525 35.904 10.627 A 0.25 0.25 0 0 1 35.911 10.686 A 0.557 0.557 0 0 1 35.844 10.94 Q 35.753 11.119 35.536 11.311 A 2.542 2.542 0 0 1 35.438 11.393 A 1.713 1.713 0 0 1 34.578 11.751 A 2.271 2.271 0 0 1 34.277 11.77 A 3.224 3.224 0 0 1 33.734 11.726 A 2.335 2.335 0 0 1 33.168 11.558 A 2.332 2.332 0 0 1 32.742 11.312 A 1.859 1.859 0 0 1 32.41 11.001 A 2.297 2.297 0 0 1 32.131 10.572 A 3.14 3.14 0 0 1 31.952 10.137 A 5.128 5.128 0 0 1 31.721 9.089 A 9.124 9.124 0 0 1 31.678 8.546 Q 31.663 8.239 31.663 7.896 A 4.276 4.276 0 0 1 31.697 7.366 A 5.116 5.116 0 0 1 31.736 7.108 A 3.397 3.397 0 0 1 31.787 6.869 Q 31.848 6.626 31.934 6.475 A 1.188 1.188 0 0 1 32.119 6.237 Q 32.215 6.14 32.341 6.05 A 2.227 2.227 0 0 1 32.428 5.991 A 2.022 2.022 0 0 1 32.612 5.885 Q 32.837 5.772 33.01 5.772 A 0.216 0.216 0 0 1 33.089 5.785 Q 33.183 5.822 33.192 5.961 A 0.473 0.473 0 0 1 33.193 5.991 A 0.207 0.207 0 0 1 33.192 6.008 Q 33.184 6.094 33.116 6.555 A 8.109 8.109 0 0 0 33.064 6.996 Q 33.044 7.215 33.04 7.411 A 4.724 4.724 0 0 0 33.04 7.5 Z M 47.036 7.5 A 20.269 20.269 0 0 0 47.039 7.864 Q 47.042 8.043 47.049 8.199 A 10.039 10.039 0 0 0 47.058 8.379 A 7.719 7.719 0 0 0 47.114 8.945 A 8.802 8.802 0 0 0 47.142 9.141 Q 47.191 9.451 47.281 9.68 A 1.625 1.625 0 0 0 47.333 9.8 A 2.14 2.14 0 0 0 47.655 10.283 A 1.141 1.141 0 0 0 48.074 10.58 A 1.373 1.373 0 0 0 48.149 10.609 A 1.768 1.768 0 0 0 48.475 10.689 Q 48.629 10.712 48.803 10.715 A 2.984 2.984 0 0 0 48.853 10.715 A 2.113 2.113 0 0 0 49.147 10.696 Q 49.304 10.674 49.439 10.627 A 1.307 1.307 0 0 0 49.457 10.62 Q 49.674 10.541 49.735 10.528 A 0.095 0.095 0 0 1 49.753 10.525 Q 49.876 10.525 49.901 10.627 A 0.25 0.25 0 0 1 49.907 10.686 A 0.557 0.557 0 0 1 49.841 10.94 Q 49.75 11.119 49.533 11.311 A 2.542 2.542 0 0 1 49.435 11.393 A 1.713 1.713 0 0 1 48.575 11.751 A 2.271 2.271 0 0 1 48.274 11.77 A 3.224 3.224 0 0 1 47.73 11.726 A 2.335 2.335 0 0 1 47.164 11.558 A 2.332 2.332 0 0 1 46.739 11.312 A 1.859 1.859 0 0 1 46.406 11.001 A 2.297 2.297 0 0 1 46.128 10.572 A 3.14 3.14 0 0 1 45.949 10.137 A 5.128 5.128 0 0 1 45.718 9.089 A 9.124 9.124 0 0 1 45.675 8.546 Q 45.659 8.239 45.659 7.896 A 4.276 4.276 0 0 1 45.693 7.366 A 5.116 5.116 0 0 1 45.732 7.108 A 3.397 3.397 0 0 1 45.783 6.869 Q 45.845 6.626 45.93 6.475 A 1.188 1.188 0 0 1 46.115 6.237 Q 46.212 6.14 46.337 6.05 A 2.227 2.227 0 0 1 46.425 5.991 A 2.022 2.022 0 0 1 46.608 5.885 Q 46.833 5.772 47.007 5.772 A 0.216 0.216 0 0 1 47.086 5.785 Q 47.18 5.822 47.189 5.961 A 0.473 0.473 0 0 1 47.19 5.991 A 0.207 0.207 0 0 1 47.189 6.008 Q 47.18 6.094 47.113 6.555 A 8.109 8.109 0 0 0 47.06 6.996 Q 47.041 7.215 47.037 7.411 A 4.724 4.724 0 0 0 47.036 7.5 Z M 44.084 4.131 L 44.084 10.671 Q 44.084 10.92 43.979 11.087 A 0.581 0.581 0 0 1 43.953 11.126 A 1.52 1.52 0 0 1 43.502 11.481 A 1.404 1.404 0 0 1 43.313 11.563 Q 43.208 11.6 43.11 11.611 A 0.756 0.756 0 0 1 43.022 11.616 Q 42.788 11.616 42.768 11.353 A 0.679 0.679 0 0 1 42.766 11.301 L 42.766 4.761 A 0.955 0.955 0 0 1 42.783 4.575 Q 42.805 4.465 42.855 4.378 A 0.542 0.542 0 0 1 42.898 4.314 A 1.572 1.572 0 0 1 43.348 3.955 A 1.385 1.385 0 0 1 43.538 3.87 Q 43.643 3.833 43.741 3.821 A 0.736 0.736 0 0 1 43.828 3.816 Q 44.062 3.816 44.083 4.079 A 0.679 0.679 0 0 1 44.084 4.131 Z M 0 7.214 L 0 3.311 A 0.595 0.595 0 0 1 0.012 3.185 Q 0.028 3.112 0.064 3.06 A 0.282 0.282 0 0 1 0.179 2.963 Q 0.359 2.878 0.732 2.878 Q 1.143 2.878 1.307 2.963 Q 1.45 3.036 1.469 3.243 A 0.736 0.736 0 0 1 1.472 3.311 L 1.472 6.365 Q 1.472 6.634 1.676 6.673 A 0.398 0.398 0 0 0 1.751 6.68 L 2.974 6.68 A 0.81 0.81 0 0 1 3.081 6.686 Q 3.197 6.702 3.248 6.755 A 0.149 0.149 0 0 1 3.289 6.863 Q 3.289 7.003 3.087 7.177 A 1.721 1.721 0 0 1 2.97 7.269 Q 2.695 7.469 2.286 7.61 A 4.053 4.053 0 0 1 2.153 7.654 A 1.212 1.212 0 0 1 1.979 7.69 Q 1.679 7.735 1.056 7.746 A 24.906 24.906 0 0 1 0.63 7.749 Q 0.256 7.749 0.128 7.617 A 0.408 0.408 0 0 1 0.037 7.465 Q 0 7.359 0 7.214 Z M 28.857 5.859 L 28.857 10.693 A 0.662 0.662 0 0 1 28.751 11.052 A 1.159 1.159 0 0 1 28.488 11.345 A 1.323 1.323 0 0 1 28.14 11.543 A 1.213 1.213 0 0 1 27.979 11.593 Q 27.891 11.613 27.811 11.616 A 0.723 0.723 0 0 1 27.788 11.616 A 0.278 0.278 0 0 1 27.678 11.596 Q 27.558 11.545 27.542 11.363 A 0.682 0.682 0 0 1 27.539 11.301 L 27.539 5.859 Q 27.539 5.72 27.59 5.64 A 0.315 0.315 0 0 1 27.733 5.519 A 0.545 0.545 0 0 1 27.845 5.484 A 0.732 0.732 0 0 1 27.946 5.471 A 4.05 4.05 0 0 1 28.133 5.464 A 4.597 4.597 0 0 1 28.198 5.464 A 3.115 3.115 0 0 1 28.363 5.468 A 2.535 2.535 0 0 1 28.458 5.475 A 0.779 0.779 0 0 1 28.558 5.49 Q 28.618 5.504 28.667 5.526 Q 28.755 5.566 28.806 5.647 Q 28.849 5.714 28.856 5.817 A 0.615 0.615 0 0 1 28.857 5.859 Z M 15.469 6.16 L 15.469 4.739 A 0.756 0.756 0 0 1 15.727 4.165 A 1.126 1.126 0 0 1 15.831 4.08 A 1.65 1.65 0 0 1 16.087 3.925 Q 16.242 3.85 16.393 3.827 A 0.891 0.891 0 0 1 16.531 3.816 Q 16.765 3.816 16.785 4.079 A 0.679 0.679 0 0 1 16.787 4.131 L 16.787 4.541 A 0.809 0.809 0 0 0 16.79 4.618 Q 16.806 4.775 16.89 4.775 Q 16.961 4.775 17.106 4.639 A 1.888 1.888 0 0 0 17.146 4.6 A 3.983 3.983 0 0 1 17.573 4.225 Q 18.121 3.816 18.618 3.816 A 2.136 2.136 0 0 1 19.142 3.884 A 2.778 2.778 0 0 1 19.493 3.999 A 1.363 1.363 0 0 1 19.677 4.088 Q 19.951 4.249 19.951 4.475 A 0.419 0.419 0 0 1 19.9 4.669 Q 19.826 4.812 19.644 4.962 Q 19.361 5.195 19.14 5.213 A 0.453 0.453 0 0 1 19.102 5.215 A 0.612 0.612 0 0 1 18.972 5.199 Q 18.843 5.171 18.669 5.092 A 3.092 3.092 0 0 1 18.545 5.032 A 1.933 1.933 0 0 0 18.301 4.934 Q 18.165 4.89 18.041 4.877 A 1.027 1.027 0 0 0 17.93 4.871 A 1.037 1.037 0 0 0 17.593 4.926 A 0.93 0.93 0 0 0 17.47 4.978 Q 17.409 5.01 17.342 5.053 A 2.256 2.256 0 0 0 17.219 5.138 A 11.714 11.714 0 0 0 17.118 5.214 Q 16.978 5.32 16.878 5.403 A 4.062 4.062 0 0 0 16.871 5.409 Q 16.736 5.523 16.41 5.826 Q 16.16 6.059 15.995 6.208 A 12.175 12.175 0 0 1 15.901 6.292 Q 15.772 6.403 15.676 6.425 A 0.204 0.204 0 0 1 15.63 6.431 A 0.133 0.133 0 0 1 15.502 6.351 Q 15.473 6.291 15.469 6.188 A 0.841 0.841 0 0 1 15.469 6.16 Z M 15.469 11.301 L 15.469 7.61 A 1.364 1.364 0 0 1 15.489 7.367 Q 15.514 7.231 15.568 7.125 A 0.666 0.666 0 0 1 15.667 6.98 A 2.425 2.425 0 0 1 16.028 6.644 A 2.802 2.802 0 0 1 16.135 6.566 Q 16.346 6.421 16.486 6.389 A 0.332 0.332 0 0 1 16.56 6.379 A 0.228 0.228 0 0 1 16.669 6.404 Q 16.787 6.467 16.787 6.694 L 16.787 10.693 A 0.763 0.763 0 0 1 16.522 11.28 A 1.095 1.095 0 0 1 16.428 11.356 A 1.589 1.589 0 0 1 16.162 11.514 Q 15.941 11.616 15.725 11.616 Q 15.491 11.616 15.471 11.353 A 0.679 0.679 0 0 1 15.469 11.301 Z M 22.859 2.71 L 22.859 3.655 A 0.785 0.785 0 0 0 22.865 3.759 Q 22.885 3.902 22.961 3.962 Q 23.045 4.028 23.183 4.04 A 0.738 0.738 0 0 0 23.247 4.043 L 25.21 4.043 A 0.584 0.584 0 0 1 25.297 4.049 Q 25.41 4.066 25.447 4.132 A 0.158 0.158 0 0 1 25.466 4.211 A 0.337 0.337 0 0 1 25.442 4.33 Q 25.403 4.435 25.297 4.564 A 1.832 1.832 0 0 1 25.221 4.651 A 1.82 1.82 0 0 1 25.045 4.818 Q 24.889 4.946 24.734 5.003 A 0.923 0.923 0 0 1 24.593 5.041 Q 24.359 5.088 23.933 5.09 A 8.166 8.166 0 0 1 23.892 5.09 L 21.929 5.09 Q 21.799 5.09 21.71 5.05 A 0.323 0.323 0 0 1 21.643 5.01 A 0.224 0.224 0 0 1 21.578 4.922 Q 21.545 4.848 21.541 4.731 A 0.944 0.944 0 0 1 21.541 4.702 L 21.541 3.318 A 0.763 0.763 0 0 1 21.806 2.731 A 1.095 1.095 0 0 1 21.899 2.655 A 1.589 1.589 0 0 1 22.166 2.497 Q 22.387 2.395 22.603 2.395 Q 22.837 2.395 22.857 2.658 A 0.679 0.679 0 0 1 22.859 2.71 Z M 29.443 5.098 L 27.927 5.098 Q 27.798 5.098 27.709 5.058 A 0.323 0.323 0 0 1 27.642 5.017 A 0.224 0.224 0 0 1 27.576 4.93 Q 27.543 4.855 27.54 4.738 A 0.944 0.944 0 0 1 27.539 4.71 L 27.539 4.446 A 10.638 10.638 0 0 1 27.555 3.844 Q 27.604 2.985 27.806 2.639 A 0.669 0.669 0 0 1 27.869 2.549 A 1.601 1.601 0 0 1 28.206 2.245 A 1.879 1.879 0 0 1 28.304 2.183 Q 28.52 2.055 28.662 2.033 A 0.37 0.37 0 0 1 28.718 2.029 A 0.337 0.337 0 0 1 28.815 2.042 Q 28.922 2.074 28.95 2.187 A 0.38 0.38 0 0 1 28.96 2.278 Q 28.96 2.322 28.927 2.732 A 10.221 10.221 0 0 0 28.899 3.265 A 12.132 12.132 0 0 0 28.894 3.604 A 0.943 0.943 0 0 0 28.901 3.725 Q 28.918 3.851 28.971 3.93 Q 29.045 4.039 29.259 4.043 A 0.876 0.876 0 0 0 29.275 4.043 L 30.762 4.043 A 0.584 0.584 0 0 1 30.849 4.049 Q 30.961 4.066 30.999 4.132 A 0.158 0.158 0 0 1 31.018 4.211 A 0.335 0.335 0 0 1 30.994 4.33 Q 30.955 4.432 30.854 4.557 A 1.847 1.847 0 0 1 30.769 4.655 Q 30.52 4.922 30.278 5.01 A 0.865 0.865 0 0 1 30.141 5.048 Q 29.91 5.095 29.485 5.098 A 8.161 8.161 0 0 1 29.443 5.098 Z M 31.835 0.798 A 0.969 0.969 0 0 0 31.736 0.711 A 1.752 1.752 0 0 0 31.335 0.485 Q 30.866 0.293 30.19 0.293 A 2.744 2.744 0 0 0 29.797 0.322 A 3.119 3.119 0 0 0 29.041 0.535 A 2.416 2.416 0 0 0 28.489 0.859 A 3.053 3.053 0 0 0 28.001 1.34 A 4.007 4.007 0 0 0 27.957 1.395 Q 27.761 1.645 27.707 1.804 A 0.337 0.337 0 0 0 27.686 1.912 A 0.183 0.183 0 0 0 27.691 1.958 Q 27.711 2.036 27.81 2.036 A 0.059 0.059 0 0 0 27.82 2.035 Q 27.897 2.022 28.198 1.824 Q 28.546 1.59 28.88 1.469 A 2.038 2.038 0 0 1 29.575 1.34 A 2.165 2.165 0 0 1 29.741 1.347 A 1.77 1.77 0 0 1 29.996 1.384 A 4.138 4.138 0 0 1 30.014 1.388 Q 30.136 1.417 30.223 1.445 A 1.202 1.202 0 0 1 30.3 1.472 Q 30.383 1.505 30.535 1.575 A 15.853 15.853 0 0 1 30.645 1.626 Q 30.886 1.741 31.025 1.77 A 0.405 0.405 0 0 0 31.106 1.78 A 0.468 0.468 0 0 0 31.119 1.78 Q 31.363 1.773 31.659 1.513 A 1.881 1.881 0 0 0 31.761 1.416 Q 31.884 1.291 31.932 1.185 A 0.316 0.316 0 0 0 31.963 1.055 A 0.255 0.255 0 0 0 31.96 1.014 Q 31.942 0.907 31.835 0.798 Z M 1.472 8.643 L 1.472 10.525 Q 1.472 10.884 1.318 11.06 A 1.294 1.294 0 0 1 1.114 11.254 Q 1.009 11.336 0.877 11.408 A 2.333 2.333 0 0 1 0.802 11.448 A 2.35 2.35 0 0 1 0.624 11.529 Q 0.441 11.603 0.303 11.614 A 0.587 0.587 0 0 1 0.256 11.616 Q 0.022 11.616 0.002 11.353 A 0.679 0.679 0 0 1 0 11.301 L 0 8.643 A 0.574 0.574 0 0 1 0.014 8.509 A 0.324 0.324 0 0 1 0.187 8.284 A 0.688 0.688 0 0 1 0.322 8.234 Q 0.467 8.195 0.677 8.189 A 2.724 2.724 0 0 1 0.747 8.189 A 2.806 2.806 0 0 1 0.933 8.194 Q 1.111 8.206 1.224 8.243 A 0.471 0.471 0 0 1 1.311 8.28 Q 1.445 8.356 1.468 8.557 A 0.772 0.772 0 0 1 1.472 8.643 Z M 44.084 0.315 L 44.084 1.377 Q 44.084 1.625 43.979 1.792 A 0.581 0.581 0 0 1 43.953 1.831 A 1.52 1.52 0 0 1 43.502 2.186 A 1.404 1.404 0 0 1 43.313 2.269 Q 43.208 2.305 43.11 2.317 A 0.756 0.756 0 0 1 43.022 2.322 Q 42.788 2.322 42.768 2.059 A 0.679 0.679 0 0 1 42.766 2.007 L 42.766 0.945 Q 42.766 0.737 42.836 0.595 A 0.503 0.503 0 0 1 42.898 0.498 A 1.572 1.572 0 0 1 43.348 0.139 A 1.385 1.385 0 0 1 43.538 0.054 Q 43.643 0.017 43.741 0.005 A 0.736 0.736 0 0 1 43.828 0 Q 44.062 0 44.083 0.263 A 0.679 0.679 0 0 1 44.084 0.315 Z M 27.158 4.285 L 27.158 4.71 Q 27.158 4.839 27.118 4.928 A 0.323 0.323 0 0 1 27.078 4.995 A 0.224 0.224 0 0 1 26.99 5.061 Q 26.916 5.094 26.799 5.097 A 0.944 0.944 0 0 1 26.77 5.098 L 26.426 5.098 Q 26.25 5.098 26.195 5.022 A 0.141 0.141 0 0 1 26.169 4.937 A 0.355 0.355 0 0 1 26.195 4.813 Q 26.259 4.641 26.488 4.391 A 2.473 2.473 0 0 1 26.621 4.255 Q 26.834 4.057 26.977 4.044 A 0.22 0.22 0 0 1 26.997 4.043 A 0.148 0.148 0 0 1 27.082 4.066 Q 27.139 4.105 27.154 4.209 A 0.558 0.558 0 0 1 27.158 4.285 Z M 21.16 4.285 L 21.16 4.702 Q 21.16 4.831 21.12 4.921 A 0.323 0.323 0 0 1 21.079 4.988 A 0.224 0.224 0 0 1 20.992 5.053 Q 20.917 5.086 20.8 5.09 A 0.944 0.944 0 0 1 20.772 5.09 L 20.427 5.09 Q 20.252 5.09 20.196 5.015 A 0.141 0.141 0 0 1 20.171 4.929 A 0.353 0.353 0 0 1 20.196 4.806 Q 20.26 4.636 20.485 4.392 A 3.299 3.299 0 0 1 20.49 4.387 A 2.459 2.459 0 0 1 20.623 4.253 Q 20.835 4.057 20.979 4.044 A 0.222 0.222 0 0 1 20.999 4.043 A 0.148 0.148 0 0 1 21.083 4.066 Q 21.141 4.105 21.155 4.209 A 0.558 0.558 0 0 1 21.16 4.285 Z" vector-effect="non-scaling-stroke"/></g></svg>