<svg width="58.726" height="15.674" viewBox="0 0 58.726 15.674" xmlns="http://www.w3.org/2000/svg"><g id="svgGroup" stroke-linecap="round" fill-rule="evenodd" font-size="9pt" stroke="#000" stroke-width="0.25mm" fill="#000" style="stroke:#000;stroke-width:0.25mm;fill:#000"><path d="M 19.585 5.647 L 19.585 0.945 A 0.775 0.775 0 0 1 19.824 0.382 A 1.154 1.154 0 0 1 19.948 0.275 Q 20.31 0 20.647 0 Q 20.881 0 20.901 0.263 A 0.679 0.679 0 0 1 20.903 0.315 L 20.881 4.021 A 0.896 0.896 0 0 0 20.885 4.107 Q 20.893 4.191 20.919 4.236 A 0.088 0.088 0 0 0 20.999 4.285 Q 21.091 4.285 21.272 4.148 A 1.917 1.917 0 0 0 21.284 4.138 A 3.547 3.547 0 0 1 21.971 3.74 A 2.54 2.54 0 0 1 22.983 3.523 A 2.745 2.745 0 0 1 24.256 3.799 Q 25.393 4.385 25.621 6.216 A 8.093 8.093 0 0 1 25.679 7.214 Q 25.679 7.925 25.529 8.654 Q 25.378 9.382 25.115 9.902 Q 24.836 10.459 24.437 10.84 A 2.77 2.77 0 0 1 24.258 10.998 Q 24.077 11.143 23.933 11.194 A 0.435 0.435 0 0 1 23.789 11.221 A 0.223 0.223 0 0 1 23.732 11.214 Q 23.643 11.19 23.643 11.082 A 0.109 0.109 0 0 1 23.647 11.052 Q 23.655 11.024 23.677 10.989 A 0.501 0.501 0 0 1 23.69 10.968 A 1.455 1.455 0 0 0 23.717 10.928 Q 23.759 10.862 23.823 10.75 A 9.103 9.103 0 0 0 23.826 10.745 Q 23.914 10.591 23.987 10.393 Q 24.258 9.652 24.284 8.343 A 14.313 14.313 0 0 0 24.287 8.057 Q 24.287 7.412 24.238 6.904 A 7.378 7.378 0 0 0 24.203 6.607 A 4.85 4.85 0 0 0 24.089 6.032 A 3.703 3.703 0 0 0 23.917 5.526 A 1.807 1.807 0 0 0 23.705 5.152 A 1.383 1.383 0 0 0 23.35 4.816 A 1.424 1.424 0 0 0 22.867 4.62 Q 22.67 4.578 22.441 4.578 A 2.525 2.525 0 0 0 21.892 4.635 A 1.991 1.991 0 0 0 21.409 4.808 Q 21.072 4.982 20.498 5.4 A 21.909 21.909 0 0 0 20.098 5.698 A 1.719 1.719 0 0 1 19.993 5.774 Q 19.889 5.843 19.811 5.868 A 0.268 0.268 0 0 1 19.731 5.881 Q 19.592 5.881 19.585 5.668 A 0.7 0.7 0 0 1 19.585 5.647 Z M 13.953 6.585 A 0.502 0.502 0 0 0 13.96 6.675 Q 13.984 6.803 14.081 6.845 A 0.536 0.536 0 0 0 14.173 6.874 Q 14.287 6.899 14.458 6.899 A 6.268 6.268 0 0 0 14.91 6.884 Q 15.266 6.858 15.549 6.79 A 2.63 2.63 0 0 0 15.83 6.706 Q 16.085 6.613 16.245 6.482 A 1.593 1.593 0 0 0 16.419 6.318 Q 16.509 6.218 16.568 6.113 A 0.932 0.932 0 0 0 16.593 6.065 Q 16.699 5.845 16.699 5.581 A 1.061 1.061 0 0 0 16.647 5.242 A 0.882 0.882 0 0 0 16.384 4.852 A 0.94 0.94 0 0 0 16.087 4.682 Q 15.803 4.578 15.374 4.578 A 3.399 3.399 0 0 0 13.519 5.133 A 4.225 4.225 0 0 0 13.323 5.266 Q 13.044 5.474 12.967 5.478 A 0.056 0.056 0 0 1 12.964 5.479 A 0.159 0.159 0 0 1 12.912 5.471 Q 12.841 5.447 12.839 5.346 A 0.3 0.3 0 0 1 12.839 5.339 A 0.412 0.412 0 0 1 12.863 5.207 Q 12.911 5.068 13.052 4.893 A 3.67 3.67 0 0 1 13.767 4.192 A 3.382 3.382 0 0 1 13.953 4.065 A 4.554 4.554 0 0 1 14.319 3.853 Q 14.504 3.758 14.675 3.696 A 2.284 2.284 0 0 1 14.875 3.633 A 3.242 3.242 0 0 1 15.703 3.523 A 4.38 4.38 0 0 1 16.205 3.55 A 3.317 3.317 0 0 1 16.655 3.633 Q 17.08 3.743 17.41 3.973 A 1.49 1.49 0 0 1 17.862 4.483 A 1.809 1.809 0 0 1 17.922 4.603 A 1.953 1.953 0 0 1 18.07 5.095 A 2.659 2.659 0 0 1 18.105 5.537 A 1.851 1.851 0 0 1 17.422 7.02 A 2.681 2.681 0 0 1 17.018 7.299 A 4.151 4.151 0 0 1 16.025 7.694 Q 15.18 7.918 14.048 7.918 Q 13.521 7.918 12.854 7.859 A 0.532 0.532 0 0 1 12.723 7.835 Q 12.554 7.779 12.529 7.603 A 0.466 0.466 0 0 1 12.524 7.537 Q 12.524 6.724 12.759 6.317 A 1.772 1.772 0 0 1 13.106 5.882 A 1.598 1.598 0 0 1 13.367 5.691 A 2.956 2.956 0 0 1 13.539 5.598 Q 13.706 5.516 13.825 5.49 A 0.473 0.473 0 0 1 13.923 5.479 A 0.199 0.199 0 0 1 14 5.492 Q 14.086 5.528 14.097 5.657 A 0.474 0.474 0 0 1 14.099 5.698 A 0.464 0.464 0 0 1 14.096 5.747 Q 14.084 5.854 14.03 6.107 A 12.736 12.736 0 0 1 14.026 6.127 A 7.825 7.825 0 0 0 13.997 6.265 Q 13.96 6.453 13.954 6.548 A 0.542 0.542 0 0 0 13.953 6.585 Z M 54.573 6.585 A 0.502 0.502 0 0 0 54.58 6.675 Q 54.604 6.803 54.701 6.845 A 0.536 0.536 0 0 0 54.793 6.874 Q 54.907 6.899 55.078 6.899 A 6.268 6.268 0 0 0 55.53 6.884 Q 55.886 6.858 56.169 6.79 A 2.63 2.63 0 0 0 56.451 6.706 Q 56.705 6.613 56.865 6.482 A 1.593 1.593 0 0 0 57.039 6.318 Q 57.129 6.218 57.188 6.113 A 0.932 0.932 0 0 0 57.213 6.065 Q 57.319 5.845 57.319 5.581 A 1.061 1.061 0 0 0 57.267 5.242 A 0.882 0.882 0 0 0 57.004 4.852 A 0.94 0.94 0 0 0 56.707 4.682 Q 56.423 4.578 55.994 4.578 A 3.399 3.399 0 0 0 54.139 5.133 A 4.225 4.225 0 0 0 53.943 5.266 Q 53.664 5.474 53.588 5.478 A 0.056 0.056 0 0 1 53.584 5.479 A 0.159 0.159 0 0 1 53.532 5.471 Q 53.462 5.447 53.46 5.346 A 0.3 0.3 0 0 1 53.459 5.339 A 0.412 0.412 0 0 1 53.483 5.207 Q 53.531 5.068 53.672 4.893 A 3.67 3.67 0 0 1 54.387 4.192 A 3.382 3.382 0 0 1 54.573 4.065 A 4.554 4.554 0 0 1 54.939 3.853 Q 55.124 3.758 55.295 3.696 A 2.284 2.284 0 0 1 55.496 3.633 A 3.242 3.242 0 0 1 56.323 3.523 A 4.38 4.38 0 0 1 56.825 3.55 A 3.317 3.317 0 0 1 57.275 3.633 Q 57.7 3.743 58.03 3.973 A 1.49 1.49 0 0 1 58.482 4.483 A 1.809 1.809 0 0 1 58.542 4.603 A 1.953 1.953 0 0 1 58.691 5.095 A 2.659 2.659 0 0 1 58.726 5.537 A 1.851 1.851 0 0 1 58.042 7.02 A 2.681 2.681 0 0 1 57.638 7.299 A 4.151 4.151 0 0 1 56.645 7.694 Q 55.8 7.918 54.668 7.918 Q 54.141 7.918 53.474 7.859 A 0.532 0.532 0 0 1 53.343 7.835 Q 53.175 7.779 53.149 7.603 A 0.466 0.466 0 0 1 53.145 7.537 Q 53.145 6.724 53.379 6.317 A 1.772 1.772 0 0 1 53.726 5.882 A 1.598 1.598 0 0 1 53.987 5.691 A 2.956 2.956 0 0 1 54.159 5.598 Q 54.326 5.516 54.446 5.49 A 0.473 0.473 0 0 1 54.543 5.479 A 0.199 0.199 0 0 1 54.62 5.492 Q 54.706 5.528 54.718 5.657 A 0.474 0.474 0 0 1 54.719 5.698 A 0.464 0.464 0 0 1 54.716 5.747 Q 54.704 5.854 54.65 6.107 A 12.736 12.736 0 0 1 54.646 6.127 A 7.825 7.825 0 0 0 54.617 6.265 Q 54.581 6.453 54.574 6.548 A 0.542 0.542 0 0 0 54.573 6.585 Z M 43.689 6.467 L 43.689 10.437 A 0.579 0.579 0 0 1 43.594 10.753 A 0.715 0.715 0 0 1 43.575 10.781 A 1.219 1.219 0 0 1 43.297 11.063 A 1.446 1.446 0 0 1 42.946 11.254 A 1.353 1.353 0 0 1 42.817 11.295 Q 42.709 11.323 42.62 11.323 Q 42.385 11.323 42.365 11.06 A 0.679 0.679 0 0 1 42.363 11.008 L 42.363 6.738 A 3.998 3.998 0 0 0 42.293 5.95 Q 42.015 4.578 40.649 4.578 A 3.16 3.16 0 0 0 38.84 5.127 Q 38.518 5.339 38.423 5.339 A 0.148 0.148 0 0 1 38.379 5.333 Q 38.33 5.318 38.318 5.265 A 0.184 0.184 0 0 1 38.313 5.222 Q 38.313 5.035 38.502 4.786 A 1.85 1.85 0 0 1 38.54 4.739 A 3.388 3.388 0 0 1 39.541 3.892 A 3.129 3.129 0 0 1 41.06 3.523 A 4.052 4.052 0 0 1 41.644 3.563 A 3.105 3.105 0 0 1 42.166 3.684 A 1.991 1.991 0 0 1 42.861 4.074 A 1.924 1.924 0 0 1 42.993 4.201 A 2.098 2.098 0 0 1 43.338 4.695 A 2.813 2.813 0 0 1 43.51 5.116 A 3.469 3.469 0 0 1 43.632 5.65 Q 43.674 5.924 43.685 6.236 A 6.531 6.531 0 0 1 43.689 6.467 Z M 32.271 2.168 L 30.74 2.168 Q 30.645 2.168 30.59 2.161 Q 30.535 2.153 30.494 2.113 A 0.132 0.132 0 0 1 30.46 2.053 Q 30.455 2.032 30.454 2.007 A 0.257 0.257 0 0 1 30.454 2 A 0.542 0.542 0 0 1 30.516 1.758 Q 30.615 1.557 30.875 1.34 A 1.909 1.909 0 0 1 31.174 1.133 Q 31.445 0.984 31.714 0.974 L 32.49 0.967 L 33.428 0.974 A 4.343 4.343 0 0 1 34.23 1.066 A 2.971 2.971 0 0 1 34.65 1.188 Q 34.867 1.267 35.098 1.384 A 3.084 3.084 0 0 1 35.911 1.978 Q 36.262 2.336 36.493 2.944 Q 36.724 3.552 36.724 4.321 A 2.721 2.721 0 0 1 36.704 4.636 A 3.682 3.682 0 0 1 36.647 4.981 A 2.909 2.909 0 0 1 36.554 5.31 Q 36.479 5.532 36.361 5.779 Q 36.152 6.218 35.841 6.581 A 2.444 2.444 0 0 1 35.463 6.933 Q 35.258 7.089 35.002 7.225 A 3.222 3.222 0 0 1 34.137 7.535 A 3.856 3.856 0 0 1 33.816 7.588 L 33.772 7.588 A 0.338 0.338 0 0 1 33.698 7.581 Q 33.574 7.553 33.574 7.419 Q 33.574 7.331 33.699 7.243 A 0.762 0.762 0 0 1 33.743 7.214 A 3.003 3.003 0 0 0 34.708 6.293 Q 35.164 5.586 35.164 4.607 Q 35.164 2.338 32.66 2.18 A 6.178 6.178 0 0 0 32.271 2.168 Z M 11.353 1.304 L 9.06 9.976 A 2.046 2.046 0 0 1 8.901 10.442 A 1.458 1.458 0 0 1 8.459 10.979 A 3.299 3.299 0 0 1 8.244 11.128 Q 8.033 11.261 7.873 11.303 A 0.541 0.541 0 0 1 7.734 11.323 A 0.253 0.253 0 0 1 7.657 11.312 Q 7.544 11.276 7.544 11.118 A 1.036 1.036 0 0 1 7.553 10.993 Q 7.569 10.859 7.617 10.667 A 6.06 6.06 0 0 1 7.668 10.474 L 9.866 1.956 A 1.467 1.467 0 0 1 10.305 1.242 A 1.846 1.846 0 0 1 10.404 1.157 Q 10.818 0.828 11.177 0.828 A 0.316 0.316 0 0 1 11.264 0.839 Q 11.396 0.877 11.396 1.047 A 0.617 0.617 0 0 1 11.391 1.124 Q 11.386 1.163 11.377 1.208 A 1.496 1.496 0 0 1 11.353 1.304 Z M 50.193 15.132 A 1.671 1.671 0 0 0 50.771 14.473 A 1.877 1.877 0 0 0 50.965 13.764 A 1.809 1.809 0 0 0 50.969 13.645 A 2.555 2.555 0 0 0 50.918 13.113 Q 50.85 12.795 50.693 12.561 A 1.275 1.275 0 0 0 50.317 12.195 Q 49.666 11.777 48.347 11.763 A 122.988 122.988 0 0 1 48.1 11.759 Q 47.756 11.754 47.561 11.748 A 14.625 14.625 0 0 1 47.56 11.748 Q 47.385 11.743 47.143 11.723 A 15.516 15.516 0 0 1 46.89 11.701 A 4.308 4.308 0 0 1 46.675 11.674 Q 46.469 11.644 46.333 11.598 A 0.967 0.967 0 0 1 46.274 11.576 Q 46.069 11.492 45.839 11.349 A 0.835 0.835 0 0 1 45.635 11.175 A 0.729 0.729 0 0 1 45.516 10.975 A 1.225 1.225 0 0 1 45.449 10.73 Q 45.429 10.615 45.426 10.484 A 2.178 2.178 0 0 1 45.425 10.422 A 1.373 1.373 0 0 1 45.514 9.922 A 1.256 1.256 0 0 1 45.769 9.518 A 2.201 2.201 0 0 1 45.925 9.365 Q 46.172 9.148 46.362 9.148 A 0.19 0.19 0 0 1 46.414 9.155 Q 46.494 9.177 46.494 9.28 Q 46.494 9.331 46.411 9.541 A 5.249 5.249 0 0 1 46.41 9.544 A 1.355 1.355 0 0 0 46.355 9.71 Q 46.326 9.827 46.326 9.932 A 0.51 0.51 0 0 0 46.34 10.057 A 0.39 0.39 0 0 0 46.403 10.192 A 0.541 0.541 0 0 0 46.592 10.354 A 0.633 0.633 0 0 0 46.604 10.36 A 0.644 0.644 0 0 0 46.693 10.396 Q 46.787 10.427 46.922 10.446 A 2.312 2.312 0 0 0 46.967 10.452 Q 47.205 10.481 47.45 10.492 A 8.487 8.487 0 0 0 47.582 10.497 Q 47.764 10.502 48.009 10.503 A 26.842 26.842 0 0 0 48.091 10.503 A 23.226 23.226 0 0 1 48.505 10.506 Q 48.694 10.51 48.863 10.517 A 13.301 13.301 0 0 1 48.973 10.521 A 7.384 7.384 0 0 1 49.473 10.563 A 8.932 8.932 0 0 1 49.79 10.606 A 5.07 5.07 0 0 1 50.146 10.672 Q 50.362 10.721 50.541 10.785 A 2.927 2.927 0 0 1 51.087 11.048 A 3.29 3.29 0 0 1 51.163 11.096 A 1.913 1.913 0 0 1 51.506 11.378 A 1.662 1.662 0 0 1 51.658 11.561 Q 51.836 11.812 51.95 12.175 A 3.12 3.12 0 0 1 51.965 12.224 A 2.792 2.792 0 0 1 52.062 12.713 A 3.642 3.642 0 0 1 52.083 13.11 A 2.309 2.309 0 0 1 51.896 14.03 A 2.662 2.662 0 0 1 51.678 14.44 A 2.086 2.086 0 0 1 51.427 14.755 A 2.743 2.743 0 0 1 51.006 15.111 A 2.414 2.414 0 0 1 50.823 15.223 A 1.841 1.841 0 0 1 50.578 15.338 Q 50.441 15.39 50.313 15.408 A 1.006 1.006 0 0 1 50.222 15.418 A 0.269 0.269 0 0 1 50.169 15.413 Q 50.086 15.396 50.077 15.321 A 0.164 0.164 0 0 1 50.076 15.3 A 0.117 0.117 0 0 1 50.088 15.25 Q 50.107 15.211 50.154 15.166 A 0.659 0.659 0 0 1 50.193 15.132 Z M 6.226 1.172 L 7.698 7.229 A 4.151 4.151 0 0 1 7.757 7.553 Q 7.778 7.706 7.784 7.843 A 2.289 2.289 0 0 1 7.786 7.932 Q 7.786 8.136 7.704 8.526 A 9.594 9.594 0 0 1 7.643 8.8 A 8.632 8.632 0 0 1 7.572 9.077 Q 7.499 9.342 7.43 9.513 A 1.492 1.492 0 0 1 7.368 9.646 A 0.789 0.789 0 0 1 7.302 9.749 Q 7.205 9.875 7.091 9.887 A 0.231 0.231 0 0 1 7.068 9.888 A 0.236 0.236 0 0 1 6.877 9.791 Q 6.813 9.71 6.773 9.563 A 1.182 1.182 0 0 1 6.768 9.544 L 4.907 2.044 Q 4.863 1.875 4.863 1.729 A 0.595 0.595 0 0 1 4.936 1.447 A 0.806 0.806 0 0 1 5.01 1.333 A 1.252 1.252 0 0 1 5.265 1.093 A 1.617 1.617 0 0 1 5.46 0.974 Q 5.717 0.841 5.891 0.829 A 0.493 0.493 0 0 1 5.925 0.828 A 0.287 0.287 0 0 1 6.003 0.838 A 0.211 0.211 0 0 1 6.108 0.905 Q 6.174 0.982 6.226 1.172 Z M 1.794 9.529 L 0.044 1.963 Q 0 1.743 0 1.692 A 0.595 0.595 0 0 1 0.139 1.314 Q 0.207 1.228 0.31 1.149 A 1.405 1.405 0 0 1 0.396 1.088 Q 0.77 0.842 1.045 0.828 A 0.648 0.648 0 0 1 1.077 0.828 A 0.353 0.353 0 0 1 1.145 0.834 Q 1.219 0.848 1.26 0.897 Q 1.307 0.953 1.344 1.087 A 1.541 1.541 0 0 1 1.362 1.157 L 2.703 6.929 A 3.386 3.386 0 0 1 2.782 7.582 A 3.815 3.815 0 0 1 2.783 7.683 Q 2.783 8.489 2.545 9.181 A 3.83 3.83 0 0 1 2.456 9.416 Q 2.314 9.755 2.176 9.842 A 0.178 0.178 0 0 1 2.08 9.873 A 0.227 0.227 0 0 1 1.888 9.769 Q 1.828 9.685 1.795 9.534 A 1.184 1.184 0 0 1 1.794 9.529 Z M 4.951 6.182 L 4.08 9.976 A 2.212 2.212 0 0 1 3.925 10.429 Q 3.779 10.737 3.543 10.938 A 1.391 1.391 0 0 1 3.494 10.979 A 3.634 3.634 0 0 1 3.312 11.113 Q 3.006 11.323 2.834 11.323 A 0.295 0.295 0 0 1 2.749 11.312 Q 2.622 11.274 2.622 11.104 Q 2.622 10.97 3.897 5.344 A 2779.411 2779.411 0 0 1 4.307 3.538 A 0.731 0.731 0 0 1 4.341 3.425 Q 4.413 3.245 4.563 3.245 A 0.159 0.159 0 0 1 4.675 3.3 Q 4.782 3.408 4.877 3.729 A 4.021 4.021 0 0 1 4.933 3.94 A 7.058 7.058 0 0 1 5.04 4.478 Q 5.08 4.734 5.092 4.962 A 3.688 3.688 0 0 1 5.098 5.164 A 2.366 2.366 0 0 1 5.086 5.383 Q 5.066 5.599 5.01 5.896 A 10.881 10.881 0 0 1 4.951 6.182 Z M 19.585 9.551 L 19.585 7.068 A 1.235 1.235 0 0 1 19.611 6.804 Q 19.65 6.63 19.743 6.498 A 0.742 0.742 0 0 1 19.79 6.438 A 2.338 2.338 0 0 1 20.16 6.098 A 2.681 2.681 0 0 1 20.259 6.028 Q 20.53 5.845 20.676 5.845 A 0.228 0.228 0 0 1 20.785 5.869 Q 20.903 5.932 20.903 6.16 L 20.903 9.104 A 2.92 2.92 0 0 0 20.927 9.456 Q 20.986 9.902 21.193 10.122 A 0.812 0.812 0 0 0 21.487 10.316 Q 21.734 10.416 22.106 10.422 A 2.991 2.991 0 0 0 22.156 10.422 A 3.617 3.617 0 0 0 22.577 10.399 Q 22.81 10.372 23.009 10.313 Q 23.379 10.203 23.394 10.203 Q 23.516 10.203 23.541 10.305 A 0.25 0.25 0 0 1 23.547 10.364 Q 23.547 10.738 23.046 11.089 A 2.527 2.527 0 0 1 23.009 11.115 Q 22.471 11.477 21.658 11.477 Q 20.965 11.477 20.489 11.258 A 1.706 1.706 0 0 1 20.131 11.038 Q 19.585 10.598 19.585 9.551 Z M 50.544 4.036 L 51.936 4.036 A 0.505 0.505 0 0 1 52.019 4.042 Q 52.17 4.067 52.17 4.197 A 0.317 0.317 0 0 1 52.145 4.315 Q 52.094 4.443 51.936 4.603 A 1.757 1.757 0 0 1 51.753 4.766 Q 51.65 4.845 51.548 4.895 A 0.944 0.944 0 0 1 51.467 4.929 A 1.185 1.185 0 0 1 51.281 4.981 Q 50.953 5.046 50.332 5.046 Q 49.605 5.046 49.188 4.933 A 1.583 1.583 0 0 1 49.021 4.878 A 5.158 5.158 0 0 0 48.474 4.695 Q 48.203 4.622 47.958 4.594 A 2.55 2.55 0 0 0 47.673 4.578 A 1.946 1.946 0 0 0 47.441 4.593 Q 47.191 4.623 46.86 4.713 A 3.129 3.129 0 0 0 46.294 4.931 A 4.182 4.182 0 0 0 45.842 5.193 A 7.338 7.338 0 0 1 45.773 5.241 Q 45.586 5.369 45.521 5.392 A 0.073 0.073 0 0 1 45.498 5.398 A 0.149 0.149 0 0 1 45.45 5.391 Q 45.384 5.368 45.381 5.274 A 0.283 0.283 0 0 1 45.381 5.266 A 0.238 0.238 0 0 1 45.393 5.198 Q 45.428 5.081 45.571 4.878 Q 45.85 4.468 46.201 4.179 A 2.776 2.776 0 0 1 46.567 3.922 A 2.158 2.158 0 0 1 46.915 3.757 A 4.792 4.792 0 0 1 47.22 3.657 Q 47.372 3.613 47.511 3.586 A 2.772 2.772 0 0 1 47.574 3.574 Q 47.871 3.523 48.164 3.523 A 4.083 4.083 0 0 1 49.775 3.853 Q 50.11 3.995 50.388 4.026 A 1.37 1.37 0 0 0 50.544 4.036 Z M 12.935 8.247 L 13.564 8.247 Q 13.726 8.247 13.806 8.3 A 0.186 0.186 0 0 1 13.832 8.32 A 0.224 0.224 0 0 1 13.871 8.374 Q 13.905 8.433 13.93 8.534 A 1.583 1.583 0 0 1 13.952 8.642 A 2.925 2.925 0 0 0 14.172 9.4 Q 14.56 10.247 15.491 10.392 A 2.654 2.654 0 0 0 15.901 10.422 A 3.016 3.016 0 0 0 16.469 10.371 A 2.642 2.642 0 0 0 16.685 10.32 Q 17.051 10.217 17.252 10.093 Q 17.454 9.968 17.626 9.866 Q 17.795 9.765 17.876 9.763 A 0.131 0.131 0 0 1 17.878 9.763 A 0.221 0.221 0 0 1 17.948 9.773 Q 18.019 9.797 18.039 9.876 A 0.288 0.288 0 0 1 18.047 9.946 A 0.377 0.377 0 0 1 18.03 10.051 Q 17.994 10.176 17.878 10.342 A 2.004 2.004 0 0 1 17.711 10.549 Q 17.62 10.648 17.506 10.75 A 3.911 3.911 0 0 1 17.399 10.844 A 1.962 1.962 0 0 1 17.107 11.043 Q 16.866 11.179 16.542 11.29 A 3.501 3.501 0 0 1 15.653 11.467 A 4.141 4.141 0 0 1 15.359 11.477 Q 14.041 11.477 13.312 10.682 A 2.725 2.725 0 0 1 12.634 9.264 A 3.787 3.787 0 0 1 12.583 8.628 A 0.598 0.598 0 0 1 12.599 8.482 Q 12.647 8.292 12.837 8.256 A 0.52 0.52 0 0 1 12.935 8.247 Z M 53.555 8.247 L 54.185 8.247 Q 54.346 8.247 54.426 8.3 A 0.186 0.186 0 0 1 54.452 8.32 A 0.224 0.224 0 0 1 54.491 8.374 Q 54.525 8.433 54.55 8.534 A 1.583 1.583 0 0 1 54.573 8.642 A 2.925 2.925 0 0 0 54.792 9.4 Q 55.18 10.247 56.111 10.392 A 2.654 2.654 0 0 0 56.521 10.422 A 3.016 3.016 0 0 0 57.089 10.371 A 2.642 2.642 0 0 0 57.305 10.32 Q 57.671 10.217 57.872 10.093 Q 58.074 9.968 58.246 9.866 Q 58.415 9.765 58.496 9.763 A 0.131 0.131 0 0 1 58.499 9.763 A 0.221 0.221 0 0 1 58.568 9.773 Q 58.639 9.797 58.659 9.876 A 0.288 0.288 0 0 1 58.667 9.946 A 0.377 0.377 0 0 1 58.651 10.051 Q 58.614 10.176 58.499 10.342 A 2.004 2.004 0 0 1 58.331 10.549 Q 58.24 10.648 58.127 10.75 A 3.911 3.911 0 0 1 58.019 10.844 A 1.962 1.962 0 0 1 57.727 11.043 Q 57.486 11.179 57.162 11.29 A 3.501 3.501 0 0 1 56.273 11.467 A 4.141 4.141 0 0 1 55.979 11.477 Q 54.661 11.477 53.932 10.682 A 2.725 2.725 0 0 1 53.255 9.264 A 3.787 3.787 0 0 1 53.203 8.628 A 0.598 0.598 0 0 1 53.219 8.482 Q 53.267 8.292 53.457 8.256 A 0.52 0.52 0 0 1 53.555 8.247 Z M 30.454 6.921 L 30.454 3.018 A 0.595 0.595 0 0 1 30.466 2.892 Q 30.482 2.819 30.518 2.767 A 0.282 0.282 0 0 1 30.634 2.67 Q 30.813 2.586 31.187 2.586 Q 31.597 2.586 31.761 2.67 Q 31.904 2.743 31.923 2.95 A 0.736 0.736 0 0 1 31.926 3.018 L 31.926 6.072 Q 31.926 6.341 32.13 6.38 A 0.398 0.398 0 0 0 32.205 6.387 L 33.428 6.387 A 0.81 0.81 0 0 1 33.535 6.393 Q 33.651 6.409 33.703 6.462 A 0.149 0.149 0 0 1 33.743 6.57 Q 33.743 6.71 33.541 6.884 A 1.721 1.721 0 0 1 33.424 6.976 Q 33.149 7.176 32.74 7.317 A 4.053 4.053 0 0 1 32.607 7.361 A 1.212 1.212 0 0 1 32.433 7.397 Q 32.133 7.442 31.51 7.453 A 24.906 24.906 0 0 1 31.084 7.456 Q 30.71 7.456 30.582 7.324 A 0.408 0.408 0 0 1 30.491 7.172 Q 30.454 7.066 30.454 6.921 Z M 45.3 13.057 A 2.286 2.286 0 0 0 45.183 13.799 A 1.887 1.887 0 0 0 45.187 13.918 A 1.549 1.549 0 0 0 45.421 14.659 Q 45.659 15.037 46.04 15.249 A 3.351 3.351 0 0 0 46.827 15.568 A 3.503 3.503 0 0 0 46.878 15.581 A 3.144 3.144 0 0 0 47.629 15.674 A 4.973 4.973 0 0 0 48.082 15.654 A 4.025 4.025 0 0 0 48.776 15.531 Q 49.103 15.442 49.344 15.328 A 1.936 1.936 0 0 0 49.603 15.183 A 3.226 3.226 0 0 0 49.732 15.092 Q 49.833 15.016 49.915 14.941 A 1.593 1.593 0 0 0 50.072 14.777 A 1.354 1.354 0 0 0 50.1 14.741 Q 50.184 14.631 50.216 14.539 A 0.333 0.333 0 0 0 50.237 14.429 Q 50.237 14.326 50.157 14.303 A 0.19 0.19 0 0 0 50.105 14.297 A 0.016 0.016 0 0 0 50.102 14.298 Q 50.081 14.303 49.927 14.359 A 37.61 37.61 0 0 0 49.874 14.378 Q 49.651 14.458 49.27 14.539 Q 48.889 14.619 48.516 14.619 A 4.812 4.812 0 0 1 48.145 14.605 Q 47.382 14.546 46.886 14.235 A 1.698 1.698 0 0 1 46.784 14.165 Q 46.549 13.993 46.423 13.768 A 1.2 1.2 0 0 1 46.274 13.169 A 3.823 3.823 0 0 1 46.275 13.118 A 3.445 3.445 0 0 1 46.344 12.466 A 44.442 44.442 0 0 0 46.36 12.386 Q 46.414 12.126 46.414 12.107 A 0.228 0.228 0 0 0 46.408 12.054 Q 46.392 11.987 46.33 11.968 A 0.19 0.19 0 0 0 46.274 11.961 A 0.302 0.302 0 0 0 46.26 11.961 Q 45.979 11.974 45.586 12.51 A 2.024 2.024 0 0 0 45.3 13.057 Z M 45.815 5.65 A 1.674 1.674 0 0 0 45.696 5.742 Q 45.446 5.966 45.374 6.383 A 2.172 2.172 0 0 0 45.344 6.753 A 3.292 3.292 0 0 0 45.371 7.181 A 2.477 2.477 0 0 0 45.483 7.669 Q 45.551 7.864 45.639 8.023 A 1.562 1.562 0 0 0 45.85 8.32 A 1.862 1.862 0 0 0 45.864 8.336 A 1.952 1.952 0 0 0 46.392 8.734 A 2.707 2.707 0 0 0 46.49 8.783 A 2.371 2.371 0 0 0 47.029 8.965 A 3.1 3.1 0 0 0 47.11 8.98 A 3.397 3.397 0 0 0 47.703 9.031 A 3.252 3.252 0 0 0 47.983 9.019 Q 48.239 8.997 48.453 8.933 A 1.528 1.528 0 0 0 48.951 8.683 Q 49.402 8.335 49.402 8.042 A 0.332 0.332 0 0 0 49.401 8.016 Q 49.394 7.923 49.332 7.898 A 0.142 0.142 0 0 0 49.277 7.888 A 0.065 0.065 0 0 0 49.273 7.888 Q 49.217 7.892 48.984 7.987 A 1.098 1.098 0 0 1 48.893 8.02 Q 48.781 8.054 48.649 8.071 A 2.08 2.08 0 0 1 48.391 8.086 A 5.068 5.068 0 0 1 48.324 8.086 Q 48.123 8.083 47.963 8.064 Q 47.84 8.05 47.684 8.002 A 2.924 2.924 0 0 1 47.512 7.943 A 1.387 1.387 0 0 1 47.356 7.874 A 1.104 1.104 0 0 1 47.076 7.669 Q 46.962 7.552 46.867 7.359 A 2.228 2.228 0 0 1 46.776 7.145 A 1.728 1.728 0 0 1 46.75 7.069 Q 46.697 6.901 46.672 6.706 A 2.975 2.975 0 0 1 46.648 6.321 A 4.059 4.059 0 0 1 46.652 6.152 A 4.939 4.939 0 0 1 46.674 5.852 Q 46.694 5.65 46.698 5.573 A 0.588 0.588 0 0 0 46.699 5.544 A 0.459 0.459 0 0 0 46.699 5.535 Q 46.696 5.381 46.588 5.344 A 0.244 0.244 0 0 0 46.509 5.332 A 0.389 0.389 0 0 0 46.458 5.336 Q 46.361 5.348 46.231 5.407 A 1.828 1.828 0 0 0 46.099 5.475 A 3.85 3.85 0 0 0 45.946 5.565 Q 45.875 5.608 45.815 5.65 Z M 41.377 11.142 A 2.254 2.254 0 0 0 41.807 10.84 Q 41.935 10.721 41.977 10.529 A 0.951 0.951 0 0 0 41.997 10.327 A 1.31 1.31 0 0 0 41.997 10.296 Q 41.993 10.154 41.958 10.096 A 0.072 0.072 0 0 0 41.895 10.056 Q 41.845 10.056 41.757 10.102 A 1.092 1.092 0 0 0 41.697 10.137 Q 41.573 10.211 41.419 10.268 A 2.356 2.356 0 0 1 41.162 10.346 Q 40.965 10.394 40.806 10.412 A 1.595 1.595 0 0 1 40.627 10.422 Q 39.895 10.422 39.609 10.045 Q 39.402 9.771 39.345 9.255 A 3.876 3.876 0 0 1 39.324 8.833 A 0.412 0.412 0 0 0 39.322 8.795 Q 39.314 8.706 39.265 8.657 A 0.235 0.235 0 0 0 39.263 8.655 A 0.19 0.19 0 0 0 39.126 8.599 A 0.494 0.494 0 0 0 39.082 8.601 Q 38.919 8.615 38.721 8.736 A 1.891 1.891 0 0 0 38.54 8.862 A 0.906 0.906 0 0 0 38.211 9.348 A 1.255 1.255 0 0 0 38.167 9.69 A 2.189 2.189 0 0 0 38.167 9.714 A 1.724 1.724 0 0 0 38.683 10.961 A 1.555 1.555 0 0 0 38.981 11.193 Q 39.451 11.477 40.173 11.477 A 2.103 2.103 0 0 0 40.58 11.436 A 2.668 2.668 0 0 0 41.045 11.298 A 2.912 2.912 0 0 0 41.377 11.142 Z M 41.845 6.951 A 0.489 0.489 0 0 0 41.748 6.885 A 2.068 2.068 0 0 0 41.259 6.714 A 2.633 2.633 0 0 0 40.701 6.658 A 3.437 3.437 0 0 0 40.533 6.662 A 2.886 2.886 0 0 0 39.291 6.998 A 2.578 2.578 0 0 0 38.989 7.188 A 2.674 2.674 0 0 0 38.269 7.991 A 1.366 1.366 0 0 0 38.224 8.071 Q 38.123 8.267 38.123 8.438 A 0.283 0.283 0 0 0 38.123 8.445 Q 38.125 8.539 38.191 8.562 A 0.149 0.149 0 0 0 38.24 8.569 A 0.13 0.13 0 0 0 38.279 8.562 Q 38.354 8.538 38.494 8.434 A 3.112 3.112 0 0 0 38.584 8.364 A 3.419 3.419 0 0 1 39.009 8.072 A 2.538 2.538 0 0 1 40.298 7.712 A 2.224 2.224 0 0 1 40.526 7.725 Q 40.992 7.773 41.543 8.013 A 1.349 1.349 0 0 0 41.592 8.034 Q 41.704 8.079 41.77 8.079 A 0.238 0.238 0 0 0 41.776 8.079 Q 41.896 8.076 41.942 7.951 A 0.508 0.508 0 0 0 41.961 7.885 Q 41.99 7.757 41.99 7.529 A 4.109 4.109 0 0 0 41.99 7.507 Q 41.988 7.196 41.938 7.079 A 0.355 0.355 0 0 0 41.845 6.951 Z M 31.926 8.35 L 31.926 10.232 Q 31.926 10.591 31.772 10.767 A 1.294 1.294 0 0 1 31.568 10.961 Q 31.463 11.043 31.332 11.115 A 2.333 2.333 0 0 1 31.256 11.155 A 2.35 2.35 0 0 1 31.078 11.236 Q 30.895 11.31 30.757 11.321 A 0.587 0.587 0 0 1 30.71 11.323 Q 30.476 11.323 30.456 11.06 A 0.679 0.679 0 0 1 30.454 11.008 L 30.454 8.35 A 0.574 0.574 0 0 1 30.468 8.216 A 0.324 0.324 0 0 1 30.641 7.991 A 0.688 0.688 0 0 1 30.776 7.941 Q 30.921 7.902 31.131 7.896 A 2.724 2.724 0 0 1 31.201 7.896 A 2.806 2.806 0 0 1 31.387 7.901 Q 31.565 7.913 31.678 7.95 A 0.471 0.471 0 0 1 31.765 7.987 Q 31.899 8.063 31.922 8.264 A 0.772 0.772 0 0 1 31.926 8.35 Z M 51.042 5.588 A 0.351 0.351 0 0 0 50.924 5.5 Q 50.744 5.413 50.383 5.413 A 4.941 4.941 0 0 0 50.293 5.413 Q 50.073 5.417 49.948 5.442 A 1.551 1.551 0 0 0 49.895 5.453 Q 49.82 5.47 49.789 5.488 A 0.064 0.064 0 0 0 49.772 5.501 A 0.1 0.1 0 0 0 49.751 5.538 A 0.124 0.124 0 0 0 49.746 5.574 A 0.082 0.082 0 0 0 49.748 5.592 Q 49.754 5.615 49.771 5.645 A 0.486 0.486 0 0 0 49.79 5.676 A 1.138 1.138 0 0 1 49.872 5.821 Q 49.921 5.922 49.96 6.047 A 2.542 2.542 0 0 1 50.024 6.299 A 6.396 6.396 0 0 1 50.031 6.334 Q 50.105 6.705 50.105 6.943 A 3.176 3.176 0 0 1 50.094 7.215 A 2.565 2.565 0 0 1 50.024 7.632 Q 49.969 7.848 49.907 7.991 A 0.986 0.986 0 0 1 49.849 8.104 A 22.518 22.518 0 0 1 49.757 8.254 A 16.812 16.812 0 0 1 49.673 8.39 A 1.528 1.528 0 0 0 49.659 8.412 Q 49.592 8.523 49.592 8.569 Q 49.592 8.672 49.672 8.695 A 0.19 0.19 0 0 0 49.724 8.701 A 0.213 0.213 0 0 0 49.754 8.699 Q 49.916 8.676 50.233 8.416 A 4 4 0 0 0 50.353 8.313 Q 50.614 8.081 50.764 7.859 A 2.758 2.758 0 0 0 51.226 6.328 Q 51.226 6.004 51.15 5.792 A 0.715 0.715 0 0 0 51.042 5.588 Z" vector-effect="non-scaling-stroke"/></g></svg>