<svg width="20.72" height="6.841" viewBox="0 0 20.72 6.841" xmlns="http://www.w3.org/2000/svg"><g id="svgGroup" stroke-linecap="round" fill-rule="evenodd" font-size="9pt" stroke="#000" stroke-width="0.25mm" fill="#000" style="stroke:#000;stroke-width:0.25mm;fill:#000"><path d="M 9.185 3.523 L 0.315 3.523 A 0.668 0.668 0 0 1 0.204 3.515 Q 0.007 3.481 0 3.315 A 0.295 0.295 0 0 1 0 3.303 Q 0 3.218 0.116 3.044 A 1.926 1.926 0 0 1 0.125 3.032 Q 0.239 2.864 0.427 2.69 A 2.965 2.965 0 0 1 0.461 2.659 Q 0.615 2.518 0.964 2.506 A 1.953 1.953 0 0 1 1.033 2.505 L 9.91 2.505 Q 10.219 2.505 10.225 2.724 A 0.318 0.318 0 0 1 10.225 2.732 A 0.167 0.167 0 0 1 10.217 2.779 Q 10.193 2.859 10.096 2.999 A 1.802 1.802 0 0 1 9.95 3.184 Q 9.864 3.28 9.756 3.376 A 0.446 0.446 0 0 1 9.618 3.459 Q 9.485 3.511 9.279 3.521 A 2.057 2.057 0 0 1 9.185 3.523 Z M 20.266 3.896 L 13.579 1.318 A 3.743 3.743 0 0 1 13.389 1.241 Q 13.168 1.142 13.052 1.047 A 1.322 1.322 0 0 1 12.797 0.778 A 0.97 0.97 0 0 1 12.62 0.212 Q 12.62 0.012 12.764 0.001 A 0.225 0.225 0 0 1 12.781 0 A 0.443 0.443 0 0 1 12.86 0.008 Q 12.936 0.022 13.034 0.06 A 1.606 1.606 0 0 1 13.066 0.073 L 19.834 2.791 A 3.073 3.073 0 0 1 20.023 2.867 Q 20.22 2.955 20.332 3.047 A 1.067 1.067 0 0 1 20.618 3.424 Q 20.72 3.647 20.72 3.779 A 0.247 0.247 0 0 1 20.709 3.855 A 0.213 0.213 0 0 1 20.676 3.918 Q 20.632 3.977 20.566 3.977 A 0.349 0.349 0 0 1 20.508 3.971 Q 20.417 3.956 20.266 3.896 Z M 12.935 6.086 L 18.633 4.05 A 1.112 1.112 0 0 1 18.793 4.003 A 0.819 0.819 0 0 1 18.962 3.984 A 1.446 1.446 0 0 1 19.269 4.019 Q 19.409 4.049 19.559 4.106 A 2.513 2.513 0 0 1 19.603 4.124 A 1.326 1.326 0 0 1 19.73 4.182 Q 19.951 4.298 19.951 4.438 A 0.157 0.157 0 0 1 19.905 4.548 Q 19.856 4.6 19.756 4.642 A 0.948 0.948 0 0 1 19.695 4.666 L 14.07 6.687 A 0.3 0.3 0 0 0 14.056 6.691 Q 14.021 6.702 13.935 6.733 A 9.814 9.814 0 0 0 13.92 6.738 A 2.429 2.429 0 0 1 13.711 6.804 A 2.216 2.216 0 0 1 13.682 6.812 Q 13.59 6.835 13.516 6.839 A 0.587 0.587 0 0 1 13.477 6.841 A 1.038 1.038 0 0 1 13.084 6.761 A 1.351 1.351 0 0 1 12.905 6.672 A 1.228 1.228 0 0 1 12.794 6.599 Q 12.683 6.516 12.643 6.435 A 0.206 0.206 0 0 1 12.62 6.343 Q 12.62 6.306 12.638 6.273 A 0.231 0.231 0 0 1 12.653 6.249 Q 12.665 6.233 12.678 6.222 A 0.359 0.359 0 0 1 12.694 6.21 Q 12.713 6.196 12.74 6.178 A 1.491 1.491 0 0 1 12.759 6.166 Q 12.786 6.15 12.803 6.141 Q 12.825 6.13 12.876 6.108 A 1.805 1.805 0 0 1 12.888 6.103 Q 12.928 6.086 12.935 6.086 Z" vector-effect="non-scaling-stroke"/></g></svg>